<svg width="133" height="148" viewBox="0 0 133 148" fill="none" xmlns="http://www.w3.org/2000/svg">
<path d="M42.6465 143.453L121.625 147.057C121.625 147.057 125.308 110.367 118.842 100.846C111.449 89.9608 97.9835 88.6282 97.9835 88.6282L64.9172 87.5059C64.9172 87.5059 53.9241 86.685 44.4892 96.3881C37.6898 103.381 26.9215 111.827 26.9215 111.827" fill="white"/>
<path d="M42.6465 143.453L121.625 147.057C121.625 147.057 125.308 110.367 118.842 100.846C111.449 89.9608 97.9835 88.6282 97.9835 88.6282L64.9172 87.5059C64.9172 87.5059 53.9241 86.685 44.4892 96.3881C37.6898 103.381 26.9215 111.827 26.9215 111.827" stroke="#1C1C1B" stroke-opacity="0.75" stroke-width="0.84792" stroke-miterlimit="10" stroke-linecap="round" stroke-linejoin="round"/>
<path d="M24.1185 98.6308C24.1185 98.6308 22.4384 83.7206 20.8614 78.1951C20.8614 78.1951 13.3195 83.5035 0.5407 80.1409C0.5407 80.1409 -0.447917 103.216 3.37031 116.333C3.37031 116.333 8.65485 149.186 35.6064 139.303C33.5636 133.981 31.2253 125.004 29.6559 110.052L24.1185 98.6308Z" fill="white"/>
<path d="M24.1185 98.6308C24.1185 98.6308 22.4384 83.7206 20.8614 78.1951C20.8614 78.1951 13.3195 83.5035 0.5407 80.1409C0.5407 80.1409 -0.447917 103.216 3.37031 116.333C3.37031 116.333 8.65485 149.186 35.6064 139.303C33.5636 133.981 31.2253 125.004 29.6559 110.052L24.1185 98.6308Z" stroke="#1C1C1B" stroke-opacity="0.75" stroke-width="0.84792" stroke-miterlimit="10" stroke-linecap="round" stroke-linejoin="round"/>
<path d="M29.6557 110.053C31.2242 125.004 33.5633 133.981 35.6061 139.303C37.7111 138.531 39.9438 137.507 42.3212 136.177L29.6557 110.053Z" fill="#1C1C1B" fill-opacity="0.75"/>
<path d="M29.6557 110.053C31.2242 125.004 33.5633 133.981 35.6061 139.303C37.7111 138.531 39.9438 137.507 42.3212 136.177L29.6557 110.053Z" stroke="#1C1C1B" stroke-opacity="0.75" stroke-width="0.84792" stroke-miterlimit="10" stroke-linecap="round" stroke-linejoin="round"/>
<path d="M65.635 89.6001C66.9711 92.107 70.774 96.0172 81.5593 96.3935C92.7458 96.7835 97.5748 93.6176 99.598 91.3168C84.6878 88.7426 71.7311 89.1607 65.635 89.6001Z" fill="white"/>
<path d="M65.635 89.6001C66.9711 92.107 70.774 96.0172 81.5593 96.3935C92.7458 96.7835 97.5748 93.6176 99.598 91.3168C84.6878 88.7426 71.7311 89.1607 65.635 89.6001Z" stroke="#1C1C1B" stroke-opacity="0.75" stroke-width="1.13452" stroke-miterlimit="10" stroke-linecap="round" stroke-linejoin="round"/>
<path d="M99.5979 91.3179C100.714 90.0483 100.979 89.0409 100.979 89.0409C72.4931 85.3249 64.9171 87.5065 64.9171 87.5065C64.9171 87.5065 64.9904 88.3912 65.635 89.6012C71.7302 89.161 84.6878 88.7437 99.5979 91.3179Z" fill="#1A1A1A"/>
<path d="M99.5979 91.3179C100.714 90.0483 100.979 89.0409 100.979 89.0409C72.4931 85.3249 64.9171 87.5065 64.9171 87.5065C64.9171 87.5065 64.9904 88.3912 65.635 89.6012C71.7302 89.161 84.6878 88.7437 99.5979 91.3179Z" stroke="#1A1A1A" stroke-width="1.13452" stroke-miterlimit="10"/>
<path d="M73.2621 92.9552L73.1429 87.68L73.1139 85.8399C78.2656 88.0896 86.5671 88.9113 90.6229 89.188L90.095 92.9075" fill="white"/>
<path d="M73.2621 92.9552L73.1429 87.68L73.1139 85.8399C78.2656 88.0896 86.5671 88.9113 90.6229 89.188L90.095 92.9075" stroke="#1C1C1B" stroke-opacity="0.75" stroke-width="1.13452" stroke-miterlimit="10" stroke-linecap="round" stroke-linejoin="round"/>
<path d="M73.009 76.9894L91.2307 78.8542L90.7879 87.1455L90.6227 89.1883C86.5678 88.9107 78.2654 88.0898 73.1137 85.8401L73.009 76.9894Z" fill="#1A1A1A"/>
<path d="M73.009 76.9894L91.2307 78.8542L90.7879 87.1455L90.6227 89.1883C86.5678 88.9107 78.2654 88.0898 73.1137 85.8401L73.009 76.9894Z" stroke="#1A1A1A" stroke-width="1.13452" stroke-miterlimit="10"/>
<path d="M53.3831 43.6514C50.7273 39.9839 51.2782 34.7368 53.5202 30.8028C55.7623 26.8688 60.1979 22.9926 60.2268 23.4406" stroke="black" stroke-opacity="0.1" stroke-width="0.662226" stroke-miterlimit="10"/>
<path d="M119.627 63.9257C123.15 63.8235 126.542 61.6853 128.153 58.5508C129.764 55.4155 129.528 51.4125 127.56 48.4893C131.866 45.1411 133.649 38.8986 131.762 33.7818C129.874 28.6641 124.465 25.075 119.016 25.3253" stroke="black" stroke-opacity="0.1" stroke-width="0.662226" stroke-miterlimit="10"/>
<path d="M86.0663 78.104L83.9834 83.2991C77.8848 83.0241 72.0017 81.4113 66.9717 78.5851L69.2129 70.9282L86.0663 78.104Z" fill="#EBA178"/>
<path d="M65.6486 22.511C61.8432 27.6661 59.9179 30.8023 56.8149 44.3619C53.9427 56.91 59.1668 71.7281 73.8922 77.315C87.732 82.5646 105.076 81.8791 114.627 62.926C122.678 46.954 123.105 28.7612 106.483 18.8452C89.8616 8.92841 72.8712 12.727 65.6486 22.511Z" fill="white"/>
<path d="M65.6486 22.511C61.8432 27.6661 59.9179 30.8023 56.8149 44.3619C53.9427 56.91 59.1668 71.7281 73.8922 77.315C87.732 82.5646 105.076 81.8791 114.627 62.926C122.678 46.954 123.105 28.7612 106.483 18.8452C89.8616 8.92841 72.8712 12.727 65.6486 22.511Z" stroke="#1C1C1B" stroke-opacity="0.75" stroke-width="0.84792" stroke-miterlimit="10" stroke-linecap="round" stroke-linejoin="round"/>
<path d="M76.3988 5.58526C71.661 6.50064 76.1655 6.48787 72.3652 9.46053C68.5648 12.434 56.9032 19.041 59.2688 23.2467C57.4559 25.8132 50.4691 35.8432 52.5903 44.3993C53.3081 47.2945 55.0137 48.5709 57.7624 47.4137C60.512 46.2565 62.5267 42.1275 63.6107 39.349C64.6947 36.5696 66.4828 33.2444 66.7962 30.2785C71.1543 27.3416 75.1956 23.9364 78.8282 20.1386C80.676 18.2065 82.4881 16.0309 82.9411 13.3963C83.3932 10.7617 81.9439 7.62721 79.3136 7.14695" fill="#1A1A1A"/>
<path d="M114.584 60.6195C114.584 60.6195 109.596 57.7234 111.82 48.1617C111.82 48.1617 107.857 44.897 109.242 35.0781C109.242 35.0781 82.4838 36.8833 77.1226 30.2295C77.1226 30.2295 74.9827 27.2969 77.7144 24.2654C77.7144 24.2654 73.0821 25.7496 67.0303 21.6164C60.9794 17.4831 67.6213 8.87504 72.3736 8.96785C72.3736 8.96785 73.8893 -4.48788 86.9372 1.56558C99.9851 7.6182 102.919 6.06672 110.698 8.9091C118.476 11.7515 121.804 17.9897 122.607 22.7889C122.607 22.7889 138.14 38.7098 127.74 47.8483C127.74 47.8483 130.225 61.0205 120.843 62.5405C111.461 64.0596 114.584 60.6195 114.584 60.6195Z" fill="#1A1A1A"/>
<path d="M122.474 27.2275C124.765 26.2669 126.911 24.9633 128.819 23.3735C129.253 23.0124 129.692 22.3508 129.287 21.9591C128.98 21.6628 128.474 21.8433 128.095 22.0383C126.737 22.7382 125.379 23.4373 124.021 24.1373C125.734 22.6889 127.163 20.9066 128.203 18.92C128.587 18.1886 128.888 17.2102 128.322 16.609C127.895 16.1551 127.137 16.1696 126.592 16.471C126.047 16.7733 125.664 17.2953 125.3 17.8011C123.535 20.2501 121.771 22.6982 120.008 25.1472" fill="#1A1A1A"/>
<path d="M60.3576 55.152C61.5761 52.2559 60.602 42.5852 60.602 42.5852C60.602 42.5852 51.1927 35.4835 47.308 46.1812C43.4234 56.878 57.2121 62.6258 60.3576 55.152Z" fill="white"/>
<path d="M60.3576 55.152C61.5761 52.2559 60.602 42.5852 60.602 42.5852C60.602 42.5852 51.1926 35.4835 47.308 46.1812C43.4234 56.878 57.2121 62.6258 60.3576 55.152Z" stroke="#1C1C1B" stroke-opacity="0.75" stroke-width="0.84792" stroke-miterlimit="10" stroke-linecap="round" stroke-linejoin="round"/>
<path d="M56.45 54.6429C56.4202 54.6335 56.3912 54.6174 56.3657 54.5952C56.272 54.5126 56.2626 54.3679 56.3461 54.2742C56.3861 54.2291 60.3116 49.7177 57.413 46.1694C56.3946 44.9228 55.2238 44.2373 53.9303 44.1275C51.6976 43.9393 49.8243 45.5521 49.8055 45.5674C49.7102 45.65 49.5671 45.6406 49.4845 45.5469C49.4011 45.4524 49.4113 45.3077 49.5049 45.2251C49.5875 45.1535 51.5367 43.4709 53.9644 43.6727C55.3864 43.7928 56.6654 44.5345 57.7656 45.8816C60.9111 49.7305 56.7301 54.5279 56.6867 54.5765C56.6262 54.6455 56.5326 54.6684 56.45 54.6429Z" fill="#1A1A1A"/>
<path d="M52.3929 48.7366C52.3265 48.7162 52.2703 48.6659 52.2447 48.5953C52.203 48.4769 52.2643 48.3466 52.3835 48.304C52.4278 48.2879 56.9 46.7424 58.7776 50.2889C58.8372 50.4005 58.7946 50.5384 58.6831 50.5972C58.5724 50.6559 58.4344 50.6142 58.3757 50.5027C56.6812 47.3018 52.5777 48.7196 52.536 48.7341C52.4883 48.7502 52.438 48.7502 52.3929 48.7366Z" fill="#1A1A1A"/>
<path d="M113.188 58.7962C113.188 58.7962 105.604 93.6431 74.4774 83.4197C45.8654 74.0223 59.8388 42.3423 59.8388 42.3423C59.8388 42.3423 62.0971 43.3897 67.4429 54.3121C70.3185 60.1876 76.6249 57.1298 82.0857 59.1275C87.5465 61.1252 89.6566 62.9006 95.7679 64.9366C101.878 66.9734 104.495 55.9675 113.188 58.7962Z" fill="#1A1A1A"/>
<path d="M79.6287 65.2788C82.9556 66.2998 84.1895 63.6524 84.2031 63.6235C84.2542 63.5094 84.2031 63.3748 84.089 63.3237C83.9809 63.2718 83.8404 63.322 83.7876 63.437C83.739 63.5434 82.5546 66.035 79.1672 64.6266C79.048 64.5874 78.9169 64.6334 78.8683 64.7492C78.8206 64.8658 78.8751 64.9995 78.991 65.0481C79.2115 65.14 79.4244 65.2158 79.6287 65.2788Z" fill="white"/>
<path d="M105.719 69.0722C106.335 65.9906 112.565 58.5312 112.565 58.5312C112.565 58.5312 124.338 57.9301 121.554 68.9649C118.77 79.9998 104.131 77.0237 105.719 69.0722Z" fill="white"/>
<path d="M105.719 69.0722C106.335 65.9906 112.565 58.5312 112.565 58.5312C112.565 58.5312 124.338 57.9301 121.554 68.9649C118.77 79.9998 104.131 77.0237 105.719 69.0722Z" stroke="#1C1C1B" stroke-opacity="0.75" stroke-width="0.84792" stroke-miterlimit="10" stroke-linecap="round" stroke-linejoin="round"/>
<path d="M103.575 50.6007C103.575 50.6007 106.332 49.3404 102.491 45.5273C98.6489 41.7142 96.8769 41.7508 95.7648 42.7258C94.7506 43.6165 95.2947 45.5844 97.4951 47.6817C100.136 50.1996 102.059 51.3466 103.575 50.6007Z" fill="#1A1A1A"/>
<path d="M92.7002 55.6209C92.2454 57.1025 92.8628 58.6055 94.0779 58.9784C95.293 59.3514 96.647 58.453 97.1017 56.9714C97.5564 55.4906 96.9399 53.9868 95.7239 53.6138C94.5088 53.2409 93.1549 54.1392 92.7002 55.6209Z" fill="#000100" fill-opacity="0.75"/>
<path d="M68.2715 39.957C68.2715 39.957 66.6962 37.3667 72.0148 36.3653C77.3334 35.3639 78.781 36.3874 79.1539 37.8188C79.4945 39.1242 77.9405 40.4483 74.9423 40.9507C71.3429 41.5536 69.1077 41.4242 68.2715 39.957Z" fill="#1A1A1A"/>
<path d="M75.7624 50.2942C75.3077 51.7759 73.9538 52.6742 72.7386 52.3013C71.5235 51.9283 70.9062 50.4245 71.3609 48.9437C71.8156 47.4621 73.1695 46.5637 74.3846 46.9367C75.5997 47.3096 76.2171 48.8126 75.7624 50.2942Z" fill="#000100" fill-opacity="0.75"/>
<path d="M109.239 70.8416C109.268 70.851 109.302 70.8544 109.335 70.8501C109.459 70.8331 109.548 70.719 109.531 70.5947C109.524 70.5342 108.803 64.5982 113.194 63.2869C114.736 62.8262 116.091 62.9148 117.223 63.5492C119.177 64.6468 119.823 67.0319 119.83 67.0557C119.862 67.1775 119.986 67.2499 120.107 67.2184C120.229 67.1869 120.302 67.0617 120.27 66.9408C120.243 66.8352 119.572 64.3487 117.45 63.1541C116.206 62.4558 114.73 62.3519 113.064 62.8501C108.301 64.273 109.071 70.5895 109.079 70.6534C109.091 70.7445 109.156 70.816 109.239 70.8416Z" fill="#1A1A1A"/>
<path d="M115.91 68.2282C115.976 68.2487 116.051 68.2384 116.111 68.1942C116.213 68.1201 116.235 67.977 116.16 67.8757C116.133 67.8374 113.297 64.049 109.753 65.9325C109.642 65.9913 109.599 66.1292 109.659 66.2399C109.717 66.3515 109.855 66.3932 109.966 66.3344C113.164 64.6357 115.767 68.1107 115.793 68.1456C115.823 68.1865 115.865 68.2146 115.91 68.2282Z" fill="#1A1A1A"/>
<path d="M81.1087 57.817C81.1913 57.8425 81.285 57.8195 81.3463 57.7506C81.4297 57.656 81.4203 57.5121 81.3267 57.4287C81.3114 57.4151 79.8169 56.0731 79.5232 54.278C79.2924 52.8679 80.0451 51.0865 81.1019 50.5407C81.7371 50.2137 82.4115 50.3755 83.0553 51.0125C83.0757 51.0329 83.1072 51.0678 83.1489 51.1121C85.3518 53.4912 86.7756 53.1634 87.582 52.4686C89.0628 51.193 92.0312 38.45 92.365 37.0015C92.3931 36.878 92.3139 36.758 92.1938 36.7282C92.0712 36.7001 91.9494 36.7767 91.9205 36.8993C91.0238 40.7959 88.442 51.1266 87.2856 52.1237C86.3328 52.9437 85.0538 52.5009 83.4836 50.803C83.435 50.751 83.3993 50.7119 83.3754 50.6889C82.5895 49.9131 81.7073 49.7156 80.8933 50.1354C79.6611 50.7723 78.8104 52.7419 79.0736 54.3513C79.3937 56.3098 80.958 57.7114 81.0252 57.7701C81.0499 57.7923 81.0789 57.8076 81.1087 57.817Z" fill="#1A1A1A"/>
<path d="M72.3735 8.96811C72.3735 8.96811 81.7428 -0.0716493 86.9379 1.56583C100.656 5.88986 102.92 6.06782 110.698 8.90935" fill="#1A1A1A"/>
<path d="M42.5158 143.386C42.5158 143.386 43.4473 131.265 45.2611 116.709L42.5158 143.386Z" fill="white"/>
<path d="M42.5158 143.386C42.5158 143.386 43.4473 131.265 45.2611 116.709" stroke="#1C1C1B" stroke-opacity="0.75" stroke-width="1.13452" stroke-miterlimit="10" stroke-linecap="round" stroke-linejoin="round"/>
<path d="M23.946 95.4034L27.4662 116.347L23.946 95.4034Z" fill="white"/>
<path d="M23.946 95.4034L27.4662 116.347" stroke="#1C1C1B" stroke-opacity="0.75" stroke-width="1.13452" stroke-miterlimit="10" stroke-linecap="round" stroke-linejoin="round"/>
<path d="M22.1654 85.5639C10.3292 90.4448 1.44785 87.1426 1.44785 87.1426L1.34652 83.6369C1.34652 83.6369 10.8478 87.0038 21.6681 81.6912L22.1654 85.5639Z" fill="#1C1C1B" fill-opacity="0.75"/>
<path d="M22.1654 85.5639C10.3292 90.4448 1.44785 87.1426 1.44785 87.1426L1.34652 83.6369C1.34652 83.6369 10.8478 87.0038 21.6681 81.6912L22.1654 85.5639Z" stroke="#1C1C1B" stroke-opacity="0.75" stroke-width="1.13452" stroke-miterlimit="10" stroke-linecap="round" stroke-linejoin="round"/>
<path d="M1.34652 83.6371C1.34652 83.6371 8.73006 78.7366 21.6681 81.6905C21.6681 81.6905 13.7873 86.5391 1.34652 83.6371Z" fill="#1C1C1B" fill-opacity="0.75"/>
<path d="M1.34652 83.6371C1.34652 83.6371 8.73006 78.7366 21.6681 81.6905C21.6681 81.6905 13.7873 86.5391 1.34652 83.6371Z" stroke="#1C1C1B" stroke-opacity="0.75" stroke-width="1.13452" stroke-miterlimit="10" stroke-linecap="round" stroke-linejoin="round"/>
<path d="M113.443 120.944C113.443 120.944 108.872 135.465 99.4603 144.07C90.0485 152.675 80.9057 142.725 80.9057 142.725L113.443 120.944Z" fill="#1C1C1B" fill-opacity="0.75"/>
<path d="M113.443 120.944C113.443 120.944 108.872 135.465 99.4603 144.07C90.0485 152.675 80.9057 142.725 80.9057 142.725L113.443 120.944Z" stroke="#1C1C1B" stroke-opacity="0.75" stroke-width="0.84792" stroke-miterlimit="10" stroke-linecap="round" stroke-linejoin="round"/>
<path d="M62.5536 87.8693C62.5536 87.8693 63.2928 98.693 81.6456 99.3648C99.9976 100.037 103.494 89.953 103.561 90.1548" stroke="#1C1C1B" stroke-opacity="0.75" stroke-width="0.601175" stroke-miterlimit="10" stroke-linecap="round" stroke-linejoin="round"/>
</svg>
