<svg xmlns="http://www.w3.org/2000/svg" xmlns:xlink="http://www.w3.org/1999/xlink" width="313" height="300" fill="none" xmlns:v="https://vecta.io/nano"><g clip-path="url(#H)"><path opacity=".75" d="M97.161 121.931l.005-.032-.006.032-.023-.077-5.915-19.242-16.123-5.994 62.86-22.314.009-.003-.004.006-23.077 37.103-8.354-3.105-9.372 13.626z" fill="url(#A)"/><path d="M104.978 168.662c-9.456-35.287 11.486-71.559 46.774-81.015s71.559 11.487 81.015 46.774-11.486 71.56-46.774 81.015-71.56-11.486-81.015-46.774z" fill="#d5f1fc"/><path d="M153.222 236.589a8.49 8.49 0 0 1-5.907-.555l-.431-.223-.148-.085c-.811-.47-1.543-1.074-2.163-1.789 1.227.238 2.527.207 3.816-.139l79.399-21.307a8.5 8.5 0 0 0 4.828-3.423l.26-.406.087-.146c.968-1.68 1.368-3.688 1.015-5.71l-5.861-21.84 2.536-5.772 8.159 30.403c.352 2.022-.047 4.03-1.015 5.709l-.087.147-.261.406c-1.108 1.623-2.781 2.873-4.828 3.423l-79.395 21.306z" fill="#e9e8e7"/><path d="M228.117 180.966l-8.078-30.104c-.421-1.145-1.069-2.152-1.877-2.985l1.905.821.49.216.017.009.193.096c1.85.95 3.346 2.568 4.105 4.634l5.781 21.541-2.536 5.772zm-14.464-35.74l-4.619-1.99-4.983-18.597c1.241-.631 2.411-1.363 3.501-2.184l6.101 22.771z" fill="#bfdce9"/><g fill="#b2621d"><path d="M140.92 177.168l-15.453-6.646.119-.181.01-.016a8.49 8.49 0 0 1 4.839-3.439l79.396-21.307c2.047-.55 4.12-.305 5.892.545l.017.008.193.096-10.045 13.485-17.28 23.195-1.597 2.144-4.393 5.897-2.342 3.143-3.602-1.548-6.755-2.905-2.456-1.057-26.543-11.414z"/><path d="M200.23 139.442l15.345 6.612-.118.18-.011.017a8.42 8.42 0 0 1-4.802 3.416l-78.815 21.152a8.42 8.42 0 0 1-5.85-.545l-.017-.008-.192-.096 9.968-13.401 17.146-23.052 1.585-2.131 4.358-5.861 2.325-3.125 3.576 1.542 6.708 2.89 2.438 1.052 26.356 11.358z"/></g><path d="M186.919 96.518l-61.255 16.413a9.27 9.27 0 0 0-6.554 11.353l20.814 77.682 79.163-21.212-20.815-77.682a9.27 9.27 0 0 0-11.353-6.554z" fill="#fff"/><g fill="#d5f1fc"><path d="M197.597 138.475l-60.201 16.131c-.909.243-1.843-.296-2.087-1.204s.296-1.843 1.205-2.087l60.201-16.13c.909-.244 1.842.296 2.086 1.204s-.296 1.843-1.204 2.086zm2.039 7.609l-60.201 16.131c-.909.244-1.843-.295-2.087-1.204s.296-1.843 1.205-2.086l60.201-16.131c.909-.244 1.842.296 2.086 1.205a1.7 1.7 0 0 1-1.204 2.085zm2.038 7.61l-60.201 16.131c-.908.243-1.843-.296-2.086-1.204s.296-1.843 1.205-2.087l60.201-16.131c.908-.243 1.842.296 2.086 1.205s-.296 1.842-1.205 2.086zm2.039 7.608l-60.201 16.131c-.908.244-1.843-.295-2.086-1.205a1.7 1.7 0 0 1 1.205-2.085l60.201-16.131a1.703 1.703 0 0 1 .881 3.29zm2.039 7.61l-60.201 16.13c-.908.244-1.843-.295-2.086-1.204s.296-1.843 1.205-2.086l60.201-16.131c.908-.243 1.842.296 2.086 1.204s-.296 1.843-1.205 2.087z"/></g><path opacity=".75" d="M179.128 189.684l5.096-6.067 1.833-2.182.269-.319 18.776-22.35 10.621-12.643.017.009.193.096a8.5 8.5 0 0 1 4.105 4.634l13.94 51.944a8.5 8.5 0 0 1-1.015 5.71l-.087.147-.26.405-15.524-5.625-34.474-12.495-3.49-1.264z" fill="url(#B)"/><path opacity=".75" d="M137.951 227.775l-13.539-50.447c-.646-2.41-.193-4.857 1.055-6.806l.119-.181.01-.016 15.534 5.629 27.411 9.935.392.142 2.68.971 7.448 2.7-2.387 2.842-17.118 20.376-6.446 7.674-10.628 12.65-.43-.223-.15-.086a8.49 8.49 0 0 1-3.951-5.16z" fill="url(#C)"/><path d="M144.572 233.938a8.55 8.55 0 0 1-2.091-.694l.908-1.08c.322.648.722 1.242 1.183 1.774z" fill="#ccccc9"/><path d="M148.389 233.799c-1.289.345-2.589.376-3.816.139-.462-.532-.861-1.126-1.184-1.774l9.721-11.57 3.404-4.053c9.489 1.812 19.522 1.563 29.479-1.105 9.968-2.671 18.789-7.479 26.106-13.803l4.993 1.81 15.524 5.626a8.5 8.5 0 0 1-4.828 3.422l-79.396 21.307z" fill="#b7b6b5"/><path d="M185.993 215.436c-9.957 2.668-19.99 2.916-29.479 1.105l3.042-3.621 17.118-20.376 3.602 1.548 2.343-3.144 29.48 10.685c-7.317 6.323-16.138 11.132-26.106 13.803z" fill="#94acb7"/><path d="M180.276 194.092l-3.602-1.549.46-.548 4.815-1.29.669.243-2.342 3.144z" fill="#8b4d1c"/><path d="M181.948 190.706l-4.814 1.29 1.927-2.294-7.449-2.7-2.679-.971 1.35-2.342c1.357-2.354 3.541-3.935 5.973-4.587a9.8 9.8 0 0 1 7.46.982l2.341 1.351-1.833 2.182-5.095 6.067 2.819 1.022z" fill="#ccccc9"/><g fill="#c68a21"><path d="M232.616 209.068l-15.524-5.625-4.993-1.81-29.481-10.685-.67-.242-2.82-1.022 5.096-6.067 1.833-2.182 2.551 1.472 29.591 17.085 14.764 8.524-.087.147-.26.405zm-90.134 24.176l-.43-.223-.15-.086 8.512-14.769 17.049-29.584 1.471-2.551 2.679.971 7.448 2.7-1.926 2.294-.461.548-17.118 20.376-3.042 3.621-3.404 4.053-9.721 11.57-.907 1.08z"/></g><path opacity=".75" d="M142.051 233.021l9.195-14.314 5.328-8.295 13.345-20.773 1.693-2.637 1.219-1.896a7.23 7.23 0 0 1 9.39-2.52l2.003 1.031 2.787 1.435 30.743 15.826 15.122 7.785-.26.405a8.5 8.5 0 0 1-4.828 3.423l-79.396 21.307a8.49 8.49 0 0 1-5.911-.554l-.43-.223z" fill="url(#D)"/><path d="M186.057 181.436l7.273-8.951.259-.314.325-.087-7.588 9.032-.269.32z" fill="#fff"/><path d="M211.238 151.463l-.039-.146 4.072-4.654-4.033 4.8z" fill="#d4a14a"/><path d="M197.738 167.532l-.386.104 3.357-4.013 1.655-1.959.392-.105-5.018 5.973zm7.126-8.482a1.65 1.65 0 0 0-.103-.221l1.537-1.805.934-1.097.939-1.094 3.028-3.516.039.145-6.135 7.304-.239.284z" fill="#fff"/><g fill="#ebf9fe"><path d="M202.756 161.559l-.392.105 2.065-2.445.332-.39a1.65 1.65 0 0 1 .103.221l-2.108 2.509zm-8.841 10.525l-.326.087.658-.798.92-1.11 1.842-2.217.343-.41.386-.103-3.823 4.551z"/></g><path d="M186.057 181.436l.269-.32 7.588-9.032 3.823-4.551 5.019-5.974 2.108-2.509.238-.284 6.136-7.303 4.032-4.8.47-.531-7.272 8.952-.916 1.112-.92 1.109-1.842 2.218-3.7 4.422-3.722 4.404-1.868 2.195-.935 1.097-.938 1.094-7.57 8.701z" fill="#fad364"/><path d="M168.933 186.032l-.392-.143-11.115-4.028.326-.087.411.153 10.77 4.105z" fill="#fff"/><path d="M132.075 172.673l-5.816-2.108 5.778 1.963.038.145z" fill="#d4a14a"/><path d="M152.219 179.729l-.387.104-7.343-2.662.392-.105 2.463.885 4.875 1.778zm-10.831-3.681l-.258-.094-9.054-3.282-.039-.144 4.452 1.552 1.36.477 1.357.481 2.162.768a1.81 1.81 0 0 0 .02.242z" fill="#fff"/><g fill="#ebf9fe"><path d="M144.881 177.067l-.392.105-3.101-1.124a1.78 1.78 0 0 1-.02-.241l.553.196 2.96 1.064zm12.871 4.707l-.326.087-5.595-2.028.388-.103.539.196 2.703.998 1.352.499.939.351z"/></g><path d="M168.933 186.032l-10.902-3.741-1.36-.477-1.358-.481-2.715-.964-5.423-1.949-5.414-1.973-2.703-.997-1.352-.5-1.35-.503-10.77-4.106.673.224 5.816 2.108 9.055 3.282.258.093 3.101 1.124 7.343 2.661 5.594 2.028 11.116 4.028.391.143z" fill="#fad364"/><path d="M216.911 106.049a66.39 66.39 0 0 0-39.815-20.16c2.742-2.529 6.119-4.449 9.972-5.481 12.706-3.405 25.766 4.136 29.171 16.842.792 2.957.992 5.931.672 8.8z" fill="#e9e8e7"/><path d="M207.552 122.455l-4.446-16.592a9.27 9.27 0 0 0-6.951-6.653c-2.26-2.465-5.781-3.618-9.236-2.692l-17.407 4.664a23.9 23.9 0 0 1 7.584-15.294c15.237 1.914 29.331 9.108 39.815 20.161a23.9 23.9 0 0 1-9.359 16.406z" fill="#bfdce9"/><path d="M204.051 124.64l-5.779-21.567a9.22 9.22 0 0 0-2.116-3.863 9.27 9.27 0 0 1 6.95 6.654l4.446 16.592c-1.09.82-2.26 1.553-3.501 2.184z" fill="#aac4d0"/><path d="M199.397 126.42c-12.706 3.405-25.766-4.136-29.171-16.842-.755-2.817-.972-5.653-.714-8.396l17.407-4.664c3.455-.926 6.976.227 9.236 2.692a9.23 9.23 0 0 1 2.117 3.862l5.779 21.567c-1.457.741-3.012 1.342-4.654 1.781z" fill="#e9e8e7"/><path d="M171.744 106.948c-3.405-12.706 4.136-25.766 16.842-29.171s25.767 4.136 29.171 16.842-4.136 25.767-16.842 29.171-25.766-4.135-29.171-16.842z" fill="#0f835c"/><path d="M191.213 103.218c.647 2.417 1.912 3.47 3.578 3.024 2.032-.545 3.18-2.341 2.998-6.312-.153-3.934-1.522-5.452-3.995-4.789-2.781.745-3.508 4.62-2.581 8.078zm15.402 8.596c-1.457 1.644-3.967 3.374-8.272 4.528-8.298 2.223-15.897-1.859-18.293-10.797-2.501-9.335 1.971-17.87 11.639-20.46 7.495-2.008 15.027.728 17.265 9.077 1.745 6.514-.564 11.473-5.445 12.781-2.115.566-3.843.167-4.544-1.664-.762 2.046-1.95 3.384-4.378 4.035-2.99.801-5.788-.736-6.922-4.969-1.472-5.493.735-10.679 4.931-11.804 2.708-.725 4.234.379 4.908 1.509l-.023-2.426 3.336-.894.52 10.698c.118 2.342.85 2.871 2.128 2.528 2.598-.696 3.705-4.243 2.476-8.83-1.683-6.28-7.12-9.051-13.618-7.31-7.651 2.05-11.211 8.686-9.036 16.881 1.763 6.653 7.541 10.621 14.46 8.767 3.027-.811 5.502-2.024 7.468-3.962l1.4 2.312z" fill="#fff"/><path d="M148.292 137.638l-11.446 3.067c-2.544.681-5.161-.829-5.843-3.373l-3.067-11.446a4.77 4.77 0 0 1 3.374-5.843l11.446-3.067a4.77 4.77 0 0 1 5.843 3.373l3.067 11.446c.681 2.545-.829 5.161-3.374 5.843z" fill="#e25151" fill-opacity=".1"/><path d="M135.589 72.928l-.003.006-23.078 37.103-15.02-5.584-8.645-3.214-16.123-5.994 62.861-22.314.008-.003z" fill="url(#E)"/><path d="M122.327 82.014l-24.839 22.439-8.644-3.214 33.484-19.225z" fill="#fff"/><path d="M97.488 104.453l-2.696 16.048-.01.058-.023-.078-5.915-19.242 8.645 3.214z" fill="url(#F)"/><path d="M95.088 120.749l9.372-13.626-6.667-2.479-2.705 16.105z" fill="url(#G)"/><path d="M93.39 126.685c-.115.03-.239.032-.362-.002-.365-.103-.577-.482-.475-.846.321-1.143.708-2.276 1.151-3.368.143-.35.542-.519.893-.377s.52.542.377.893a30.55 30.55 0 0 0-1.1 3.223.69.69 0 0 1-.484.477zm-1.13 6.861a.69.69 0 0 1-.214.022c-.378-.02-.668-.343-.648-.722a32.48 32.48 0 0 1 .385-3.536c.062-.374.414-.627.788-.565s.627.414.565.788c-.184 1.118-.308 2.258-.369 3.387-.016.304-.228.551-.507.626zm18.295 1.448a.72.72 0 0 1-.208.023c-1.087-.048-2.202.031-3.314.235-.373.068-.73-.178-.799-.55a.69.69 0 0 1 .551-.799c1.213-.222 2.432-.309 3.622-.257.378.017.672.338.655.716-.013.306-.226.557-.507.632zm-9.879 2.854c-.277.074-.581-.032-.749-.284-.209-.315-.124-.74.192-.95a18.24 18.24 0 0 1 3.194-1.692c.35-.143.751.026.894.376s-.025.751-.376.894c-1.032.421-2.025.947-2.953 1.564a.68.68 0 0 1-.202.092zm-8.011 2.639l-.061.013c-.373.065-.728-.185-.793-.559-.201-1.159-.338-2.349-.407-3.536-.022-.378.267-.703.645-.725s.702.267.724.646a29.99 29.99 0 0 0 .389 3.381c.061.353-.158.689-.497.78zm24.461-3.446a.68.68 0 0 1-.555-.091c-.56-.368-1.148-.685-1.748-.939-.395-.168-.806-.317-1.221-.443-.362-.111-.566-.494-.456-.856s.494-.566.856-.456a13.68 13.68 0 0 1 1.356.492c.678.287 1.34.643 1.968 1.058.316.209.403.634.195.95a.68.68 0 0 1-.395.285zm-21.315 5.726c-.183.049-.385.023-.555-.089-.316-.209-.403-.634-.195-.95a19.21 19.21 0 0 1 1.695-2.207l.569-.607c.266-.27.7-.273.97-.007s.273.7.007.969l-.522.558c-.566.636-1.096 1.325-1.574 2.049-.096.145-.238.242-.395.284zm-2.776 6.357c-.11.029-.229.031-.347.002-.367-.095-.588-.469-.494-.836.274-1.067.621-2.108 1.033-3.097l-.601-1.782c-.109-.363.097-.745.46-.853s.745.097.854.459l.585 1.73a.69.69 0 0 1 .141.367l.457 1.083c.155.345.001.751-.345.907-.264.118-.563.056-.759-.134l-.497 1.662c-.064.248-.256.43-.487.492zm28.622-6.896c-.308.083-.643-.06-.791-.357a12.97 12.97 0 0 0-1.829-2.748c-.248-.286-.218-.719.068-.967s.719-.218.968.068a14.35 14.35 0 0 1 2.022 3.038c.168.339.029.75-.31.918-.042.021-.085.037-.128.048zm-23.272 10.781c-.245.065-.517-.008-.695-.212-.768-.881-1.485-1.851-2.134-2.883-.202-.321-.105-.744.216-.946s.744-.105.945.216c.611.972 1.286 1.884 2.007 2.712.249.285.219.718-.067.967a.68.68 0 0 1-.272.146zm-6.1 3.019c-.051.014-.103.022-.158.024-.379.01-.695-.287-.706-.666a26.35 26.35 0 0 1 .138-3.572c.04-.376.378-.649.755-.609s.649.379.608.755a25.03 25.03 0 0 0-.13 3.386c.01.324-.207.602-.507.682zm30.668-7.047c-.08.022-.164.029-.25.02-.377-.04-.65-.378-.609-.755.112-1.059.058-2.156-.16-3.26-.074-.372.167-.732.539-.806s.732.168.806.539c.246 1.24.305 2.475.178 3.673-.031.289-.238.518-.504.589zm-19.147 8.333c-.158.042-.331.028-.488-.052-1.056-.538-2.077-1.2-3.035-1.967-.295-.237-.343-.668-.107-.964a.69.69 0 0 1 .965-.107c.885.709 1.827 1.32 2.8 1.816.337.172.471.585.299.923-.092.18-.252.302-.434.351zM120 155.142a.69.69 0 0 1-.662-.176c-.268-.268-.27-.702-.002-.97.779-.784 1.411-1.671 1.878-2.64.165-.341.575-.483.916-.319s.484.574.319.916c-.533 1.105-1.253 2.118-2.141 3.01-.088.089-.195.149-.308.179zm-26.624 7.75c-.361.097-.735-.114-.837-.476l-.127-.461c-.269-1.002-.487-2.016-.649-3.013-.061-.374.193-.726.567-.787s.726.192.787.566c.155.952.364 1.921.621 2.879l.122.442c.104.365-.108.743-.472.847l-.01.003zm17.144-3.997c-.054.015-.112.023-.17.024-1.233.013-2.45-.119-3.62-.391-.368-.086-.597-.455-.511-.824s.455-.598.823-.512c1.063.248 2.171.368 3.293.356.378-.005.688.299.693.678.003.32-.213.59-.508.669zm3.699-.504l-.263.068a.69.69 0 0 1-.832-.5c-.091-.368.134-.738.501-.831a13.18 13.18 0 0 0 3.082-1.186c.333-.179.749-.055.929.278s.056.749-.277.929a14.5 14.5 0 0 1-3.14 1.242zm-18.28 10.969c-.306.082-.639-.059-.788-.353l-1.464-3.228c-.14-.352.031-.751.383-.891s.751.031.891.383l1.413 3.115c.171.338.037.751-.301.922-.043.022-.088.039-.133.052zm3.619 5.947c-.269.072-.567-.025-.737-.266l-1.943-2.947c-.197-.323-.095-.745.228-.943s.745-.095.943.228l1.892 2.869c.219.309.146.737-.163.956a.68.68 0 0 1-.219.103zm4.358 5.432a.69.69 0 0 1-.687-.203l-2.284-2.682c-.238-.295-.19-.727.105-.964s.727-.19.964.105l2.233 2.622c.254.28.232.714-.049.968-.084.075-.181.126-.282.154zm4.955 4.892c-.214.058-.453.01-.631-.147l-2.576-2.403c-.269-.266-.272-.7-.006-.97s.7-.272.97-.006l2.519 2.349a.69.69 0 0 1 .061.969c-.093.104-.211.175-.337.208zm5.472 4.308c-.189.05-.399.02-.571-.101l-2.826-2.1c-.299-.235-.349-.666-.115-.964s.665-.349.962-.114l2.766 2.055c.31.217.385.645.167.955-.095.137-.233.228-.383.269zm5.912 3.681c-.165.044-.347.027-.508-.062l-3.038-1.778c-.322-.2-.42-.623-.22-.945s.623-.42.944-.219l2.975 1.74a.69.69 0 0 1 .271.932.69.69 0 0 1-.424.332zm6.277 3.014c-.14.037-.294.031-.439-.029l-3.214-1.437c-.342-.163-.486-.573-.322-.915s.574-.485.915-.321l3.146 1.406c.35.145.516.546.371.896-.085.205-.257.346-.457.4zm6.572 2.307c-.117.031-.244.032-.368-.005l-3.354-1.073c-.357-.126-.545-.517-.42-.874s.517-.546.874-.42l3.282 1.05c.363.106.572.486.467.85-.069.239-.257.411-.481.472zm6.787 1.556a.68.68 0 0 1-.292.013l-3.454-.689c-.369-.085-.599-.453-.515-.822s.453-.599.822-.515l3.377.674c.374.064.625.417.561.791-.046.273-.248.481-.499.548z" fill="#f68714"/></g><defs><linearGradient id="A" x1="115.023" y1="117.145" x2="105.849" y2="82.907" xlink:href="#I"><stop stop-color="#b429f9"/><stop offset="0" stop-color="#f68714"/><stop offset="1" stop-color="#f0c419"/></linearGradient><linearGradient id="B" x1="211.505" y1="214.725" x2="194.637" y2="151.773" xlink:href="#I"><stop stop-color="#b429f9"/><stop offset="0" stop-color="#f68714"/><stop offset="1" stop-color="#f0c419"/></linearGradient><linearGradient id="C" x1="163.549" y1="227.599" x2="146.688" y2="164.673" xlink:href="#I"><stop stop-color="#b429f9"/><stop offset="0" stop-color="#f68714"/><stop offset="1" stop-color="#f0c419"/></linearGradient><linearGradient id="D" x1="188.085" y1="223.162" x2="177.063" y2="182.025" xlink:href="#I"><stop stop-color="#b429f9"/><stop offset="0" stop-color="#f68714"/><stop offset="1" stop-color="#f0c419"/></linearGradient><linearGradient id="E" x1="111.202" y1="110.387" x2="103.471" y2="81.535" xlink:href="#I"><stop stop-color="#b429f9"/><stop offset="0" stop-color="#f68714"/><stop offset="1" stop-color="#f0c419"/></linearGradient><linearGradient id="F" x1="97.702" y1="119.776" x2="92.474" y2="100.266" xlink:href="#I"><stop stop-color="#b429f9"/><stop offset="0" stop-color="#f68714"/><stop offset="1" stop-color="#f0c419"/></linearGradient><linearGradient id="G" x1="101.164" y1="119.121" x2="97.319" y2="104.771" xlink:href="#I"><stop stop-color="#b429f9"/><stop offset="0" stop-color="#f68714"/><stop offset="1" stop-color="#f0c419"/></linearGradient><clipPath id="H"><path fill="#fff" transform="matrix(.965926 -.258819 .258819 .965926 12.167 63.3975)" d="M0 0h244.949v244.949H0z"/></clipPath><linearGradient id="I" gradientUnits="userSpaceOnUse"/></defs></svg>