<svg width="16" height="16" viewBox="0 0 16 16" fill="none" xmlns="http://www.w3.org/2000/svg">
<path d="M9.136 2.85582C9.07397 2.79282 9.00002 2.74278 8.91846 2.70863C8.8369 2.67447 8.74937 2.65689 8.66095 2.65689C8.57253 2.65689 8.48499 2.67448 8.40343 2.70863C8.32188 2.74279 8.24793 2.79282 8.18589 2.85583C8.12386 2.91883 8.07498 2.99355 8.0421 3.07563C8.00922 3.15771 7.99299 3.24551 7.99437 3.33392C7.99574 3.42233 8.01469 3.50958 8.05011 3.5906C8.08552 3.67161 8.1367 3.74477 8.20067 3.80582L11.78 7.33315L2.66667 7.33315C2.48986 7.33315 2.32029 7.40339 2.19526 7.52842C2.07024 7.65344 2 7.82301 2 7.99982C2 8.17663 2.07024 8.3462 2.19526 8.47122C2.32029 8.59625 2.48986 8.66649 2.66667 8.66649H11.7767L8.2 12.1898C8.07721 12.3145 8.00838 12.4825 8.00838 12.6575C8.00838 12.8326 8.0772 13.0006 8.19999 13.1253C8.32278 13.25 8.48969 13.3214 8.66468 13.3241C8.83968 13.3269 9.00873 13.2607 9.13533 13.1398L13.752 8.59115C13.8306 8.51363 13.893 8.42125 13.9356 8.31939C13.9782 8.21754 14.0002 8.10823 14.0002 7.99782C14.0002 7.88741 13.9782 7.7781 13.9356 7.67625C13.893 7.57439 13.8306 7.48201 13.752 7.40449L9.13533 2.85582H9.136Z" fill="white"/>
</svg>
