<svg width="16" height="16" viewBox="0 0 16 16" fill="none" xmlns="http://www.w3.org/2000/svg">
<path d="M14.6668 8.00065C14.6668 4.31865 11.6828 1.33398 8.00016 1.33398C4.31883 1.33398 1.3335 4.31865 1.3335 8.00065C1.3335 11.6827 4.31883 14.6673 8.00016 14.6673C11.6828 14.6673 14.6668 11.6827 14.6668 8.00065ZM4.98016 8.18732C4.89548 8.10266 4.844 7.99042 4.83507 7.87102C4.82614 7.75161 4.86035 7.63296 4.9315 7.53665L4.98016 7.47998L7.64683 4.81332C7.73153 4.72846 7.84389 4.67687 7.96345 4.66794C8.08301 4.659 8.2018 4.69333 8.29816 4.76465L8.35483 4.81332L11.0215 7.48065C11.111 7.56987 11.1633 7.68965 11.1681 7.8159C11.1728 7.94216 11.1296 8.06553 11.0471 8.16121C10.9646 8.25689 10.8489 8.31779 10.7233 8.33167C10.5977 8.34554 10.4716 8.31135 10.3702 8.23598L10.3142 8.18798L8.50083 6.37332V10.834C8.50096 10.955 8.45719 11.072 8.37762 11.1632C8.29805 11.2544 8.1881 11.3137 8.06816 11.33L8.00016 11.3333C7.87934 11.3333 7.7626 11.2896 7.67154 11.2101C7.58048 11.1307 7.52126 11.021 7.50483 10.9013L7.50016 10.8333V6.37332L5.68683 8.18665C5.60217 8.27133 5.48993 8.32281 5.37053 8.33175C5.25112 8.34068 5.13248 8.30646 5.03616 8.23532L4.98016 8.18665V8.18732Z" fill="#0F835C"/>
</svg>
