<svg width="16" height="12" viewBox="0 0 16 12" fill="none" xmlns="http://www.w3.org/2000/svg">
<path d="M14.8232 2.4707V9.52929C14.8232 9.99731 14.6373 10.4462 14.3064 10.7771C13.9754 11.108 13.5266 11.2939 13.0586 11.2939H2.4707C2.00269 11.2939 1.55384 11.108 1.22291 10.7771C0.891974 10.4462 0.706056 9.99731 0.706056 9.52929V2.4707" stroke="#170F49" stroke-width="1.4" stroke-linecap="round" stroke-linejoin="round"/>
<path d="M14.8232 2.4707C14.8232 2.00269 14.6373 1.55385 14.3064 1.22291C13.9754 0.891974 13.5266 0.706056 13.0586 0.706056H2.4707C2.00269 0.706056 1.55384 0.891974 1.22291 1.22291C0.891974 1.55385 0.706056 2.00269 0.706056 2.4707L6.82938 6.29411C7.10984 6.46939 7.43392 6.56234 7.76465 6.56234C8.09538 6.56234 8.41945 6.46939 8.69991 6.29411L14.8232 2.4707Z" stroke="#170F49" stroke-width="1.4" stroke-linecap="round" stroke-linejoin="round"/>
</svg>
