<svg width="85" height="85" viewBox="0 0 85 85" fill="none" xmlns="http://www.w3.org/2000/svg">
<circle cx="42.4999" cy="42.5001" r="42.4999" transform="rotate(-90 42.4999 42.5001)" fill="#EFF4FB"/>
<path d="M42.4999 0.000228323C53.2255 0.000229815 63.5545 4.05558 71.4151 11.3528C79.2757 18.6501 84.0865 28.6496 84.8826 39.3456C85.6786 50.0417 82.4011 60.6432 75.7074 69.0237C69.0137 77.4042 59.3989 82.9439 48.7914 84.5317C38.184 86.1195 27.3685 83.6379 18.5142 77.5847C9.66002 71.5315 3.42192 62.3544 1.05119 51.894C-1.31953 41.4337 0.352452 30.4638 5.73178 21.1847C11.1111 11.9056 19.7999 5.00358 30.0554 1.86299L42.4999 42.5001L42.4999 0.000228323Z" fill="#F46C5E"/>
<path d="M42.4999 0.000228323C52.4652 0.000229709 62.1137 3.50206 69.7591 9.89377C77.4046 16.2855 82.561 25.1606 84.327 34.9682C86.0931 44.7757 84.3566 54.8921 79.4211 63.5493C74.4855 72.2065 66.6647 78.8541 57.3254 82.3303C47.986 85.8066 37.7221 85.8904 28.3272 82.5673C18.9323 79.2441 11.0039 72.7252 5.92757 64.1497C0.8512 55.5743 -1.05033 45.4877 0.555265 35.6526C2.16086 25.8175 7.17148 16.8593 14.7115 10.3435L42.4999 42.5001L42.4999 0.000228323Z" fill="#8C52FF"/>
</svg>
