<svg width="64" height="65" viewBox="0 0 64 65" fill="none" xmlns="http://www.w3.org/2000/svg">
<path d="M13.2713 21.4671C13.2014 21.5838 13.1424 21.7069 13.0953 21.8345C13.0012 22.07 12.9798 22.3255 13.0342 22.5618C13.1228 22.8401 13.3058 23.0659 13.5492 23.1972C13.6692 23.281 13.7892 23.3647 13.9036 23.4405C14.1321 23.6025 14.3588 23.7584 14.5799 23.9064C15.0298 24.2059 15.4606 24.4963 15.8704 24.7714C16.6961 25.3088 17.4422 25.7766 18.08 26.1557C19.3539 26.9077 20.1836 27.2894 20.2826 27.132C20.3816 26.9745 19.7376 26.3035 18.599 25.3378C18.0297 24.855 17.3363 24.2969 16.5606 23.6942C16.1649 23.3996 15.7523 23.0811 15.3186 22.7577C15.1094 22.598 14.8944 22.4372 14.6736 22.2754C14.8501 22.2465 15.0257 22.2079 15.2 22.1598C15.9228 22.0175 17.1022 21.6789 19.0332 21.2853C21.7799 20.713 24.5512 20.4554 27.299 20.5169C29.3004 20.5753 31.2724 20.8614 33.182 21.3703C34.2334 21.6536 35.2604 22.0122 36.2564 22.4438C37.2922 22.9076 38.2926 23.4465 39.2511 24.057C40.2188 24.6927 41.1356 25.4075 41.9941 26.1957C42.8616 26.9982 43.6588 27.8826 44.3773 28.8399C45.8055 30.7321 46.8821 32.9132 47.5559 35.2797C47.8696 36.4119 48.0993 37.5757 48.2431 38.7609C48.3685 39.8821 48.4142 41.0191 48.3797 42.1622C48.3396 44.1222 48.0603 46.09 47.5489 48.0158C47.1837 49.3255 46.7253 50.6112 46.1778 51.8611C45.9271 52.3042 45.7257 52.7741 45.5782 53.2602C45.9168 52.8806 46.2053 52.454 46.4342 51.9944C47.1114 50.765 47.673 49.4741 48.1098 48.1426C48.748 46.1613 49.1325 44.1178 49.2524 42.0707C49.33 40.8691 49.3215 39.6708 49.227 38.4862C49.1171 37.2255 48.9113 35.9849 48.6116 34.7767C47.9659 32.2421 46.8839 29.8939 45.4183 27.8466C44.6811 26.8142 43.8585 25.8578 42.9591 24.9874C42.0679 24.1314 41.111 23.3551 40.0967 22.6654C38.1536 21.3527 36.0179 20.3667 33.7565 19.7385C31.7615 19.1901 29.6977 18.8831 27.6017 18.8232C24.7384 18.7459 21.8463 19.0642 18.996 19.7703C17.6719 20.0868 16.3646 20.5146 15.0866 21.0496L14.9473 21.1142C16.1249 19.2142 17.1682 17.2302 18.0676 15.1806C18.8596 13.3799 19.2033 12.2102 19.0518 12.1429C18.7454 11.9961 16.6275 16.319 13.4291 21.2065L13.2713 21.4671Z" fill="#EF5DA8"/>
</svg>
