<svg width="27" height="29" viewBox="0 0 27 29" fill="none" xmlns="http://www.w3.org/2000/svg">
<path d="M13.1922 27.9432C11.653 25.5144 10.7736 23.9675 10.7736 23.9675C3.2288 18.8616 -0.326775 8.00699 0.557653 7.45252C2.03057 6.52898 5.12181 13.1341 5.12181 13.1341C5.12181 13.1341 1.05174 4.05683 2.82825 3.55764C4.92452 2.9683 7.97409 11.0515 7.97409 11.0515C7.97409 11.0515 4.29691 0.389003 5.98838 0.536124C7.15004 0.637323 9.39428 4.92935 10.6869 7.6107C11.2295 8.83614 11.6691 9.72397 11.6691 9.72397C11.6691 9.72397 11.2771 8.83529 10.6869 7.6107C9.44701 4.81114 7.6671 0.244433 9.35091 0.430673C11.7712 0.697702 15.8481 11.3372 15.8481 11.3372C15.8481 11.3372 17.1245 2.52609 19.3007 5.61308C21.4761 8.70008 21.0245 13.7439 21.0245 13.7439C21.0245 13.7439 23.0774 15.0322 26.5743 17.6073" fill="white"/>
<path d="M13.1922 27.9432C11.653 25.5144 10.7736 23.9675 10.7736 23.9675C3.2288 18.8616 -0.326775 8.00699 0.557653 7.45252C2.03057 6.52898 5.12181 13.1341 5.12181 13.1341C5.12181 13.1341 1.05174 4.05683 2.82825 3.55764C4.92452 2.9683 7.97409 11.0515 7.97409 11.0515C7.97409 11.0515 4.29691 0.389004 5.98838 0.536125C7.15005 0.637324 9.39428 4.92935 10.6869 7.6107M10.6869 7.6107C11.2295 8.83614 11.6691 9.72397 11.6691 9.72397C11.6691 9.72397 11.2771 8.83529 10.6869 7.6107ZM10.6869 7.6107C9.44701 4.81114 7.66709 0.244433 9.35091 0.430673C11.7712 0.697703 15.8481 11.3372 15.8481 11.3372C15.8481 11.3372 17.1245 2.52609 19.3007 5.61308C21.4761 8.70008 21.0245 13.7439 21.0245 13.7439C21.0245 13.7439 23.0774 15.0322 26.5743 17.6073" stroke="#1C1C1B" stroke-opacity="0.75" stroke-width="0.84792" stroke-miterlimit="10" stroke-linecap="round" stroke-linejoin="round"/>
</svg>
