<svg width="98" height="60" viewBox="0 0 98 60" fill="none" xmlns="http://www.w3.org/2000/svg">
<path d="M97.5728 29.564C97.5728 29.564 85.1075 46.5833 79.0566 50.8858C47.1385 73.5856 20.3448 42.4724 20.3448 42.4724C10.6646 32.746 0.427552 11.9263 0.427552 11.9263C13.3128 8.73916 17.4066 0.427533 17.4066 0.427533C21.4568 4.54015 52.523 28.8301 52.523 28.8301C52.523 28.8301 62.1408 18.1893 72.6148 11.5644" fill="white"/>
<path d="M97.5728 29.564C97.5728 29.564 85.1075 46.5833 79.0566 50.8858C47.1385 73.5856 20.3448 42.4724 20.3448 42.4724C10.6646 32.746 0.427552 11.9263 0.427552 11.9263C13.3128 8.73916 17.4066 0.427533 17.4066 0.427533C21.4568 4.54015 52.523 28.8301 52.523 28.8301C52.523 28.8301 62.1408 18.1893 72.6148 11.5644" stroke="#1C1C1B" stroke-opacity="0.75" stroke-width="0.84792" stroke-miterlimit="10" stroke-linecap="round" stroke-linejoin="round"/>
</svg>
