<svg width="29" height="29" viewBox="0 0 29 29" fill="none" xmlns="http://www.w3.org/2000/svg">
<g clip-path="url(#clip0_92_704)">
<path d="M15.1049 14.1164L11.401 19.4887C11.3585 19.5504 11.3329 19.6223 11.3269 19.6971C11.321 19.7719 11.3348 19.8469 11.367 19.9147L14.0968 25.6433C14.3425 26.1759 15.1146 26.1274 15.2909 25.5679L20.4582 9.16529C20.4941 9.05173 20.4976 8.93042 20.4683 8.81499C20.4391 8.69955 20.3783 8.59455 20.2927 8.51175C20.2071 8.42895 20.1001 8.37164 19.9838 8.34623C19.8674 8.32083 19.7463 8.32834 19.634 8.36792L3.41151 14.0756C2.85815 14.2703 2.83591 15.0442 3.37572 15.2716L9.19218 17.8096C9.26099 17.8397 9.33653 17.8512 9.41119 17.8429C9.48586 17.8345 9.557 17.8066 9.61745 17.762L14.8635 13.8817C14.896 13.8581 14.9358 13.8467 14.9759 13.8495C15.0161 13.8523 15.0539 13.8692 15.0828 13.8971C15.1117 13.9251 15.1298 13.9623 15.134 14.0023C15.1381 14.0423 15.128 14.0825 15.1055 14.1158L15.1049 14.1164Z" fill="#FFD460" fill-opacity="0.5"/>
</g>
<defs>
<clipPath id="clip0_92_704">
<rect width="20" height="20" fill="white" transform="translate(0 14.7403) scale(1.02545) rotate(-45.9489)"/>
</clipPath>
</defs>
</svg>
