<svg width="16" height="12" viewBox="0 0 16 12" fill="none" xmlns="http://www.w3.org/2000/svg">
<path d="M14.8238 2.47056V9.52944C14.8238 9.99747 14.6379 10.4463 14.307 10.7773C13.976 11.1082 13.5272 11.2942 13.0591 11.2942H2.47081C2.00277 11.2942 1.55391 11.1082 1.22296 10.7773C0.89201 10.4463 0.706085 9.99747 0.706085 9.52944V2.47056" stroke="#170F49" stroke-width="1.4" stroke-linecap="round" stroke-linejoin="round"/>
<path d="M14.8238 2.47056C14.8238 2.00253 14.6379 1.55366 14.307 1.22271C13.976 0.891764 13.5272 0.705839 13.0591 0.705839H2.47081C2.00277 0.705839 1.55391 0.891764 1.22296 1.22271C0.89201 1.55366 0.706085 2.00253 0.706085 2.47056L6.82966 6.29412C7.11013 6.46941 7.43422 6.56236 7.76497 6.56236C8.09571 6.56236 8.4198 6.46941 8.70027 6.29412L14.8238 2.47056Z" stroke="#170F49" stroke-width="1.4" stroke-linecap="round" stroke-linejoin="round"/>
</svg>
