<svg width="16" height="16" viewBox="0 0 16 16" fill="none" xmlns="http://www.w3.org/2000/svg">
<path d="M14.6668 8.00068C14.6668 4.31868 11.6828 1.33401 8.00016 1.33401C4.31883 1.33401 1.3335 4.31868 1.3335 8.00068C1.3335 11.6827 4.31883 14.6673 8.00016 14.6673C11.6828 14.6673 14.6668 11.6827 14.6668 8.00068ZM4.98016 8.18735C4.89548 8.10269 4.844 7.99045 4.83507 7.87105C4.82614 7.75164 4.86035 7.633 4.9315 7.53668L4.98016 7.48001L7.64683 4.81335C7.73153 4.72849 7.84389 4.6769 7.96345 4.66797C8.08301 4.65903 8.2018 4.69336 8.29816 4.76468L8.35483 4.81335L11.0215 7.48068C11.111 7.5699 11.1633 7.68968 11.1681 7.81593C11.1728 7.94219 11.1296 8.06556 11.0471 8.16124C10.9646 8.25693 10.8489 8.31782 10.7233 8.3317C10.5977 8.34557 10.4716 8.31138 10.3702 8.23601L10.3142 8.18801L8.50083 6.37335V10.834C8.50096 10.9551 8.45719 11.072 8.37762 11.1632C8.29805 11.2545 8.1881 11.3137 8.06816 11.33L8.00016 11.3333C7.87934 11.3333 7.7626 11.2896 7.67154 11.2102C7.58048 11.1308 7.52126 11.0211 7.50483 10.9013L7.50016 10.8333V6.37335L5.68683 8.18668C5.60217 8.27136 5.48993 8.32285 5.37053 8.33178C5.25112 8.34071 5.13248 8.30649 5.03616 8.23535L4.98016 8.18668V8.18735Z" fill="#0F835C"/>
</svg>
