<svg width="292" height="270" viewBox="0 0 292 270" fill="none" xmlns="http://www.w3.org/2000/svg">
<g clip-path="url(#clip0_8617_651)">
<path d="M75.4561 257.59L268.641 205.827L216.877 12.6414L23.6922 64.4052L75.4561 257.59Z" fill="white"/>
<path opacity="0.75" d="M93.0896 112.198L93.0939 112.171L93.0891 112.198L93.0701 112.135L88.2401 96.4234L75.076 91.5298L126.401 73.3105L126.409 73.308L126.406 73.3129L107.563 103.607L100.742 101.072L93.0896 112.198Z" fill="url(#paint0_linear_8617_651)"/>
<path d="M99.4724 150.354C91.7522 121.541 108.851 91.9254 137.663 84.2051C166.476 76.4848 196.091 93.5838 203.812 122.396C211.532 151.209 194.433 180.824 165.621 188.544C136.808 196.265 107.193 179.166 99.4724 150.354Z" fill="#D5F1FC"/>
<path d="M138.864 205.816C137.188 206.265 135.49 206.062 134.041 205.363C133.922 205.305 133.805 205.244 133.689 205.18C133.648 205.157 133.608 205.135 133.568 205.111C132.906 204.727 132.308 204.234 131.801 203.651C132.804 203.844 133.865 203.819 134.918 203.537C134.918 203.537 134.919 203.537 134.92 203.537L199.746 186.139C201.418 185.691 202.783 184.67 203.688 183.345C203.762 183.237 203.833 183.126 203.901 183.014C203.925 182.974 203.949 182.934 203.972 182.894C204.762 181.522 205.089 179.883 204.801 178.232L200.015 160.399C200.779 158.864 201.47 157.291 202.086 155.687L208.748 180.51C209.035 182.161 208.709 183.801 207.919 185.172C207.895 185.213 207.871 185.253 207.848 185.292C207.78 185.405 207.709 185.515 207.635 185.624C206.73 186.949 205.364 187.969 203.693 188.418L138.867 205.815C138.866 205.815 138.865 205.816 138.864 205.816Z" fill="#E9E8E7"/>
<path d="M200.015 160.399L193.419 135.82C193.076 134.885 192.547 134.062 191.887 133.383L193.442 134.053C193.577 134.108 193.711 134.166 193.842 134.229L193.856 134.236C193.91 134.261 193.962 134.288 194.014 134.315C195.524 135.091 196.746 136.412 197.365 138.099L202.086 155.687C201.47 157.291 200.779 158.864 200.015 160.399ZM188.205 131.218L184.434 129.593L180.365 114.409C181.378 113.894 182.334 113.296 183.224 112.626L188.205 131.218Z" fill="#BFDCE9"/>
<path d="M128.819 157.298L116.202 151.872C116.233 151.823 116.266 151.773 116.299 151.724L116.308 151.711C117.212 150.38 118.581 149.353 120.258 148.903L185.085 131.506C186.756 131.057 188.449 131.257 189.896 131.951L189.91 131.958C189.963 131.983 190.016 132.01 190.067 132.036L181.865 143.046L167.756 161.985L166.452 163.735L162.866 168.55L160.953 171.117L158.012 169.853L152.497 167.481L150.492 166.618L128.819 157.298Z" fill="#B2621D"/>
<path d="M177.246 126.495L189.775 131.894C189.743 131.944 189.711 131.993 189.678 132.041L189.669 132.055C188.772 133.378 187.413 134.398 185.748 134.845L121.397 152.114C119.738 152.56 118.057 152.36 116.62 151.67L116.606 151.663C116.554 151.638 116.502 151.612 116.449 151.585L124.588 140.643L138.588 121.821L139.882 120.081L143.441 115.296L145.338 112.744L148.259 114.003L153.735 116.363L155.726 117.221L177.246 126.495Z" fill="#B2621D"/>
<path d="M166.378 91.448L116.363 104.849C112.325 105.931 109.929 110.081 111.011 114.119L128.006 177.546L192.642 160.227L175.647 96.7997C174.565 92.7622 170.415 90.3661 166.378 91.448Z" fill="white"/>
<path d="M175.095 125.706L125.941 138.877C125.199 139.076 124.437 138.636 124.238 137.894C124.039 137.152 124.48 136.389 125.221 136.19L174.375 123.019C175.117 122.821 175.88 123.261 176.079 124.003C176.277 124.745 175.837 125.507 175.095 125.706Z" fill="#D5F1FC"/>
<path d="M176.76 131.919L127.606 145.089C126.864 145.288 126.102 144.848 125.903 144.106C125.704 143.364 126.145 142.601 126.886 142.403L176.04 129.232C176.782 129.033 177.545 129.473 177.744 130.216C177.942 130.957 177.502 131.72 176.76 131.919Z" fill="#D5F1FC"/>
<path d="M178.425 138.132L129.271 151.302C128.529 151.501 127.766 151.061 127.567 150.319C127.368 149.577 127.809 148.814 128.551 148.616L177.705 135.445C178.447 135.246 179.209 135.686 179.408 136.429C179.607 137.17 179.167 137.933 178.425 138.132Z" fill="#D5F1FC"/>
<path d="M180.089 144.344L130.935 157.515C130.194 157.714 129.431 157.274 129.232 156.532C129.033 155.79 129.474 155.027 130.215 154.829L179.37 141.658C180.111 141.459 180.874 141.899 181.073 142.641C181.271 143.383 180.831 144.146 180.089 144.344Z" fill="#D5F1FC"/>
<path d="M181.754 150.557L132.6 163.728C131.859 163.927 131.096 163.487 130.897 162.745C130.698 162.003 131.139 161.24 131.881 161.041L181.035 147.871C181.776 147.672 182.539 148.112 182.738 148.854C182.936 149.596 182.496 150.359 181.754 150.557Z" fill="#D5F1FC"/>
<path opacity="0.75" d="M160.016 167.517L164.177 162.564L165.673 160.783L165.893 160.522L181.224 142.273L189.895 131.951L189.909 131.958C189.963 131.983 190.015 132.01 190.067 132.036C191.577 132.812 192.799 134.134 193.419 135.82L204.801 178.232C205.088 179.883 204.762 181.523 203.972 182.894C203.948 182.934 203.925 182.974 203.901 183.014C203.833 183.126 203.762 183.237 203.688 183.345L191.013 178.752L162.865 168.55L160.016 167.517Z" fill="url(#paint1_linear_8617_651)"/>
<path opacity="0.75" d="M126.395 198.619L115.341 157.429C114.813 155.461 115.183 153.463 116.202 151.872C116.233 151.823 116.266 151.773 116.299 151.724L116.308 151.711L128.99 156.308L151.372 164.419L151.692 164.535L153.88 165.328L159.961 167.532L158.012 169.853L144.035 186.49L138.772 192.755L130.094 203.084C129.976 203.026 129.858 202.966 129.743 202.902C129.702 202.879 129.661 202.856 129.621 202.832C128.087 201.941 126.891 200.467 126.395 198.619Z" fill="url(#paint2_linear_8617_651)"/>
<path d="M131.801 203.651C131.207 203.536 130.633 203.344 130.094 203.084L130.835 202.202C131.098 202.731 131.424 203.216 131.801 203.651Z" fill="#CCCCC9"/>
<path d="M134.918 203.537C133.865 203.819 132.804 203.844 131.801 203.651C131.425 203.216 131.099 202.731 130.835 202.202L138.772 192.755L141.551 189.446C149.299 190.925 157.491 190.723 165.621 188.544C173.76 186.364 180.962 182.437 186.936 177.274L191.013 178.752L203.688 183.345C202.783 184.67 201.418 185.691 199.746 186.14L134.92 203.537C134.919 203.537 134.918 203.537 134.918 203.537Z" fill="#B7B6B5"/>
<path d="M165.621 188.544C157.491 190.723 149.299 190.925 141.551 189.446L144.035 186.49L158.012 169.853L160.953 171.117L162.866 168.55L186.936 177.274C180.962 182.437 173.76 186.363 165.621 188.544Z" fill="#94ACB7"/>
<path d="M160.953 171.117L158.012 169.853L158.388 169.405L162.319 168.352L162.866 168.55L160.953 171.117Z" fill="#8B4D1C"/>
<path d="M162.319 168.352L158.388 169.405L159.961 167.532L153.879 165.328L151.692 164.535L152.794 162.623C153.902 160.701 155.685 159.41 157.671 158.877C159.656 158.346 161.843 158.571 163.762 159.679L165.674 160.783L164.177 162.564L160.016 167.517L162.319 168.352Z" fill="#CCCCC9"/>
<path d="M203.688 183.345L191.013 178.752L186.936 177.274L162.865 168.55L162.318 168.352L160.016 167.517L164.177 162.564L165.673 160.783L167.756 161.985L191.917 175.935L203.972 182.894C203.948 182.934 203.925 182.974 203.901 183.014C203.833 183.126 203.762 183.237 203.688 183.345Z" fill="#C68A21"/>
<path d="M130.094 203.084C129.975 203.027 129.858 202.966 129.743 202.902C129.702 202.879 129.661 202.856 129.621 202.832L136.571 190.773L150.491 166.618L151.692 164.535L153.879 165.328L159.961 167.532L158.388 169.405L158.012 169.853L144.035 186.49L141.551 189.446L138.772 192.755L130.835 202.202L130.094 203.084Z" fill="#C68A21"/>
<path opacity="0.75" d="M129.743 202.902L137.25 191.215L141.601 184.442L152.497 167.481L153.88 165.328L154.874 163.779C156.518 161.221 159.838 160.33 162.541 161.722L164.177 162.564L166.452 163.735L191.554 176.657L203.901 183.014C203.833 183.126 203.762 183.237 203.689 183.345C202.783 184.67 201.418 185.691 199.746 186.14L134.92 203.537C133.243 203.987 131.544 203.784 130.094 203.084C129.976 203.026 129.858 202.966 129.743 202.902Z" fill="url(#paint3_linear_8617_651)"/>
<path d="M165.673 160.783C167.629 158.326 169.615 155.896 171.612 153.475L171.823 153.218L172.089 153.147L165.893 160.522L165.673 160.783Z" fill="white"/>
<path d="M186.233 136.31L186.202 136.191C187.303 134.919 188.41 133.651 189.526 132.391L186.233 136.31Z" fill="#D4A14A"/>
<path d="M175.21 149.431L174.895 149.516L177.636 146.24L178.988 144.64L179.308 144.554L175.21 149.431ZM181.029 142.505C181.005 142.442 180.977 142.382 180.945 142.325L182.199 140.851L182.963 139.955L183.729 139.062C184.551 138.103 185.375 137.146 186.202 136.191L186.234 136.31L181.224 142.273L181.029 142.505Z" fill="white"/>
<path d="M179.308 144.554L178.987 144.64L180.674 142.643L180.945 142.325C180.977 142.382 181.005 142.442 181.029 142.505L179.308 144.554Z" fill="#EBF9FE"/>
<path d="M172.089 153.147L171.823 153.218L172.36 152.567L173.112 151.661L174.615 149.85L174.895 149.516L175.21 149.431L172.089 153.147Z" fill="#EBF9FE"/>
<path d="M165.673 160.783L165.893 160.522L172.089 153.147L175.21 149.431L179.308 144.554L181.029 142.505L181.224 142.273L186.233 136.31L189.526 132.391C189.654 132.246 189.781 132.102 189.909 131.958C187.954 134.414 185.969 136.845 183.972 139.267L183.224 140.175L182.472 141.08L180.968 142.891L177.947 146.501L174.909 150.097L173.383 151.89L172.62 152.785L171.854 153.679C169.811 156.061 167.758 158.435 165.673 160.783Z" fill="#FAD364"/>
<path d="M151.692 164.535L151.372 164.419L142.296 161.13L142.562 161.059L142.898 161.184C145.837 162.279 148.771 163.388 151.692 164.535Z" fill="white"/>
<path d="M121.598 153.628L116.849 151.907C118.425 152.433 119.996 152.968 121.566 153.51L121.598 153.628Z" fill="#D4A14A"/>
<path d="M138.045 159.39L137.728 159.474L131.733 157.302L132.053 157.216L134.064 157.938L138.045 159.39ZM129.201 156.384L128.99 156.308L121.598 153.628L121.566 153.51C122.779 153.929 123.991 154.352 125.201 154.778L126.311 155.167L127.42 155.56L129.185 156.187C129.186 156.252 129.191 156.318 129.201 156.384Z" fill="white"/>
<path d="M132.053 157.216L131.733 157.302L129.201 156.384C129.191 156.318 129.185 156.252 129.184 156.187L129.636 156.347L132.053 157.216Z" fill="#EBF9FE"/>
<path d="M142.563 161.059L142.296 161.13L137.728 159.474L138.045 159.39L138.485 159.55L140.692 160.365L141.796 160.772L142.563 161.059Z" fill="#EBF9FE"/>
<path d="M151.692 164.535C148.714 163.546 145.749 162.521 142.79 161.481L141.68 161.092L140.571 160.699L138.354 159.912L133.926 158.321L129.505 156.709L127.298 155.895L126.195 155.488L125.093 155.076C122.153 153.981 119.219 152.871 116.298 151.724C116.482 151.785 116.665 151.846 116.848 151.907L121.597 153.628L128.99 156.307L129.201 156.384L131.733 157.301L137.728 159.474L142.296 161.13L151.372 164.419L151.692 164.535Z" fill="#FAD364"/>
<path d="M190.866 99.2303C182.305 90.2063 170.798 84.332 158.356 82.7694C160.595 80.7045 163.353 79.1369 166.499 78.2939C176.874 75.5141 187.537 81.671 190.317 92.0455C190.964 94.4593 191.127 96.8879 190.866 99.2303Z" fill="#E9E8E7"/>
<path d="M183.224 112.626L179.594 99.0785C178.838 96.258 176.585 94.2388 173.919 93.6462C172.073 91.6338 169.198 90.6924 166.378 91.4481L152.165 95.2564C152.617 90.4584 154.849 86.0044 158.357 82.7694C170.798 84.3321 182.305 90.2064 190.866 99.2303C190.272 104.547 187.494 109.413 183.224 112.626Z" fill="#BFDCE9"/>
<path d="M180.365 114.409L175.647 96.7998C175.321 95.5827 174.716 94.5149 173.919 93.6461C176.585 94.2387 178.838 96.258 179.594 99.0785L183.224 112.626C182.334 113.296 181.379 113.894 180.365 114.409Z" fill="#AAC4D0"/>
<path d="M176.566 115.864C166.191 118.644 155.527 112.487 152.747 102.112C152.131 99.8118 151.954 97.4963 152.165 95.2564L166.377 91.4481C169.198 90.6923 172.073 91.6338 173.919 93.6461C174.716 94.515 175.321 95.5828 175.647 96.7998L180.365 114.409C179.176 115.014 177.906 115.504 176.566 115.864Z" fill="#E9E8E7"/>
<path d="M153.987 99.9647C151.207 89.5901 157.364 78.9263 167.738 76.1464C178.113 73.3666 188.776 79.5234 191.556 89.8979C194.336 100.273 188.179 110.936 177.805 113.716C167.43 116.496 156.767 110.34 153.987 99.9647Z" fill="#0F835C"/>
<path d="M169.883 96.9186C170.411 98.892 171.444 99.752 172.805 99.3875C174.464 98.943 175.4 97.476 175.252 94.2339C175.127 91.0214 174.01 89.7823 171.99 90.3234C169.72 90.9318 169.126 94.0952 169.883 96.9186ZM182.459 103.937C181.269 105.28 179.22 106.692 175.704 107.634C168.929 109.449 162.724 106.117 160.769 98.8182C158.726 91.1966 162.378 84.2281 170.272 82.1129C176.391 80.4731 182.541 82.7071 184.368 89.5246C185.793 94.8435 183.908 98.8919 179.923 99.9597C178.196 100.422 176.785 100.097 176.212 98.6012C175.59 100.272 174.62 101.364 172.638 101.896C170.196 102.55 167.912 101.295 166.986 97.8387C165.784 93.3539 167.586 89.1194 171.012 88.2012C173.223 87.6089 174.469 88.5105 175.019 89.4331L175 87.452L177.725 86.722L178.149 95.4573C178.245 97.3691 178.843 97.8011 179.887 97.5214C182.008 96.953 182.912 94.0569 181.908 90.3115C180.534 85.1839 176.095 82.9214 170.789 84.343C164.543 86.0168 161.635 91.4349 163.412 98.1261C164.851 103.558 169.569 106.798 175.218 105.284C177.689 104.622 179.711 103.632 181.316 102.05L182.459 103.937Z" fill="white"/>
<path d="M134.838 125.022L125.493 127.526C123.415 128.083 121.279 126.85 120.722 124.772L118.218 115.427C117.661 113.348 118.895 111.212 120.972 110.656L130.318 108.152C132.396 107.595 134.532 108.828 135.089 110.906L137.593 120.251C138.149 122.329 136.916 124.465 134.838 125.022Z" fill="#E25151" fill-opacity="0.1"/>
<path d="M124.467 72.1869L124.464 72.1918L105.621 102.486L93.3568 97.9262L86.2982 95.3022L73.1341 90.4086L124.459 72.1893L124.467 72.1869Z" fill="url(#paint4_linear_8617_651)"/>
<path d="M113.638 79.6058L93.3566 97.9269L86.2984 95.3027L113.638 79.6058Z" fill="white"/>
<path d="M93.3571 97.9264L91.156 111.03L91.1474 111.077L91.1284 111.014L86.2985 95.3024L93.3571 97.9264Z" fill="url(#paint5_linear_8617_651)"/>
<path d="M91.3975 111.232L99.0502 100.106L93.6063 98.0824L91.3975 111.232Z" fill="url(#paint6_linear_8617_651)"/>
<path d="M90.0106 116.079C89.9169 116.104 89.8153 116.105 89.7151 116.077C89.4173 115.994 89.2438 115.684 89.3271 115.387C89.589 114.454 89.905 113.529 90.267 112.637C90.3834 112.351 90.7097 112.213 90.9961 112.329C91.283 112.445 91.4207 112.772 91.3043 113.058C90.9583 113.911 90.656 114.796 90.4057 115.689C90.3498 115.887 90.1955 116.029 90.0106 116.079ZM89.0877 121.681C89.0321 121.696 88.9733 121.702 88.9127 121.699C88.6038 121.682 88.3669 121.419 88.3834 121.11C88.435 120.147 88.5408 119.175 88.698 118.223C88.7483 117.917 89.0363 117.711 89.3415 117.761C89.6466 117.812 89.8532 118.099 89.8029 118.405C89.6524 119.317 89.5511 120.248 89.5017 121.17C89.4883 121.418 89.3154 121.62 89.0877 121.681ZM104.025 122.863C103.971 122.878 103.914 122.884 103.855 122.882C102.968 122.843 102.057 122.908 101.15 123.074C100.845 123.13 100.554 122.929 100.498 122.625C100.442 122.32 100.643 122.029 100.947 121.973C101.938 121.791 102.933 121.721 103.905 121.763C104.213 121.777 104.453 122.038 104.439 122.347C104.428 122.597 104.254 122.802 104.025 122.863ZM95.9588 125.193C95.7332 125.254 95.4845 125.168 95.3476 124.962C95.1766 124.705 95.2466 124.357 95.5041 124.186C96.3236 123.642 97.2006 123.177 98.1124 122.805C98.3983 122.688 98.7257 122.826 98.8422 123.112C98.9589 123.398 98.8217 123.725 98.5352 123.842C97.6924 124.185 96.8815 124.615 96.124 125.119C96.0717 125.153 96.0162 125.178 95.9588 125.193ZM89.4184 127.348C89.4022 127.352 89.3856 127.356 89.3685 127.359C89.0639 127.412 88.774 127.208 88.7212 126.903C88.5571 125.956 88.4454 124.984 88.3893 124.015C88.3714 123.707 88.6074 123.442 88.9159 123.424C89.2247 123.406 89.4894 123.642 89.5072 123.951C89.5609 124.878 89.6675 125.806 89.8246 126.712C89.8745 127 89.6951 127.274 89.4184 127.348ZM109.391 124.534C109.242 124.574 109.076 124.553 108.937 124.461C108.48 124.16 108 123.901 107.51 123.694C107.187 123.557 106.852 123.435 106.514 123.332C106.218 123.242 106.051 122.929 106.141 122.633C106.231 122.337 106.544 122.171 106.84 122.261C107.216 122.375 107.588 122.511 107.947 122.663C108.5 122.897 109.041 123.188 109.554 123.526C109.812 123.697 109.883 124.044 109.713 124.302C109.634 124.421 109.518 124.5 109.391 124.534ZM91.9869 129.21C91.8376 129.25 91.6726 129.229 91.5335 129.137C91.2754 128.967 91.2042 128.62 91.3745 128.361C91.7942 127.725 92.2598 127.119 92.7584 126.56C92.9081 126.392 93.0642 126.225 93.2229 126.064C93.4398 125.844 93.7942 125.841 94.0148 126.058C94.2349 126.275 94.2379 126.63 94.021 126.85C93.8749 126.998 93.7315 127.151 93.5943 127.305C93.1318 127.824 92.6992 128.387 92.3092 128.978C92.2306 129.097 92.1145 129.176 91.9869 129.21ZM89.72 134.4C89.6301 134.424 89.5329 134.426 89.4364 134.402C89.1368 134.325 88.9563 134.02 89.0332 133.72C89.257 132.848 89.5402 131.999 89.8763 131.191C89.6965 130.712 89.5324 130.226 89.3856 129.736C89.2968 129.44 89.4649 129.128 89.7611 129.039C90.0574 128.95 90.3694 129.118 90.4582 129.414C90.601 129.891 90.7606 130.362 90.936 130.827C91.0026 130.913 91.0428 131.017 91.0515 131.126C91.1695 131.425 91.2939 131.72 91.4244 132.011C91.5509 132.293 91.4249 132.624 91.1428 132.751C90.9275 132.847 90.6833 132.797 90.5235 132.642C90.3716 133.085 90.2359 133.538 90.1179 133.999C90.0658 134.202 89.9089 134.35 89.72 134.4ZM113.09 128.77C112.838 128.838 112.565 128.721 112.444 128.478C112.043 127.668 111.54 126.913 110.951 126.235C110.748 126.001 110.773 125.648 111.007 125.445C111.24 125.242 111.594 125.267 111.796 125.501C112.448 126.251 113.004 127.085 113.448 127.981C113.585 128.258 113.472 128.594 113.195 128.731C113.16 128.748 113.126 128.761 113.09 128.77ZM94.0882 137.572C93.8881 137.626 93.6659 137.566 93.5207 137.399C92.894 136.68 92.3078 135.888 91.7783 135.046C91.6138 134.784 91.6926 134.438 91.9543 134.273C92.2161 134.109 92.5618 134.188 92.7263 134.449C93.2251 135.243 93.7764 135.988 94.365 136.664C94.568 136.897 94.5437 137.251 94.3107 137.454C94.2442 137.511 94.168 137.551 94.0882 137.572ZM89.1078 140.038C89.0665 140.049 89.0233 140.055 88.9788 140.057C88.6696 140.066 88.4118 139.823 88.4028 139.514C88.3743 138.537 88.4121 137.556 88.5151 136.597C88.5481 136.29 88.8241 136.067 89.1316 136.1C89.439 136.133 89.6615 136.409 89.6284 136.716C89.5309 137.625 89.4951 138.555 89.5221 139.481C89.5298 139.745 89.3527 139.972 89.1078 140.038ZM114.148 134.284C114.083 134.301 114.014 134.307 113.944 134.3C113.637 134.267 113.414 133.992 113.447 133.684C113.538 132.819 113.495 131.923 113.316 131.022C113.256 130.718 113.453 130.424 113.756 130.364C114.06 130.304 114.354 130.501 114.414 130.804C114.615 131.816 114.664 132.825 114.56 133.802C114.535 134.039 114.365 134.226 114.148 134.284ZM98.515 141.087C98.3861 141.122 98.2443 141.111 98.116 141.045C97.2544 140.606 96.4207 140.066 95.6384 139.439C95.397 139.246 95.3581 138.894 95.5512 138.652C95.7444 138.411 96.0968 138.372 96.3385 138.565C97.0615 139.144 97.8308 139.643 98.6246 140.048C98.9004 140.188 99.0099 140.525 98.8695 140.801C98.7944 140.948 98.6633 141.048 98.515 141.087ZM111.738 139.314C111.552 139.364 111.344 139.316 111.197 139.17C110.978 138.952 110.977 138.598 111.196 138.379C111.832 137.739 112.348 137.014 112.729 136.223C112.864 135.945 113.199 135.828 113.477 135.962C113.756 136.097 113.872 136.432 113.738 136.71C113.302 137.613 112.714 138.44 111.989 139.168C111.917 139.241 111.83 139.289 111.738 139.314ZM89.9994 145.642C89.7045 145.721 89.3997 145.549 89.316 145.254C89.2804 145.129 89.2459 145.003 89.2121 144.877C88.9927 144.059 88.8143 143.231 88.6819 142.417C88.6322 142.111 88.8397 141.824 89.1446 141.774C89.4498 141.724 89.7374 141.931 89.7871 142.237C89.9135 143.014 90.084 143.805 90.2937 144.587C90.3261 144.708 90.3592 144.828 90.3932 144.948C90.4777 145.246 90.3049 145.555 90.0076 145.64L89.9994 145.642ZM103.998 142.379C103.953 142.391 103.906 142.398 103.858 142.398C102.852 142.409 101.859 142.301 100.903 142.079C100.603 142.008 100.415 141.707 100.486 141.406C100.556 141.105 100.857 140.918 101.158 140.988C102.026 141.191 102.93 141.289 103.846 141.279C104.155 141.275 104.409 141.523 104.412 141.832C104.415 142.093 104.239 142.314 103.998 142.379ZM107.018 141.967C106.946 141.986 106.875 142.004 106.803 142.022C106.502 142.097 106.199 141.914 106.124 141.614C106.049 141.314 106.233 141.012 106.532 140.936C107.424 140.714 108.274 140.387 109.049 139.968C109.321 139.821 109.661 139.922 109.808 140.194C109.955 140.466 109.854 140.806 109.582 140.953C108.787 141.383 107.924 141.724 107.018 141.967ZM92.0926 150.923C91.8423 150.99 91.5709 150.875 91.4489 150.635C91.0039 149.758 90.6018 148.872 90.2537 147.999C90.1391 147.712 90.279 147.386 90.5662 147.271C90.8537 147.157 91.1792 147.297 91.2938 147.584C91.6294 148.426 92.0176 149.282 92.4473 150.128C92.5873 150.404 92.4774 150.741 92.2016 150.881C92.1661 150.899 92.1296 150.913 92.0926 150.923ZM95.0472 155.779C94.8273 155.838 94.5845 155.758 94.4452 155.561C93.8794 154.763 93.3456 153.953 92.8585 153.156C92.6974 152.892 92.7806 152.547 93.0445 152.386C93.3086 152.225 93.653 152.308 93.8142 152.572C94.2881 153.348 94.8078 154.136 95.3591 154.914C95.5378 155.167 95.4781 155.516 95.2258 155.695C95.17 155.734 95.1095 155.762 95.0472 155.779ZM98.6054 160.214C98.4087 160.266 98.1903 160.21 98.0445 160.048C97.4027 159.338 96.775 158.601 96.1792 157.858C95.9856 157.617 96.0242 157.265 96.2654 157.071C96.5065 156.878 96.8589 156.916 97.0524 157.158C97.6348 157.883 98.2481 158.603 98.8755 159.298C99.0827 159.527 99.0648 159.881 98.8353 160.088C98.7672 160.15 98.6882 160.192 98.6054 160.214ZM102.651 164.209C102.476 164.256 102.282 164.217 102.136 164.088C101.418 163.455 100.711 162.795 100.033 162.126C99.8127 161.909 99.8104 161.555 100.028 161.334C100.245 161.115 100.599 161.112 100.819 161.329C101.482 161.983 102.174 162.629 102.876 163.248C103.108 163.452 103.13 163.806 102.926 164.038C102.85 164.124 102.754 164.181 102.651 164.209ZM107.119 167.726C106.965 167.767 106.793 167.743 106.652 167.643C105.87 167.095 105.094 166.518 104.345 165.928C104.102 165.737 104.06 165.385 104.251 165.142C104.442 164.899 104.795 164.857 105.037 165.048C105.77 165.625 106.529 166.189 107.296 166.726C107.549 166.904 107.61 167.253 107.432 167.506C107.354 167.618 107.242 167.693 107.119 167.726ZM111.946 170.731C111.811 170.767 111.663 170.753 111.531 170.681C110.695 170.222 109.86 169.733 109.051 169.229C108.788 169.065 108.708 168.72 108.871 168.458C109.035 168.195 109.38 168.115 109.642 168.278C110.435 168.772 111.252 169.25 112.071 169.699C112.342 169.848 112.441 170.189 112.292 170.46C112.216 170.599 112.089 170.693 111.946 170.731ZM117.072 173.192C116.957 173.223 116.832 173.218 116.713 173.169C115.833 172.804 114.95 172.409 114.088 171.995C113.81 171.862 113.692 171.527 113.826 171.248C113.96 170.97 114.294 170.852 114.573 170.986C115.416 171.391 116.28 171.777 117.142 172.134C117.428 172.252 117.563 172.58 117.445 172.865C117.375 173.033 117.234 173.148 117.072 173.192ZM122.437 175.076C122.342 175.101 122.238 175.102 122.137 175.072C121.222 174.807 120.3 174.512 119.398 174.196C119.107 174.093 118.953 173.773 119.056 173.482C119.158 173.19 119.477 173.037 119.769 173.139C120.652 173.449 121.553 173.737 122.449 173.997C122.746 174.083 122.916 174.393 122.83 174.69C122.774 174.885 122.62 175.027 122.437 175.076ZM127.979 176.346C127.904 176.367 127.823 176.371 127.741 176.357C126.803 176.198 125.854 176.009 124.921 175.794C124.619 175.725 124.431 175.425 124.5 175.123C124.569 174.822 124.87 174.634 125.171 174.703C126.083 174.912 127.011 175.097 127.929 175.253C128.233 175.305 128.439 175.594 128.387 175.899C128.349 176.122 128.184 176.292 127.979 176.346Z" fill="#F68714"/>
</g>
<defs>
<linearGradient id="paint0_linear_8617_651" x1="107.674" y1="108.29" x2="100.184" y2="80.3349" gradientUnits="userSpaceOnUse">
<stop stop-color="#B429F9"/>
<stop offset="0.0001" stop-color="#F68714"/>
<stop offset="1" stop-color="#F0C419"/>
</linearGradient>
<linearGradient id="paint1_linear_8617_651" x1="186.451" y1="187.964" x2="172.679" y2="136.564" gradientUnits="userSpaceOnUse">
<stop stop-color="#B429F9"/>
<stop offset="0.0001" stop-color="#F68714"/>
<stop offset="1" stop-color="#F0C419"/>
</linearGradient>
<linearGradient id="paint2_linear_8617_651" x1="147.296" y1="198.475" x2="133.529" y2="147.097" gradientUnits="userSpaceOnUse">
<stop stop-color="#B429F9"/>
<stop offset="0.0001" stop-color="#F68714"/>
<stop offset="1" stop-color="#F0C419"/>
</linearGradient>
<linearGradient id="paint3_linear_8617_651" x1="167.33" y1="194.852" x2="158.33" y2="161.264" gradientUnits="userSpaceOnUse">
<stop stop-color="#B429F9"/>
<stop offset="0.0001" stop-color="#F68714"/>
<stop offset="1" stop-color="#F0C419"/>
</linearGradient>
<linearGradient id="paint4_linear_8617_651" x1="104.554" y1="102.772" x2="98.2419" y2="79.2138" gradientUnits="userSpaceOnUse">
<stop stop-color="#B429F9"/>
<stop offset="0.0001" stop-color="#F68714"/>
<stop offset="1" stop-color="#F0C419"/>
</linearGradient>
<linearGradient id="paint5_linear_8617_651" x1="93.5318" y1="110.438" x2="89.2634" y2="94.5079" gradientUnits="userSpaceOnUse">
<stop stop-color="#B429F9"/>
<stop offset="0.0001" stop-color="#F68714"/>
<stop offset="1" stop-color="#F0C419"/>
</linearGradient>
<linearGradient id="paint6_linear_8617_651" x1="96.3582" y1="109.903" x2="93.2187" y2="98.1863" gradientUnits="userSpaceOnUse">
<stop stop-color="#B429F9"/>
<stop offset="0.0001" stop-color="#F68714"/>
<stop offset="1" stop-color="#F0C419"/>
</linearGradient>
<clipPath id="clip0_8617_651">
<rect width="200" height="200" fill="white" transform="translate(23.6924 64.4053) rotate(-15)"/>
</clipPath>
</defs>
</svg>
