<svg width="29" height="29" viewBox="0 0 29 29" fill="none" xmlns="http://www.w3.org/2000/svg">
<g clip-path="url(#clip0_8617_256)">
<path d="M15.1053 14.1165L11.4015 19.4887C11.3589 19.5505 11.3334 19.6224 11.3274 19.6972C11.3214 19.772 11.3352 19.847 11.3675 19.9148L14.0972 25.6433C14.343 26.1759 15.1151 26.1275 15.2914 25.568L20.4587 9.16538C20.4945 9.05182 20.498 8.93052 20.4688 8.81509C20.4395 8.69965 20.3787 8.59465 20.2931 8.51185C20.2075 8.42905 20.1006 8.37173 19.9842 8.34633C19.8679 8.32092 19.7468 8.32844 19.6345 8.36802L3.412 14.0757C2.85864 14.2704 2.8364 15.0443 3.37621 15.2717L9.19265 17.8096C9.26146 17.8398 9.337 17.8513 9.41166 17.8429C9.48633 17.8346 9.55747 17.8067 9.61792 17.7621L14.8639 13.8818C14.8965 13.8582 14.9363 13.8467 14.9764 13.8496C15.0165 13.8524 15.0543 13.8693 15.0832 13.8972C15.1121 13.9252 15.1303 13.9624 15.1344 14.0024C15.1386 14.0424 15.1285 14.0826 15.1059 14.1159L15.1053 14.1165Z" fill="#FFD460" fill-opacity="0.5"/>
</g>
<defs>
<clipPath id="clip0_8617_256">
<rect width="20" height="20" fill="white" transform="translate(0 14.7402) scale(1.02545) rotate(-45.9489)"/>
</clipPath>
</defs>
</svg>
