<svg width="17" height="17" viewBox="0 0 17 17" fill="none" xmlns="http://www.w3.org/2000/svg">
<path d="M9.50587 3.16288C9.43993 3.09993 9.36212 3.05073 9.27698 3.01815C9.19185 2.98556 9.10108 2.97023 9.00996 2.97306C8.91884 2.97589 8.8292 2.99682 8.74624 3.03462C8.66329 3.07242 8.58869 3.12635 8.52678 3.19326C8.46486 3.26018 8.41688 3.33874 8.38562 3.42437C8.35436 3.51001 8.34045 3.601 8.34469 3.69206C8.34893 3.78313 8.37125 3.87243 8.41034 3.95479C8.44943 4.03715 8.50451 4.1109 8.57238 4.17177L12.3737 7.69226L2.98233 7.98367C2.80013 7.98932 2.62763 8.06713 2.50279 8.19996C2.37795 8.3328 2.31099 8.50979 2.31664 8.69199C2.3223 8.8742 2.4001 9.0467 2.53294 9.17154C2.66577 9.29638 2.84276 9.36334 3.02497 9.35768L12.4129 9.06638L8.83978 12.8116C8.71723 12.944 8.65167 13.1193 8.65727 13.2997C8.66286 13.4801 8.73916 13.651 8.86968 13.7756C9.0002 13.9002 9.17449 13.9684 9.35491 13.9656C9.53533 13.9628 9.70742 13.8892 9.83402 13.7606L14.4461 8.92559C14.5246 8.84318 14.586 8.74599 14.6266 8.63966C14.6673 8.53334 14.6864 8.41999 14.6829 8.30621C14.6793 8.19244 14.6532 8.0805 14.6061 7.97689C14.5589 7.87329 14.4916 7.78009 14.4081 7.70272L9.50518 3.1629L9.50587 3.16288Z" fill="white"/>
</svg>
