<svg width="16" height="16" viewBox="0 0 16 16" fill="none" xmlns="http://www.w3.org/2000/svg">
<path d="M13.1442 9.136C13.2072 9.07397 13.2572 9.00002 13.2914 8.91846C13.3255 8.8369 13.3431 8.74937 13.3431 8.66095C13.3431 8.57253 13.3255 8.48499 13.2914 8.40343C13.2572 8.32188 13.2072 8.24793 13.1442 8.18589C13.0812 8.12386 13.0064 8.07498 12.9244 8.0421C12.8423 8.00922 12.7545 7.99299 12.6661 7.99437C12.5777 7.99574 12.4904 8.01469 12.4094 8.05011C12.3284 8.08552 12.2552 8.1367 12.1942 8.20067L8.66685 11.78V2.66667C8.66685 2.48986 8.59661 2.32029 8.47158 2.19526C8.34656 2.07024 8.17699 2 8.00018 2C7.82337 2 7.6538 2.07024 7.52878 2.19526C7.40375 2.32029 7.33351 2.48986 7.33351 2.66667V11.7767L3.81018 8.2C3.68547 8.07721 3.51747 8.00838 3.34245 8.00838C3.16744 8.00838 2.99944 8.0772 2.87472 8.19999C2.75001 8.32278 2.67858 8.48969 2.67586 8.66468C2.67314 8.83968 2.73934 9.00873 2.86018 9.13533L7.40885 13.752C7.48637 13.8306 7.57875 13.893 7.68061 13.9356C7.78246 13.9782 7.89177 14.0002 8.00218 14.0002C8.11259 14.0002 8.2219 13.9782 8.32375 13.9356C8.42561 13.893 8.51799 13.8306 8.59551 13.752L13.1442 9.13533V9.136Z" fill="white"/>
</svg>
