<svg width="14" height="14" viewBox="0 0 14 14" fill="none" xmlns="http://www.w3.org/2000/svg">
<path fill-rule="evenodd" clip-rule="evenodd" d="M7 14C10.866 14 14 10.866 14 7C14 3.134 10.866 0 7 0C3.134 0 0 3.134 0 7C0 10.866 3.134 14 7 14ZM10.0296 5.362H8.834C8.8662 5.1744 8.9824 5.0694 9.2176 4.9504L9.4374 4.8384C9.8308 4.6368 10.0408 4.4086 10.0408 4.0362C10.0408 3.8024 9.9498 3.6176 9.7692 3.4846C9.5886 3.3516 9.3758 3.2858 9.1266 3.2858C8.93384 3.28353 8.74456 3.33754 8.582 3.4412C8.4182 3.542 8.2964 3.6722 8.2208 3.8346L8.5666 4.1818C8.701 3.9102 8.8956 3.7772 9.1518 3.7772C9.3688 3.7772 9.5018 3.8892 9.5018 4.0446C9.5018 4.1748 9.4374 4.2826 9.1882 4.4086L9.0468 4.4772C8.7402 4.6326 8.5274 4.8104 8.4042 5.012C8.281 5.2136 8.2208 5.46699 8.2208 5.77359V5.85759H10.0296V5.362ZM9.87 6.42879H7.8904L6.9006 8.14239H8.8802L9.87 9.8574L10.8598 8.14239L9.87 6.42879ZM4.7852 7C4.7852 8.26 5.8114 9.2862 7.0714 9.2862C7.61837 9.28611 8.14707 9.08932 8.561 8.7318L9.4262 10.2326C8.74301 10.7326 7.91801 11.0014 7.0714 10.9998C4.8622 10.9998 3.0716 9.2092 3.0716 7C3.0716 4.7908 4.8622 3.0002 7.0714 3.0002C7.33416 3.00016 7.59629 3.02595 7.854 3.0772L7.0714 4.7138C5.8114 4.7138 4.7852 5.74 4.7852 7Z" fill="#FF492C"/>
</svg>
