<svg width="98" height="60" viewBox="0 0 98 60" fill="none" xmlns="http://www.w3.org/2000/svg">
<path d="M97.5723 29.564C97.5723 29.564 85.107 46.5832 79.0562 50.8857C47.1382 73.5854 20.3447 42.4723 20.3447 42.4723C10.6646 32.746 0.42755 11.9264 0.42755 11.9264C13.3128 8.73927 17.4066 0.427684 17.4066 0.427684C21.4567 4.54028 52.5227 28.8301 52.5227 28.8301C52.5227 28.8301 62.1405 18.1894 72.6144 11.5645" fill="white"/>
<path d="M97.5723 29.564C97.5723 29.564 85.107 46.5832 79.0562 50.8857C47.1382 73.5854 20.3447 42.4723 20.3447 42.4723C10.6646 32.746 0.42755 11.9264 0.42755 11.9264C13.3128 8.73927 17.4066 0.427684 17.4066 0.427684C21.4567 4.54028 52.5227 28.8301 52.5227 28.8301C52.5227 28.8301 62.1405 18.1894 72.6144 11.5645" stroke="#1C1C1B" stroke-opacity="0.75" stroke-width="0.84792" stroke-miterlimit="10" stroke-linecap="round" stroke-linejoin="round"/>
</svg>
