<svg width="64" height="65" viewBox="0 0 64 65" fill="none" xmlns="http://www.w3.org/2000/svg">
<path d="M13.2713 21.4671C13.2013 21.5838 13.1423 21.707 13.0952 21.8346C13.0012 22.0701 12.9797 22.3256 13.0341 22.5618C13.1228 22.8402 13.3057 23.066 13.5492 23.1973C13.6692 23.281 13.7892 23.3648 13.9036 23.4406C14.1321 23.6026 14.3588 23.7585 14.5799 23.9064C15.0298 24.206 15.4605 24.4964 15.8703 24.7715C16.6961 25.3089 17.4421 25.7766 18.08 26.1557C19.3539 26.9078 20.1836 27.2895 20.2825 27.132C20.3815 26.9746 19.7375 26.3036 18.5989 25.3379C18.0296 24.855 17.3362 24.297 16.5606 23.6943C16.1649 23.3996 15.7523 23.0812 15.3185 22.7578C15.1093 22.5981 14.8944 22.4373 14.6736 22.2755C14.85 22.2466 15.0257 22.208 15.1999 22.1599C15.9227 22.0176 17.1021 21.679 19.0332 21.2854C21.7799 20.7131 24.5512 20.4555 27.299 20.517C29.3003 20.5754 31.2723 20.8615 33.1819 21.3704C34.2333 21.6537 35.2603 22.0123 36.2563 22.4438C37.2921 22.9077 38.2925 23.4466 39.251 24.057C40.2187 24.6927 41.1355 25.4076 41.994 26.1958C42.8615 26.9983 43.6587 27.8827 44.3772 28.8399C45.8054 30.7322 46.8819 32.9133 47.5558 35.2797C47.8694 36.4119 48.0992 37.5757 48.2429 38.7609C48.3684 39.8822 48.414 41.0191 48.3796 42.1622C48.3395 44.1222 48.0602 46.09 47.5488 48.0158C47.1836 49.3255 46.7252 50.6112 46.1777 51.8611C45.927 52.3042 45.7256 52.7741 45.5781 53.2602C45.9167 52.8806 46.2052 52.454 46.4341 51.9944C47.1113 50.765 47.6729 49.4741 48.1097 48.1426C48.7478 46.1613 49.1324 44.1178 49.2523 42.0707C49.3299 40.8691 49.3214 39.6708 49.2269 38.4863C49.117 37.2255 48.9112 35.985 48.6115 34.7768C47.9658 32.2421 46.8838 29.8939 45.4182 27.8466C44.681 26.8143 43.8584 25.8579 42.959 24.9875C42.0678 24.1314 41.1109 23.3552 40.0966 22.6655C38.1535 21.3527 36.0178 20.3668 33.7564 19.7386C31.7615 19.1901 29.6976 18.8832 27.6017 18.8233C24.7383 18.746 21.8462 19.0643 18.996 19.7704C17.6718 20.0869 16.3645 20.5147 15.0866 21.0497L14.9473 21.1143C16.1249 19.2143 17.1682 17.2303 18.0675 15.1807C18.8595 13.38 19.2032 12.2103 19.0518 12.143C18.7454 11.9962 16.6275 16.3191 13.4291 21.2065L13.2713 21.4671Z" fill="#EF5DA8"/>
</svg>
