<svg width="133" height="148" viewBox="0 0 133 148" fill="none" xmlns="http://www.w3.org/2000/svg">
<path d="M42.6465 143.453L121.625 147.057C121.625 147.057 125.308 110.366 118.842 100.845C111.449 89.9603 97.9835 88.6277 97.9835 88.6277L64.9172 87.5054C64.9172 87.5054 53.9241 86.6845 44.4892 96.3876C37.6898 103.38 26.9215 111.827 26.9215 111.827" fill="white"/>
<path d="M42.6465 143.453L121.625 147.057C121.625 147.057 125.308 110.366 118.842 100.845C111.449 89.9603 97.9835 88.6277 97.9835 88.6277L64.9172 87.5054C64.9172 87.5054 53.9241 86.6845 44.4892 96.3876C37.6898 103.38 26.9215 111.827 26.9215 111.827" stroke="#1C1C1B" stroke-opacity="0.75" stroke-width="0.84792" stroke-miterlimit="10" stroke-linecap="round" stroke-linejoin="round"/>
<path d="M24.1185 98.6305C24.1185 98.6305 22.4384 83.7204 20.8614 78.1948C20.8614 78.1948 13.3195 83.5032 0.5407 80.1406C0.5407 80.1406 -0.447917 103.216 3.37031 116.333C3.37031 116.333 8.65485 149.185 35.6064 139.303C33.5636 133.981 31.2253 125.004 29.6559 110.052L24.1185 98.6305Z" fill="white"/>
<path d="M24.1185 98.6305C24.1185 98.6305 22.4384 83.7204 20.8614 78.1948C20.8614 78.1948 13.3195 83.5032 0.5407 80.1406C0.5407 80.1406 -0.447917 103.216 3.37031 116.333C3.37031 116.333 8.65485 149.185 35.6064 139.303C33.5636 133.981 31.2253 125.004 29.6559 110.052L24.1185 98.6305Z" stroke="#1C1C1B" stroke-opacity="0.75" stroke-width="0.84792" stroke-miterlimit="10" stroke-linecap="round" stroke-linejoin="round"/>
<path d="M29.6562 110.052C31.2247 125.003 33.5638 133.981 35.6066 139.302C37.7116 138.531 39.9443 137.506 42.3217 136.177L29.6562 110.052Z" fill="#1C1C1B" fill-opacity="0.75"/>
<path d="M29.6562 110.052C31.2247 125.003 33.5638 133.981 35.6066 139.302C37.7116 138.531 39.9443 137.506 42.3217 136.177L29.6562 110.052Z" stroke="#1C1C1B" stroke-opacity="0.75" stroke-width="0.84792" stroke-miterlimit="10" stroke-linecap="round" stroke-linejoin="round"/>
<path d="M65.635 89.6001C66.9711 92.107 70.774 96.0171 81.5593 96.3935C92.7458 96.7835 97.5748 93.6176 99.598 91.3167C84.6878 88.7426 71.7311 89.1607 65.635 89.6001Z" fill="white"/>
<path d="M65.635 89.6001C66.9711 92.107 70.774 96.0171 81.5593 96.3935C92.7458 96.7835 97.5748 93.6176 99.598 91.3167C84.6878 88.7426 71.7311 89.1607 65.635 89.6001Z" stroke="#1C1C1B" stroke-opacity="0.75" stroke-width="1.13452" stroke-miterlimit="10" stroke-linecap="round" stroke-linejoin="round"/>
<path d="M99.5984 91.3174C100.715 90.0478 100.98 89.0405 100.98 89.0405C72.4936 85.3244 64.9176 87.506 64.9176 87.506C64.9176 87.506 64.9909 88.3908 65.6355 89.6008C71.7307 89.1605 84.6883 88.7433 99.5984 91.3174Z" fill="#1A1A1A"/>
<path d="M99.5984 91.3174C100.715 90.0478 100.98 89.0405 100.98 89.0405C72.4936 85.3244 64.9176 87.506 64.9176 87.506C64.9176 87.506 64.9909 88.3908 65.6355 89.6008C71.7307 89.1605 84.6883 88.7433 99.5984 91.3174Z" stroke="#1A1A1A" stroke-width="1.13452" stroke-miterlimit="10"/>
<path d="M73.2621 92.955L73.1429 87.6798L73.1139 85.8396C78.2656 88.0894 86.5671 88.9111 90.6229 89.1878L90.095 92.9073" fill="white"/>
<path d="M73.2621 92.955L73.1429 87.6798L73.1139 85.8396C78.2656 88.0894 86.5671 88.9111 90.6229 89.1878L90.095 92.9073" stroke="#1C1C1B" stroke-opacity="0.75" stroke-width="1.13452" stroke-miterlimit="10" stroke-linecap="round" stroke-linejoin="round"/>
<path d="M73.009 76.9889L91.2307 78.8538L90.7879 87.145L90.6227 89.1878C86.5678 88.9102 78.2654 88.0894 73.1137 85.8396L73.009 76.9889Z" fill="#1A1A1A"/>
<path d="M73.009 76.9889L91.2307 78.8538L90.7879 87.145L90.6227 89.1878C86.5678 88.9102 78.2654 88.0894 73.1137 85.8396L73.009 76.9889Z" stroke="#1A1A1A" stroke-width="1.13452" stroke-miterlimit="10"/>
<path d="M53.3831 43.6514C50.7273 39.9839 51.2782 34.7368 53.5202 30.8027C55.7623 26.8687 60.1979 22.9926 60.2268 23.4405" stroke="black" stroke-opacity="0.1" stroke-width="0.662226" stroke-miterlimit="10"/>
<path d="M119.627 63.9254C123.15 63.8232 126.542 61.685 128.153 58.5506C129.764 55.4153 129.528 51.4123 127.56 48.489C131.866 45.1408 133.649 38.8983 131.762 33.7815C129.874 28.6639 124.465 25.0747 119.016 25.325" stroke="black" stroke-opacity="0.1" stroke-width="0.662226" stroke-miterlimit="10"/>
<path d="M86.0663 78.104L83.9834 83.2991C77.8848 83.0241 72.0017 81.4113 66.9717 78.5851L69.2129 70.9282L86.0663 78.104Z" fill="#EBA178"/>
<path d="M65.6486 22.5108C61.8432 27.666 59.9179 30.8021 56.8149 44.3618C53.9427 56.9098 59.1668 71.728 73.8922 77.3148C87.732 82.5644 105.076 81.879 114.627 62.9258C122.678 46.9538 123.105 28.761 106.483 18.845C89.8616 8.92823 72.8712 12.7269 65.6486 22.5108Z" fill="white"/>
<path d="M65.6486 22.5108C61.8432 27.666 59.9179 30.8021 56.8149 44.3618C53.9427 56.9098 59.1668 71.728 73.8922 77.3148C87.732 82.5644 105.076 81.879 114.627 62.9258C122.678 46.9538 123.105 28.761 106.483 18.845C89.8616 8.92822 72.8712 12.7269 65.6486 22.5108Z" stroke="#1C1C1B" stroke-opacity="0.75" stroke-width="0.84792" stroke-miterlimit="10" stroke-linecap="round" stroke-linejoin="round"/>
<path d="M76.3993 5.58513C71.6614 6.50052 76.166 6.48775 72.3657 9.46041C68.5653 12.4339 56.9037 19.0409 59.2692 23.2465C57.4564 25.813 50.4696 35.8431 52.5908 44.3992C53.3086 47.2944 55.0142 48.5708 57.7629 47.4136C60.5125 46.2564 62.5272 42.1273 63.6112 39.3488C64.6951 36.5695 66.4833 33.2443 66.7967 30.2784C71.1548 27.3415 75.1961 23.9363 78.8287 20.1385C80.6765 18.2064 82.4885 16.0308 82.9416 13.3961C83.3937 10.7615 81.9444 7.62709 79.3141 7.14682" fill="#1A1A1A"/>
<path d="M114.584 60.6193C114.584 60.6193 109.596 57.7232 111.82 48.1615C111.82 48.1615 107.857 44.8968 109.242 35.0779C109.242 35.0779 82.4838 36.8831 77.1226 30.2293C77.1226 30.2293 74.9827 27.2966 77.7144 24.2652C77.7144 24.2652 73.0821 25.7494 67.0303 21.6161C60.9794 17.4829 67.6213 8.87482 72.3736 8.96764C72.3736 8.96764 73.8893 -4.4881 86.9372 1.56537C99.9851 7.61798 102.919 6.06651 110.698 8.90889C118.476 11.7513 121.804 17.9895 122.607 22.7887C122.607 22.7887 138.14 38.7096 127.74 47.8481C127.74 47.8481 130.225 61.0203 120.843 62.5403C111.461 64.0594 114.584 60.6193 114.584 60.6193Z" fill="#1A1A1A"/>
<path d="M122.474 27.2274C124.765 26.2669 126.911 24.9632 128.819 23.3734C129.253 23.0124 129.692 22.3508 129.287 21.9591C128.98 21.6627 128.474 21.8433 128.095 22.0383C126.737 22.7382 125.379 23.4373 124.021 24.1373C125.734 22.6888 127.163 20.9066 128.203 18.92C128.587 18.1885 128.888 17.2101 128.322 16.609C127.895 16.1551 127.137 16.1696 126.592 16.471C126.047 16.7733 125.664 17.2953 125.3 17.8011C123.535 20.2501 121.771 22.6982 120.008 25.1472" fill="#1A1A1A"/>
<path d="M60.3576 55.1517C61.5761 52.2556 60.602 42.5849 60.602 42.5849C60.602 42.5849 51.1927 35.4832 47.308 46.1809C43.4234 56.8777 57.2121 62.6255 60.3576 55.1517Z" fill="white"/>
<path d="M60.3576 55.1517C61.5761 52.2556 60.602 42.5849 60.602 42.5849C60.602 42.5849 51.1926 35.4832 47.308 46.1809C43.4234 56.8777 57.2121 62.6255 60.3576 55.1517Z" stroke="#1C1C1B" stroke-opacity="0.75" stroke-width="0.84792" stroke-miterlimit="10" stroke-linecap="round" stroke-linejoin="round"/>
<path d="M56.4504 54.6427C56.4206 54.6333 56.3917 54.6171 56.3661 54.595C56.2725 54.5124 56.2631 54.3676 56.3466 54.274C56.3866 54.2288 60.3121 49.7175 57.4135 46.1692C56.3951 44.9226 55.2243 44.2371 53.9308 44.1272C51.6981 43.9391 49.8248 45.5518 49.806 45.5672C49.7106 45.6498 49.5676 45.6404 49.485 45.5467C49.4015 45.4522 49.4118 45.3075 49.5054 45.2249C49.588 45.1533 51.5372 43.4707 53.9649 43.6725C55.3869 43.7926 56.6659 44.5343 57.766 45.8814C60.9116 49.7303 56.7306 54.5277 56.6872 54.5763C56.6267 54.6452 56.533 54.6682 56.4504 54.6427Z" fill="#1A1A1A"/>
<path d="M52.3929 48.7366C52.3265 48.7162 52.2703 48.6659 52.2447 48.5953C52.203 48.4769 52.2643 48.3466 52.3835 48.304C52.4278 48.2879 56.9 46.7424 58.7776 50.2889C58.8372 50.4005 58.7946 50.5384 58.6831 50.5972C58.5724 50.6559 58.4344 50.6142 58.3757 50.5027C56.6812 47.3018 52.5777 48.7196 52.536 48.7341C52.4883 48.7502 52.438 48.7502 52.3929 48.7366Z" fill="#1A1A1A"/>
<path d="M113.188 58.7958C113.188 58.7958 105.603 93.6427 74.4769 83.4193C45.8649 74.0219 59.8383 42.3419 59.8383 42.3419C59.8383 42.3419 62.0966 43.3893 67.4424 54.3117C70.318 60.1872 76.6244 57.1294 82.0852 59.1271C87.546 61.1248 89.6561 62.9002 95.7675 64.9362C101.878 66.973 104.495 55.9671 113.188 58.7958Z" fill="#1A1A1A"/>
<path d="M79.6283 65.2785C82.9551 66.2995 84.189 63.6521 84.2026 63.6231C84.2537 63.509 84.2026 63.3745 84.0885 63.3234C83.9804 63.2715 83.8399 63.3217 83.7871 63.4366C83.7385 63.5431 82.5541 66.0346 79.1667 64.6262C79.0475 64.5871 78.9164 64.633 78.8678 64.7488C78.8202 64.8655 78.8747 64.9992 78.9905 65.0477C79.211 65.1397 79.4239 65.2155 79.6283 65.2785Z" fill="white"/>
<path d="M105.719 69.0718C106.334 65.9901 112.565 58.5308 112.565 58.5308C112.565 58.5308 124.338 57.9296 121.553 68.9645C118.77 79.9994 104.13 77.0233 105.719 69.0718Z" fill="white"/>
<path d="M105.719 69.0718C106.334 65.9901 112.565 58.5308 112.565 58.5308C112.565 58.5308 124.338 57.9296 121.553 68.9645C118.77 79.9994 104.13 77.0233 105.719 69.0718Z" stroke="#1C1C1B" stroke-opacity="0.75" stroke-width="0.84792" stroke-miterlimit="10" stroke-linecap="round" stroke-linejoin="round"/>
<path d="M103.575 50.6004C103.575 50.6004 106.332 49.3401 102.491 45.527C98.6489 41.7139 96.8769 41.7505 95.7648 42.7255C94.7506 43.6162 95.2947 45.5841 97.4951 47.6814C100.136 50.1993 102.059 51.3463 103.575 50.6004Z" fill="#1A1A1A"/>
<path d="M92.7006 55.6208C92.2459 57.1024 92.8633 58.6054 94.0784 58.9783C95.2935 59.3513 96.6474 58.4529 97.1022 56.9713C97.5569 55.4905 96.9404 53.9867 95.7244 53.6137C94.5093 53.2408 93.1554 54.1391 92.7006 55.6208Z" fill="#000100" fill-opacity="0.75"/>
<path d="M68.2715 39.9569C68.2715 39.9569 66.6962 37.3666 72.0148 36.3652C77.3334 35.3638 78.781 36.3873 79.1539 37.8187C79.4945 39.1241 77.9405 40.4482 74.9423 40.9506C71.3429 41.5535 69.1077 41.4241 68.2715 39.9569Z" fill="#1A1A1A"/>
<path d="M75.7629 50.2939C75.3082 51.7756 73.9542 52.6739 72.7391 52.301C71.524 51.928 70.9067 50.4242 71.3614 48.9434C71.8161 47.4618 73.17 46.5634 74.3851 46.9364C75.6002 47.3093 76.2176 48.8123 75.7629 50.2939Z" fill="#000100" fill-opacity="0.75"/>
<path d="M109.239 70.8413C109.269 70.8507 109.302 70.8541 109.335 70.8499C109.46 70.8328 109.548 70.7187 109.532 70.5944C109.524 70.5339 108.804 64.598 113.194 63.2866C114.736 62.826 116.091 62.9145 117.224 63.5489C119.177 64.6465 119.823 67.0316 119.83 67.0555C119.863 67.1772 119.986 67.2496 120.108 67.2181C120.23 67.1866 120.302 67.0614 120.271 66.9405C120.243 66.8349 119.572 64.3485 117.45 63.1538C116.206 62.4556 114.731 62.3517 113.064 62.8498C108.302 64.2727 109.071 70.5893 109.08 70.6532C109.092 70.7443 109.156 70.8158 109.239 70.8413Z" fill="#1A1A1A"/>
<path d="M115.91 68.2281C115.977 68.2485 116.051 68.2383 116.112 68.194C116.213 68.1199 116.235 67.9769 116.16 67.8755C116.133 67.8372 113.298 64.0488 109.754 65.9324C109.642 65.9911 109.6 66.1291 109.659 66.2398C109.718 66.3513 109.856 66.393 109.967 66.3343C113.165 64.6355 115.767 68.1106 115.793 68.1455C115.823 68.1864 115.865 68.2145 115.91 68.2281Z" fill="#1A1A1A"/>
<path d="M81.1087 57.8167C81.1913 57.8422 81.285 57.8192 81.3463 57.7502C81.4297 57.6557 81.4203 57.5118 81.3267 57.4284C81.3114 57.4147 79.8169 56.0727 79.5232 54.2777C79.2924 52.8676 80.0451 51.0862 81.1019 50.5404C81.7371 50.2134 82.4115 50.3752 83.0553 51.0122C83.0757 51.0326 83.1072 51.0675 83.1489 51.1118C85.3518 53.4909 86.7756 53.1631 87.582 52.4683C89.0628 51.1927 92.0312 38.4497 92.365 37.0012C92.3931 36.8777 92.3139 36.7577 92.1938 36.7279C92.0712 36.6998 91.9494 36.7764 91.9205 36.899C91.0238 40.7956 88.442 51.1263 87.2856 52.1234C86.3328 52.9434 85.0538 52.5006 83.4836 50.8027C83.435 50.7507 83.3993 50.7116 83.3754 50.6886C82.5895 49.9128 81.7073 49.7153 80.8933 50.1351C79.6611 50.772 78.8104 52.7416 79.0736 54.351C79.3937 56.3095 80.958 57.7111 81.0252 57.7698C81.0499 57.792 81.0789 57.8073 81.1087 57.8167Z" fill="#1A1A1A"/>
<path d="M72.373 8.96762C72.373 8.96762 81.7423 -0.0721397 86.9374 1.56534C100.655 5.88937 102.92 6.06733 110.697 8.90886" fill="#1A1A1A"/>
<path d="M42.5153 143.386C42.5153 143.386 43.4468 131.264 45.2606 116.709L42.5153 143.386Z" fill="white"/>
<path d="M42.5153 143.386C42.5153 143.386 43.4468 131.264 45.2606 116.709" stroke="#1C1C1B" stroke-opacity="0.75" stroke-width="1.13452" stroke-miterlimit="10" stroke-linecap="round" stroke-linejoin="round"/>
<path d="M23.946 95.403L27.4662 116.346L23.946 95.403Z" fill="white"/>
<path d="M23.946 95.403L27.4662 116.346" stroke="#1C1C1B" stroke-opacity="0.75" stroke-width="1.13452" stroke-miterlimit="10" stroke-linecap="round" stroke-linejoin="round"/>
<path d="M22.1659 85.5637C10.3297 90.4447 1.44834 87.1425 1.44834 87.1425L1.34701 83.6368C1.34701 83.6368 10.8483 87.0037 21.6686 81.691L22.1659 85.5637Z" fill="#1C1C1B" fill-opacity="0.75"/>
<path d="M22.1659 85.5637C10.3297 90.4447 1.44834 87.1425 1.44834 87.1425L1.34701 83.6368C1.34701 83.6368 10.8483 87.0037 21.6686 81.691L22.1659 85.5637Z" stroke="#1C1C1B" stroke-opacity="0.75" stroke-width="1.13452" stroke-miterlimit="10" stroke-linecap="round" stroke-linejoin="round"/>
<path d="M1.34701 83.6367C1.34701 83.6367 8.73055 78.7362 21.6686 81.6901C21.6686 81.6901 13.7877 86.5387 1.34701 83.6367Z" fill="#1C1C1B" fill-opacity="0.75"/>
<path d="M1.34701 83.6367C1.34701 83.6367 8.73055 78.7362 21.6686 81.6901C21.6686 81.6901 13.7877 86.5387 1.34701 83.6367Z" stroke="#1C1C1B" stroke-opacity="0.75" stroke-width="1.13452" stroke-miterlimit="10" stroke-linecap="round" stroke-linejoin="round"/>
<path d="M113.444 120.944C113.444 120.944 108.873 135.465 99.4608 144.07C90.049 152.675 80.9062 142.725 80.9062 142.725L113.444 120.944Z" fill="#1C1C1B" fill-opacity="0.75"/>
<path d="M113.444 120.944C113.444 120.944 108.873 135.465 99.4608 144.07C90.049 152.675 80.9062 142.725 80.9062 142.725L113.444 120.944Z" stroke="#1C1C1B" stroke-opacity="0.75" stroke-width="0.84792" stroke-miterlimit="10" stroke-linecap="round" stroke-linejoin="round"/>
<path d="M62.5541 87.8692C62.5541 87.8692 63.2932 98.6929 81.6461 99.3648C99.9981 100.037 103.494 89.9529 103.562 90.1547" stroke="#1C1C1B" stroke-opacity="0.75" stroke-width="0.601175" stroke-miterlimit="10" stroke-linecap="round" stroke-linejoin="round"/>
</svg>
