<svg width="20" height="20" viewBox="0 0 20 20" fill="none" xmlns="http://www.w3.org/2000/svg">
<path d="M15.7629 9.12323C15.7629 13.6415 11.1352 16.425 10.1735 16.9552C10.1202 16.9846 10.0603 17 9.9995 17C9.93865 17 9.8788 16.9846 9.82552 16.9552C8.8631 16.425 4.23682 13.6415 4.23682 9.12323C4.23682 5.52133 6.39796 3 9.99986 3C13.6018 3 15.7629 5.52133 15.7629 9.12323Z" stroke="#170F49" stroke-width="1.4" stroke-linecap="round" stroke-linejoin="round"/>
<path d="M7.11816 8.76311C7.11816 9.52734 7.42175 10.2603 7.96214 10.8007C8.50253 11.341 9.23546 11.6446 9.99968 11.6446C10.7639 11.6446 11.4968 11.341 12.0372 10.8007C12.5776 10.2603 12.8812 9.52734 12.8812 8.76311C12.8812 7.99888 12.5776 7.26596 12.0372 6.72557C11.4968 6.18518 10.7639 5.88159 9.99968 5.88159C9.23546 5.88159 8.50253 6.18518 7.96214 6.72557C7.42175 7.26596 7.11816 7.99888 7.11816 8.76311V8.76311Z" stroke="#170F49" stroke-width="1.4" stroke-linecap="round" stroke-linejoin="round"/>
</svg>
