<svg width="27" height="29" viewBox="0 0 27 29" fill="none" xmlns="http://www.w3.org/2000/svg">
<path d="M13.1925 27.9436C11.6532 25.5148 10.7738 23.9679 10.7738 23.9679C3.22886 18.8619 -0.326781 8.00708 0.557663 7.4526C2.0306 6.52903 5.12191 13.1343 5.12191 13.1343C5.12191 13.1343 1.05176 4.05684 2.8283 3.55764C4.92461 2.9683 7.97424 11.0516 7.97424 11.0516C7.97424 11.0516 4.29699 0.388949 5.98849 0.536073C7.15017 0.637274 9.39445 4.92938 10.6871 7.61078C11.2297 8.83624 11.6693 9.72409 11.6693 9.72409C11.6693 9.72409 11.2773 8.83539 10.6871 7.61078C9.44718 4.81117 7.66723 0.244377 9.35108 0.430619C11.7714 0.697653 15.8483 11.3373 15.8483 11.3373C15.8483 11.3373 17.1248 2.52607 19.3011 5.61312C21.4765 8.70017 21.0249 13.7441 21.0249 13.7441C21.0249 13.7441 23.0778 15.0325 26.5748 17.6075" fill="white"/>
<path d="M13.1925 27.9436C11.6532 25.5148 10.7738 23.9679 10.7738 23.9679C3.22886 18.8619 -0.326781 8.00708 0.557663 7.4526C2.0306 6.52903 5.12191 13.1343 5.12191 13.1343C5.12191 13.1343 1.05176 4.05684 2.8283 3.55764C4.92461 2.9683 7.97424 11.0516 7.97424 11.0516C7.97424 11.0516 4.29699 0.388949 5.98849 0.536073C7.15017 0.637274 9.39445 4.92938 10.6871 7.61078M10.6871 7.61078C11.2297 8.83624 11.6693 9.72409 11.6693 9.72409C11.6693 9.72409 11.2773 8.83539 10.6871 7.61078ZM10.6871 7.61078C9.44718 4.81117 7.66723 0.244376 9.35108 0.43062C11.7714 0.697654 15.8483 11.3373 15.8483 11.3373C15.8483 11.3373 17.1248 2.52607 19.3011 5.61312C21.4765 8.70017 21.0249 13.7441 21.0249 13.7441C21.0249 13.7441 23.0778 15.0325 26.5748 17.6075" stroke="#1C1C1B" stroke-opacity="0.75" stroke-width="0.84792" stroke-miterlimit="10" stroke-linecap="round" stroke-linejoin="round"/>
</svg>
