<svg width="16" height="16" viewBox="0 0 16 16" fill="none" xmlns="http://www.w3.org/2000/svg">
<path d="M9.136 2.856C9.07397 2.793 9.00002 2.74296 8.91846 2.70881C8.8369 2.67465 8.74937 2.65707 8.66095 2.65707C8.57253 2.65707 8.48499 2.67466 8.40343 2.70881C8.32188 2.74297 8.24793 2.793 8.18589 2.85601C8.12386 2.91902 8.07498 2.99374 8.0421 3.07581C8.00922 3.15789 7.99299 3.24569 7.99437 3.3341C7.99574 3.42251 8.01469 3.50976 8.05011 3.59078C8.08552 3.67179 8.1367 3.74496 8.20067 3.806L11.78 7.33334L2.66667 7.33334C2.48986 7.33334 2.32029 7.40357 2.19526 7.5286C2.07024 7.65362 2 7.82319 2 8C2 8.17681 2.07024 8.34638 2.19526 8.47141C2.32029 8.59643 2.48986 8.66667 2.66667 8.66667H11.7767L8.2 12.19C8.07721 12.3147 8.00838 12.4827 8.00838 12.6577C8.00838 12.8327 8.0772 13.0007 8.19999 13.1255C8.32278 13.2502 8.48969 13.3216 8.66468 13.3243C8.83968 13.327 9.00873 13.2608 9.13533 13.14L13.752 8.59134C13.8306 8.51381 13.893 8.42143 13.9356 8.31958C13.9782 8.21772 14.0002 8.10841 14.0002 7.998C14.0002 7.88759 13.9782 7.77829 13.9356 7.67643C13.893 7.57457 13.8306 7.4822 13.752 7.40467L9.13533 2.856H9.136Z" fill="white"/>
</svg>
