<svg width="27" height="27" viewBox="0 0 27 27" fill="none" xmlns="http://www.w3.org/2000/svg">
<mask id="mask0_0_46" style="mask-type:alpha" maskUnits="userSpaceOnUse" x="-3" y="-3" width="33" height="33">
<rect x="-2.7003" y="-2.75666" width="32.3996" height="32.3996" fill="#D9D9D9"/>
</mask>
<g mask="url(#mask0_0_46)">
<path d="M17.8873 3.99245C17.4148 3.99245 17.0154 3.82933 16.6892 3.50308C16.3629 3.17684 16.1998 2.77747 16.1998 2.30497C16.1998 1.83248 16.3629 1.43311 16.6892 1.10686C17.0154 0.780616 17.4148 0.617493 17.8873 0.617493C18.3598 0.617493 18.7591 0.780616 19.0854 1.10686C19.4116 1.43311 19.5748 1.83248 19.5748 2.30497C19.5748 2.77747 19.4116 3.17684 19.0854 3.50308C18.7591 3.82933 18.3598 3.99245 17.8873 3.99245ZM17.8873 26.2672C17.4148 26.2672 17.0154 26.1041 16.6892 25.7778C16.3629 25.4516 16.1998 25.0522 16.1998 24.5797C16.1998 24.1072 16.3629 23.7078 16.6892 23.3816C17.0154 23.0553 17.4148 22.8922 17.8873 22.8922C18.3598 22.8922 18.7591 23.0553 19.0854 23.3816C19.4116 23.7078 19.5748 24.1072 19.5748 24.5797C19.5748 25.0522 19.4116 25.4516 19.0854 25.7778C18.7591 26.1041 18.3598 26.2672 17.8873 26.2672ZM23.2872 8.71739C22.8147 8.71739 22.4154 8.55427 22.0891 8.22803C21.7629 7.90178 21.5997 7.50241 21.5997 7.02991C21.5997 6.55742 21.7629 6.15805 22.0891 5.8318C22.4154 5.50556 22.8147 5.34244 23.2872 5.34244C23.7597 5.34244 24.1591 5.50556 24.4853 5.8318C24.8116 6.15805 24.9747 6.55742 24.9747 7.02991C24.9747 7.50241 24.8116 7.90178 24.4853 8.22803C24.1591 8.55427 23.7597 8.71739 23.2872 8.71739ZM23.2872 21.5422C22.8147 21.5422 22.4154 21.3791 22.0891 21.0529C21.7629 20.7266 21.5997 20.3273 21.5997 19.8548C21.5997 19.3823 21.7629 18.9829 22.0891 18.6567C22.4154 18.3304 22.8147 18.1673 23.2872 18.1673C23.7597 18.1673 24.1591 18.3304 24.4853 18.6567C24.8116 18.9829 24.9747 19.3823 24.9747 19.8548C24.9747 20.3273 24.8116 20.7266 24.4853 21.0529C24.1591 21.3791 23.7597 21.5422 23.2872 21.5422ZM25.3122 15.1298C24.8397 15.1298 24.4403 14.9667 24.1141 14.6404C23.7878 14.3142 23.6247 13.9148 23.6247 13.4423C23.6247 12.9698 23.7878 12.5705 24.1141 12.2442C24.4403 11.918 24.8397 11.7549 25.3122 11.7549C25.7847 11.7549 26.1841 11.918 26.5103 12.2442C26.8365 12.5705 26.9997 12.9698 26.9997 13.4423C26.9997 13.9148 26.8365 14.3142 26.5103 14.6404C26.1841 14.9667 25.7847 15.1298 25.3122 15.1298ZM0 13.4423C0 9.90988 1.17561 6.87242 3.52683 4.32995C5.87805 1.78748 8.76364 0.347496 12.1836 0.00999988C12.5436 -0.0349996 12.853 0.0718741 13.1117 0.330621C13.3705 0.589368 13.4998 0.909989 13.4998 1.29248C13.4998 1.65248 13.3817 1.96748 13.1455 2.23747C12.9092 2.50747 12.6111 2.66497 12.2511 2.70997C9.52863 3.02496 7.25616 4.19495 5.43368 6.21992C3.61121 8.2449 2.69997 10.6524 2.69997 13.4423C2.69997 16.2548 3.61121 18.6679 5.43368 20.6816C7.25616 22.6954 9.52863 23.8597 12.2511 24.1747C12.6111 24.2197 12.9092 24.3772 13.1455 24.6472C13.3817 24.9172 13.4998 25.2322 13.4998 25.5922C13.4998 25.9747 13.3705 26.2953 13.1117 26.5541C12.853 26.8128 12.5436 26.9197 12.1836 26.8747C8.74114 26.5372 5.84993 25.0972 3.50996 22.5547C1.16999 20.0123 0 16.9748 0 13.4423ZM13.4998 16.1423C12.7573 16.1423 12.1217 15.8779 11.593 15.3492C11.0642 14.8204 10.7999 14.1848 10.7999 13.4423C10.7999 13.3298 10.8055 13.2117 10.8167 13.088C10.828 12.9642 10.8561 12.8461 10.9011 12.7336L9.04489 10.8774C8.79739 10.6299 8.67364 10.3149 8.67364 9.93238C8.67364 9.54988 8.79739 9.23489 9.04489 8.98739C9.29239 8.73989 9.60738 8.61615 9.98988 8.61615C10.3724 8.61615 10.6874 8.73989 10.9349 8.98739L12.7911 10.8436C12.8811 10.8211 13.1173 10.7874 13.4998 10.7424C14.2423 10.7424 14.8779 11.0067 15.4067 11.5355C15.9354 12.0642 16.1998 12.6998 16.1998 13.4423C16.1998 14.1848 15.9354 14.8204 15.4067 15.3492C14.8779 15.8779 14.2423 16.1423 13.4998 16.1423Z" fill="#1C1B1F"/>
</g>
</svg>
