<svg width="144" height="144" viewBox="0 0 144 144" fill="none" xmlns="http://www.w3.org/2000/svg">
<circle cx="72.0002" cy="72.0002" r="64.2164" stroke="#F3F6FF" stroke-width="15.5676"/>
<mask id="path-2-inside-1_3103_13183" fill="white">
<path d="M30.0358 120.791C27.282 123.993 27.6251 128.859 31.1008 131.257C38.4709 136.344 46.7445 140.024 55.5048 142.086C66.7529 144.733 78.473 144.634 89.6748 141.797C100.877 138.96 111.231 133.468 119.863 125.786C128.496 118.104 135.152 108.457 139.27 97.6607C143.389 86.864 144.848 75.2347 143.525 63.7552C142.201 52.2758 138.135 41.2835 131.668 31.7069C125.201 22.1304 116.524 14.251 106.371 8.73445C98.463 4.43807 89.8403 1.67318 80.9549 0.559178C76.7646 0.0338272 73.268 3.43515 73.1898 7.65752C73.1116 11.8799 76.4874 15.3135 80.6609 15.9586C87.0902 16.9525 93.32 19.0484 99.0699 22.1723C107.067 26.5172 113.901 32.7229 118.994 40.2654C124.087 47.8078 127.29 56.4653 128.332 65.5065C129.374 74.5476 128.225 83.7068 124.981 92.2102C121.738 100.714 116.495 108.311 109.696 114.362C102.898 120.412 94.7427 124.737 85.9202 126.971C77.0977 129.206 67.867 129.284 59.008 127.199C52.6383 125.7 46.5953 123.115 41.1373 119.574C37.5944 117.276 32.7894 117.589 30.0358 120.791Z"/>
</mask>
<path d="M30.0358 120.791C27.282 123.993 27.6251 128.859 31.1008 131.257C38.4709 136.344 46.7445 140.024 55.5048 142.086C66.7529 144.733 78.473 144.634 89.6748 141.797C100.877 138.96 111.231 133.468 119.863 125.786C128.496 118.104 135.152 108.457 139.27 97.6607C143.389 86.864 144.848 75.2347 143.525 63.7552C142.201 52.2758 138.135 41.2835 131.668 31.7069C125.201 22.1304 116.524 14.251 106.371 8.73445C98.463 4.43807 89.8403 1.67318 80.9549 0.559178C76.7646 0.0338272 73.268 3.43515 73.1898 7.65752C73.1116 11.8799 76.4874 15.3135 80.6609 15.9586C87.0902 16.9525 93.32 19.0484 99.0699 22.1723C107.067 26.5172 113.901 32.7229 118.994 40.2654C124.087 47.8078 127.29 56.4653 128.332 65.5065C129.374 74.5476 128.225 83.7068 124.981 92.2102C121.738 100.714 116.495 108.311 109.696 114.362C102.898 120.412 94.7427 124.737 85.9202 126.971C77.0977 129.206 67.867 129.284 59.008 127.199C52.6383 125.7 46.5953 123.115 41.1373 119.574C37.5944 117.276 32.7894 117.589 30.0358 120.791Z" stroke="#F9AB35" stroke-width="54.4865" mask="url(#path-2-inside-1_3103_13183)"/>
</svg>
