<svg width="19" height="19" viewBox="0 0 19 19" fill="none" xmlns="http://www.w3.org/2000/svg">
<path d="M14.2497 15.6343C14.2497 16.0856 14.0784 16.5202 13.7704 16.8501C13.4624 17.18 13.0406 17.3807 12.5904 17.4116L12.4684 17.4155H6.53107C6.07973 17.4156 5.64519 17.2443 5.31529 16.9363C4.98538 16.6283 4.7847 16.2065 4.75381 15.7562L4.74985 15.6343V3.36373C4.7498 2.91239 4.92108 2.47785 5.22909 2.14795C5.5371 1.81804 5.95887 1.61737 6.40915 1.58647L6.53107 1.58252H12.4684C12.9198 1.58246 13.3543 1.75375 13.6842 2.06176C14.0141 2.36977 14.2148 2.79153 14.2457 3.24181L14.2497 3.36373V15.6343ZM15.0413 3.95747H15.635C16.0864 3.95741 16.5209 4.1287 16.8508 4.43671C17.1807 4.74472 17.3814 5.16648 17.4123 5.61677L17.4163 5.73868V13.2594C17.4163 13.7107 17.245 14.1452 16.937 14.4751C16.629 14.805 16.2072 15.0057 15.757 15.0366L15.635 15.0406H15.0413V3.95747ZM3.9582 15.0406H3.36446C2.91312 15.0406 2.47859 14.8693 2.14868 14.5613C1.81878 14.2533 1.6181 13.8316 1.58721 13.3813L1.58325 13.2594V5.73868C1.5832 5.28734 1.75448 4.85281 2.06249 4.5229C2.3705 4.19299 2.79227 3.99232 3.24255 3.96142L3.36446 3.95747H3.9582V15.0406Z" fill="#1F2732"/>
</svg>
