<svg width="10" height="10" viewBox="0 0 10 10" fill="none" xmlns="http://www.w3.org/2000/svg">
<mask id="mask0_3101_4092" style="mask-type:alpha" maskUnits="userSpaceOnUse" x="-3" y="-3" width="16" height="16">
<rect x="-2.01637" y="-2.00378" width="14.2153" height="14.2153" fill="#D9D9D9"/>
</mask>
<g mask="url(#mask0_3101_4092)">
<path d="M3.62214 7.24429C2.61068 7.24429 1.75412 6.89347 1.05248 6.19182C0.350826 5.49017 0 4.63361 0 3.62214C0 2.61068 0.350826 1.75412 1.05248 1.05246C1.75412 0.350821 2.61068 0 3.62214 0C4.63361 0 5.49017 0.350821 6.19182 1.05246C6.89348 1.75412 7.2443 2.61068 7.2443 3.62214C7.2443 4.04511 7.1733 4.44909 7.0313 4.83409C6.88929 5.21908 6.69983 5.55396 6.46291 5.83872L9.87095 9.24675C9.95295 9.32876 9.9949 9.43185 9.9968 9.556C9.9987 9.68015 9.95675 9.78513 9.87095 9.87093C9.78513 9.95674 9.6811 9.99964 9.55885 9.99964C9.4366 9.99964 9.33257 9.95674 9.24676 9.87093L5.83872 6.46291C5.54257 6.70742 5.202 6.89878 4.817 7.03698C4.432 7.17519 4.03372 7.24429 3.62214 7.24429ZM3.62214 6.35586C4.38531 6.35586 5.03172 6.09103 5.56138 5.56138C6.09103 5.03172 6.35586 4.38531 6.35586 3.62214C6.35586 2.85898 6.09103 2.21257 5.56138 1.68291C5.03172 1.15326 4.38531 0.888426 3.62214 0.888426C2.85898 0.888426 2.21257 1.15326 1.68291 1.68291C1.15326 2.21257 0.888441 2.85898 0.888441 3.62214C0.888441 4.38531 1.15326 5.03172 1.68291 5.56138C2.21257 6.09103 2.85898 6.35586 3.62214 6.35586Z" fill="#1C1B1F"/>
</g>
</svg>
