<svg width="35" height="35" viewBox="0 0 35 35" fill="none" xmlns="http://www.w3.org/2000/svg">
<path d="M17.5001 30.6249C10.2511 30.6249 4.37509 24.7488 4.37509 17.4999C4.37509 10.251 10.2511 4.37497 17.5001 4.37497C24.749 4.37497 30.625 10.251 30.625 17.4999C30.625 24.7488 24.749 30.6249 17.5001 30.6249ZM26.2544 17.4999C26.2409 17.1305 26.1208 16.7728 25.9086 16.4701C25.6964 16.1674 25.4012 15.9325 25.0585 15.7937C24.7159 15.655 24.3404 15.6184 23.9774 15.6882C23.6143 15.7581 23.2793 15.9314 23.0125 16.1874C21.5195 15.1725 19.7644 14.6118 17.9594 14.5731L18.8125 10.4781L21.6213 11.0687C21.6547 11.3791 21.7976 11.6674 22.0244 11.8819C22.2512 12.0964 22.5471 12.223 22.8588 12.2391C23.1706 12.2551 23.4779 12.1595 23.7255 11.9694C23.9731 11.7793 24.1449 11.5072 24.2099 11.2019C24.275 10.8966 24.2291 10.5781 24.0805 10.3035C23.9319 10.029 23.6903 9.81641 23.3991 9.70395C23.1079 9.59149 22.7861 9.5865 22.4916 9.68989C22.197 9.79328 21.949 9.99828 21.7919 10.2681L18.5763 9.62495C18.5237 9.61342 18.4694 9.61243 18.4164 9.62206C18.3634 9.63168 18.3129 9.65172 18.2677 9.68102C18.2225 9.71032 18.1836 9.7483 18.1532 9.79275C18.1228 9.83719 18.1016 9.88723 18.0907 9.93995L17.1194 14.4943C15.2923 14.5219 13.513 15.083 12.0007 16.1087C11.7984 15.9183 11.5571 15.7742 11.2935 15.6864C11.0299 15.5985 10.7504 15.569 10.4743 15.5999C10.1982 15.6309 9.93218 15.7214 9.69457 15.8654C9.45697 16.0094 9.25351 16.2033 9.0983 16.4337C8.94308 16.6641 8.83982 16.9255 8.79568 17.1998C8.75153 17.4741 8.76756 17.7547 8.84263 18.0222C8.91771 18.2896 9.05006 18.5376 9.23049 18.7488C9.41092 18.9601 9.63513 19.1296 9.88758 19.2455C9.8728 19.4378 9.8728 19.6308 9.88758 19.823C9.88758 22.763 13.3132 25.1518 17.5394 25.1518C21.7657 25.1518 25.1913 22.763 25.1913 19.823C25.2061 19.6308 25.2061 19.4378 25.1913 19.2455C25.5152 19.0846 25.7869 18.8352 25.975 18.5263C26.1631 18.2174 26.26 17.8616 26.2544 17.4999ZM13.1294 18.8124C13.1294 18.4643 13.2677 18.1305 13.5139 17.8844C13.76 17.6382 14.0938 17.4999 14.4419 17.4999C14.79 17.4999 15.1239 17.6382 15.37 17.8844C15.6162 18.1305 15.7544 18.4643 15.7544 18.8124C15.7544 19.1605 15.6162 19.4944 15.37 19.7405C15.1239 19.9866 14.79 20.1249 14.4419 20.1249C14.0938 20.1249 13.76 19.9866 13.5139 19.7405C13.2677 19.4944 13.1294 19.1605 13.1294 18.8124ZM20.755 22.4218C19.8239 23.1235 18.6782 23.4807 17.5132 23.4324C16.3482 23.4807 15.2025 23.1235 14.2713 22.4218C14.2155 22.3538 14.187 22.2675 14.1913 22.1796C14.1956 22.0917 14.2325 22.0086 14.2947 21.9464C14.3569 21.8842 14.44 21.8473 14.5279 21.843C14.6157 21.8387 14.7021 21.8672 14.7701 21.923C15.5592 22.5019 16.5224 22.7936 17.5001 22.7499C18.4789 22.8031 19.4466 22.5207 20.2432 21.9493C20.2767 21.9117 20.3177 21.8814 20.3635 21.8603C20.4092 21.8392 20.4588 21.8277 20.5092 21.8266C20.5596 21.8255 20.6097 21.8348 20.6564 21.8539C20.703 21.8729 20.7452 21.9014 20.7804 21.9375C20.8156 21.9736 20.843 22.0165 20.8609 22.0636C20.8788 22.1108 20.8868 22.1611 20.8844 22.2114C20.882 22.2618 20.8693 22.3111 20.847 22.3563C20.8248 22.4015 20.7935 22.4417 20.755 22.4743V22.4218ZM20.5188 20.1774C20.2592 20.1774 20.0054 20.1004 19.7896 19.9562C19.5738 19.812 19.4055 19.607 19.3062 19.3672C19.2069 19.1274 19.1809 18.8635 19.2315 18.6089C19.2822 18.3543 19.4072 18.1204 19.5907 17.9369C19.7743 17.7533 20.0081 17.6283 20.2627 17.5776C20.5173 17.527 20.7812 17.553 21.0211 17.6523C21.2609 17.7517 21.4659 17.9199 21.6101 18.1357C21.7543 18.3516 21.8313 18.6053 21.8313 18.8649C21.8384 19.0428 21.8093 19.2202 21.7457 19.3864C21.6821 19.5527 21.5854 19.7042 21.4614 19.8319C21.3374 19.9596 21.1887 20.0607 21.0244 20.1291C20.8601 20.1976 20.6836 20.2318 20.5057 20.2299L20.5188 20.1774Z" fill="#352474"/>
</svg>
