<svg width="447" height="32" viewBox="0 0 447 32" fill="none" xmlns="http://www.w3.org/2000/svg">
<rect opacity="0.66" y="14.5449" width="1.93926" height="1.93926" rx="0.969631" fill="black"/>
<rect opacity="0.66" x="5.81836" y="11.6367" width="1.93926" height="7.75705" rx="0.969631" fill="black"/>
<rect opacity="0.66" x="11.6348" y="8.72656" width="1.93926" height="13.5748" rx="0.969631" fill="black"/>
<rect opacity="0.66" x="17.4531" y="13.5762" width="1.93926" height="3.87853" rx="0.969631" fill="black"/>
<rect opacity="0.66" x="23.2715" y="7.75781" width="1.93926" height="15.5141" rx="0.969631" fill="black"/>
<rect opacity="0.66" x="29.0898" y="8.72656" width="1.93926" height="13.5748" rx="0.969631" fill="black"/>
<rect opacity="0.66" x="34.9062" y="10.666" width="1.93926" height="9.69631" rx="0.969631" fill="black"/>
<rect opacity="0.66" x="40.7246" y="10.666" width="1.93926" height="9.69631" rx="0.969631" fill="black"/>
<rect opacity="0.66" x="46.543" y="10.666" width="1.93926" height="9.69631" rx="0.969631" fill="black"/>
<rect opacity="0.66" x="52.3594" y="8.72656" width="1.93926" height="13.5748" rx="0.969631" fill="black"/>
<rect opacity="0.66" x="58.1777" y="10.666" width="1.93926" height="9.69631" rx="0.969631" fill="black"/>
<rect opacity="0.66" x="63.9961" y="7.75781" width="1.93926" height="15.5141" rx="0.969631" fill="black"/>
<rect opacity="0.66" x="69.8125" y="11.6367" width="1.93926" height="7.75705" rx="0.969631" fill="black"/>
<rect opacity="0.66" x="75.6309" y="8.72656" width="1.93926" height="13.5748" rx="0.969631" fill="black"/>
<rect opacity="0.66" x="81.4473" y="13.5762" width="1.93926" height="3.87853" rx="0.969631" fill="black"/>
<rect opacity="0.66" x="87.2656" y="7.75781" width="1.93926" height="15.5141" rx="0.969631" fill="black"/>
<rect opacity="0.66" x="93.084" y="8.72656" width="1.93926" height="13.5748" rx="0.969631" fill="black"/>
<rect opacity="0.66" x="98.9023" y="10.666" width="1.93926" height="9.69631" rx="0.969631" fill="black"/>
<rect opacity="0.66" x="104.719" y="10.666" width="1.93926" height="9.69631" rx="0.969631" fill="black"/>
<rect opacity="0.66" x="110.537" y="10.666" width="1.93926" height="9.69631" rx="0.969631" fill="black"/>
<rect opacity="0.66" x="116.355" y="8.72656" width="1.93926" height="13.5748" rx="0.969631" fill="black"/>
<rect opacity="0.66" x="122.172" y="10.666" width="1.93926" height="9.69631" rx="0.969631" fill="black"/>
<rect opacity="0.66" x="127.99" y="7.75781" width="1.93926" height="15.5141" rx="0.969631" fill="black"/>
<rect opacity="0.66" x="133.809" y="10.666" width="1.93926" height="9.69631" rx="0.969631" fill="black"/>
<rect opacity="0.66" x="139.625" y="13.5762" width="1.93926" height="3.87853" rx="0.969631" fill="black"/>
<rect opacity="0.66" x="145.445" y="10.666" width="1.93926" height="9.69631" rx="0.969631" fill="black"/>
<rect opacity="0.66" x="151.264" y="10.666" width="1.93926" height="9.69631" rx="0.969631" fill="black"/>
<rect opacity="0.66" x="157.08" y="10.666" width="1.93926" height="9.69631" rx="0.969631" fill="black"/>
<rect opacity="0.66" x="162.898" y="8.72656" width="1.93926" height="13.5748" rx="0.969631" fill="black"/>
<rect opacity="0.66" x="168.717" y="10.666" width="1.93926" height="9.69631" rx="0.969631" fill="black"/>
<rect opacity="0.66" x="174.535" y="7.75781" width="1.93926" height="15.5141" rx="0.969631" fill="black"/>
<rect opacity="0.66" x="180.352" y="8.72656" width="1.93926" height="13.5748" rx="0.969631" fill="black"/>
<rect opacity="0.66" x="186.17" y="13.5762" width="1.93926" height="3.87853" rx="0.969631" fill="black"/>
<rect opacity="0.66" x="191.986" y="7.75781" width="1.93926" height="15.5141" rx="0.969631" fill="black"/>
<rect opacity="0.66" x="197.805" y="8.72656" width="1.93926" height="13.5748" rx="0.969631" fill="black"/>
<rect opacity="0.66" x="203.623" y="10.666" width="1.93926" height="9.69631" rx="0.969631" fill="black"/>
<rect opacity="0.66" x="209.441" y="10.666" width="1.93926" height="9.69631" rx="0.969631" fill="black"/>
<rect opacity="0.66" x="215.258" y="10.666" width="1.93926" height="9.69631" rx="0.969631" fill="black"/>
<rect opacity="0.66" x="221.076" y="8.72656" width="1.93926" height="13.5748" rx="0.969631" fill="black"/>
<rect opacity="0.66" x="226.895" y="10.666" width="1.93926" height="9.69631" rx="0.969631" fill="black"/>
<rect opacity="0.66" x="232.711" y="7.75781" width="1.93926" height="15.5141" rx="0.969631" fill="black"/>
<rect opacity="0.66" x="238.529" y="8.72656" width="1.93926" height="13.5748" rx="0.969631" fill="black"/>
<rect opacity="0.66" x="244.348" y="13.5762" width="1.93926" height="3.87853" rx="0.969631" fill="black"/>
<rect opacity="0.66" x="250.164" y="7.75781" width="1.93926" height="15.5141" rx="0.969631" fill="black"/>
<rect opacity="0.66" x="255.982" y="8.72656" width="1.93926" height="13.5748" rx="0.969631" fill="black"/>
<rect opacity="0.66" x="261.801" y="10.666" width="1.93926" height="9.69631" rx="0.969631" fill="black"/>
<rect opacity="0.66" x="267.619" y="10.666" width="1.93926" height="9.69631" rx="0.969631" fill="black"/>
<rect opacity="0.66" x="273.436" y="10.666" width="1.93926" height="9.69631" rx="0.969631" fill="black"/>
<rect opacity="0.66" x="279.254" y="8.72656" width="1.93926" height="13.5748" rx="0.969631" fill="black"/>
<rect opacity="0.66" x="285.072" y="10.666" width="1.93926" height="9.69631" rx="0.969631" fill="black"/>
<rect opacity="0.66" x="290.889" y="7.75781" width="1.93926" height="15.5141" rx="0.969631" fill="black"/>
<rect opacity="0.66" x="296.707" y="7.75781" width="1.93926" height="15.5141" rx="0.969631" fill="black"/>
<rect opacity="0.66" x="302.525" y="8.72656" width="1.93926" height="13.5748" rx="0.969631" fill="black"/>
<rect opacity="0.66" x="308.342" y="10.666" width="1.93926" height="9.69631" rx="0.969631" fill="black"/>
<rect opacity="0.66" x="314.16" y="10.666" width="1.93926" height="9.69631" rx="0.969631" fill="black"/>
<rect opacity="0.66" x="319.979" y="10.666" width="1.93926" height="9.69631" rx="0.969631" fill="black"/>
<rect opacity="0.66" x="325.797" y="8.72656" width="1.93926" height="13.5748" rx="0.969631" fill="black"/>
<rect opacity="0.66" x="331.613" y="10.666" width="1.93926" height="9.69631" rx="0.969631" fill="black"/>
<rect opacity="0.66" x="337.432" y="7.75781" width="1.93926" height="15.5141" rx="0.969631" fill="black"/>
<rect opacity="0.66" x="343.25" y="7.75781" width="1.93926" height="15.5141" rx="0.969631" fill="black"/>
<rect opacity="0.66" x="349.068" y="8.72656" width="1.93926" height="13.5748" rx="0.969631" fill="black"/>
<rect opacity="0.66" x="354.885" y="10.666" width="1.93926" height="9.69631" rx="0.969631" fill="black"/>
<rect opacity="0.66" x="360.703" y="10.666" width="1.93926" height="9.69631" rx="0.969631" fill="black"/>
<rect opacity="0.66" x="366.521" y="10.666" width="1.93926" height="9.69631" rx="0.969631" fill="black"/>
<rect opacity="0.66" x="372.34" y="8.72656" width="1.93926" height="13.5748" rx="0.969631" fill="black"/>
<rect opacity="0.66" x="378.156" y="10.666" width="1.93926" height="9.69631" rx="0.969631" fill="black"/>
<rect opacity="0.66" x="383.975" y="7.75781" width="1.93926" height="15.5141" rx="0.969631" fill="black"/>
<rect opacity="0.66" x="389.791" y="7.75781" width="1.93926" height="15.5141" rx="0.969631" fill="black"/>
<rect opacity="0.66" x="395.609" y="8.72656" width="1.93926" height="13.5748" rx="0.969631" fill="black"/>
<rect opacity="0.66" x="401.426" y="10.666" width="1.93926" height="9.69631" rx="0.969631" fill="black"/>
<rect opacity="0.66" x="407.244" y="10.666" width="1.93926" height="9.69631" rx="0.969631" fill="black"/>
<rect opacity="0.66" x="413.062" y="10.666" width="1.93926" height="9.69631" rx="0.969631" fill="black"/>
<rect opacity="0.66" x="418.881" y="8.72656" width="1.93926" height="13.5748" rx="0.969631" fill="black"/>
<rect opacity="0.66" x="424.697" y="10.666" width="1.93926" height="9.69631" rx="0.969631" fill="black"/>
<rect opacity="0.66" x="430.516" y="7.75781" width="1.93926" height="15.5141" rx="0.969631" fill="black"/>
</svg>
