<svg width="19" height="19" viewBox="0 0 19 19" fill="none" xmlns="http://www.w3.org/2000/svg">
<path d="M0.151966 9.04303C0.191879 9.07297 0.237296 9.09475 0.285626 9.10713C0.333956 9.11951 0.384251 9.12226 0.43364 9.1152C0.483029 9.10814 0.530545 9.09143 0.573475 9.06601C0.616404 9.04059 0.653907 9.00697 0.683841 8.96705C1.17927 8.30648 1.82169 7.77034 2.56023 7.40107C3.29876 7.0318 4.11313 6.83955 4.93884 6.83955C5.76455 6.83955 6.57892 7.0318 7.31746 7.40107C8.056 7.77034 8.69842 8.30648 9.19385 8.96705C9.22842 9.0151 9.27393 9.05424 9.32661 9.08123C9.37929 9.10823 9.43763 9.12231 9.49683 9.12231C9.55602 9.12231 9.61436 9.10823 9.66705 9.08123C9.71973 9.05424 9.76523 9.0151 9.7998 8.96705C10.2952 8.30648 10.9377 7.77034 11.6762 7.40107C12.4147 7.0318 13.2291 6.83955 14.0548 6.83955C14.8805 6.83955 15.6949 7.0318 16.4334 7.40107C17.172 7.77034 17.8144 8.30648 18.3098 8.96705C18.3397 9.00697 18.3772 9.04059 18.4202 9.06601C18.4631 9.09143 18.5106 9.10814 18.56 9.1152C18.6094 9.12226 18.6597 9.11951 18.708 9.10713C18.7564 9.09475 18.8018 9.07297 18.8417 9.04303C18.8816 9.0131 18.9152 8.9756 18.9406 8.93267C18.9661 8.88974 18.9828 8.84222 18.9898 8.79283C18.9969 8.74344 18.9941 8.69315 18.9818 8.64482C18.9694 8.59649 18.9476 8.55107 18.9177 8.51116C18.1471 7.47645 17.0653 6.71586 15.8309 6.34092C16.4684 5.95338 16.9617 5.36795 17.2355 4.67394C17.5092 3.97992 17.5485 3.2154 17.3473 2.49698C17.1461 1.77856 16.7154 1.14567 16.1209 0.694848C15.5265 0.244022 14.8009 0 14.0548 0C13.3087 0 12.5831 0.244022 11.9887 0.694848C11.3942 1.14567 10.9636 1.77856 10.7623 2.49698C10.5611 3.2154 10.6004 3.97992 10.8742 4.67394C11.1479 5.36795 11.6412 5.95338 12.2787 6.34092C11.2004 6.67003 10.2362 7.29529 9.49588 8.1455C8.75568 7.29509 7.79141 6.6698 6.71303 6.34092C7.35055 5.95338 7.84381 5.36795 8.1176 4.67394C8.39138 3.97992 8.43065 3.2154 8.22943 2.49698C8.0282 1.77856 7.59751 1.14567 7.00306 0.694848C6.40861 0.244022 5.68301 0 4.93694 0C4.19088 0 3.46528 0.244022 2.87083 0.694848C2.27638 1.14567 1.84569 1.77856 1.64446 2.49698C1.44324 3.2154 1.48251 3.97992 1.75629 4.67394C2.03007 5.36795 2.52334 5.95338 3.16086 6.34092C1.92731 6.71658 0.846323 7.47707 0.0759837 8.51116C0.0155286 8.59177 -0.0104296 8.69309 0.00381985 8.79283C0.0180693 8.89258 0.0713591 8.98258 0.151966 9.04303ZM11.3973 3.42035C11.3973 2.89438 11.5533 2.38021 11.8455 1.94288C12.1377 1.50555 12.5531 1.16469 13.039 0.963409C13.5249 0.762127 14.0597 0.709463 14.5755 0.812075C15.0914 0.914688 15.5653 1.16797 15.9372 1.53989C16.3091 1.91181 16.5624 2.38567 16.665 2.90153C16.7676 3.4174 16.7149 3.95211 16.5136 4.43805C16.3124 4.92399 15.9715 5.33933 15.5342 5.63154C15.0968 5.92376 14.5827 6.07973 14.0567 6.07973C13.3514 6.07973 12.675 5.79955 12.1762 5.30082C11.6775 4.80209 11.3973 4.12566 11.3973 3.42035ZM2.27947 3.42035C2.27947 2.89438 2.43544 2.38021 2.72765 1.94288C3.01987 1.50555 3.43521 1.16469 3.92115 0.963409C4.40708 0.762127 4.94179 0.709463 5.45766 0.812075C5.97353 0.914688 6.44739 1.16797 6.81931 1.53989C7.19123 1.91181 7.44451 2.38567 7.54712 2.90153C7.64973 3.4174 7.59707 3.95211 7.39579 4.43805C7.19451 4.92399 6.85365 5.33933 6.41631 5.63154C5.97898 5.92376 5.46482 6.07973 4.93884 6.07973C4.23353 6.07973 3.55711 5.79955 3.05838 5.30082C2.55965 4.80209 2.27947 4.12566 2.27947 3.42035ZM15.8328 16.2186C16.4703 15.8311 16.9636 15.2456 17.2374 14.5516C17.5111 13.8576 17.5504 13.0931 17.3492 12.3747C17.148 11.6562 16.7173 11.0234 16.1228 10.5725C15.5284 10.1217 14.8028 9.87769 14.0567 9.87769C13.3106 9.87769 12.585 10.1217 11.9906 10.5725C11.3961 11.0234 10.9655 11.6562 10.7642 12.3747C10.563 13.0931 10.6023 13.8576 10.8761 14.5516C11.1498 15.2456 11.6431 15.8311 12.2806 16.2186C11.2029 16.5464 10.2387 17.17 9.49778 18.0184C8.75697 17.1698 7.79276 16.5462 6.71493 16.2186C7.35245 15.8311 7.84571 15.2456 8.1195 14.5516C8.39328 13.8576 8.43255 13.0931 8.23132 12.3747C8.0301 11.6562 7.59941 11.0234 7.00496 10.5725C6.41051 10.1217 5.68491 9.87769 4.93884 9.87769C4.19278 9.87769 3.46718 10.1217 2.87273 10.5725C2.27828 11.0234 1.84759 11.6562 1.64636 12.3747C1.44514 13.0931 1.48441 13.8576 1.75819 14.5516C2.03197 15.2456 2.52524 15.8311 3.16276 16.2186C1.92852 16.5939 0.846816 17.3544 0.0759837 18.3888C0.0155286 18.4695 -0.0104296 18.5708 0.00381985 18.6705C0.0180693 18.7703 0.0713591 18.8603 0.151966 18.9207C0.232573 18.9812 0.333894 19.0071 0.43364 18.9929C0.533386 18.9786 0.623386 18.9253 0.683841 18.8447C1.17927 18.1842 1.82169 17.648 2.56023 17.2788C3.29876 16.9095 4.11313 16.7172 4.93884 16.7172C5.76455 16.7172 6.57892 16.9095 7.31746 17.2788C8.056 17.648 8.69842 18.1842 9.19385 18.8447C9.22842 18.8928 9.27393 18.9319 9.32661 18.9589C9.37929 18.9859 9.43763 19 9.49683 19C9.55602 19 9.61436 18.9859 9.66705 18.9589C9.71973 18.9319 9.76523 18.8928 9.7998 18.8447C10.2952 18.1842 10.9377 17.648 11.6762 17.2788C12.4147 16.9095 13.2291 16.7172 14.0548 16.7172C14.8805 16.7172 15.6949 16.9095 16.4334 17.2788C17.172 17.648 17.8144 18.1842 18.3098 18.8447C18.3703 18.9253 18.4603 18.9786 18.56 18.9929C18.6598 19.0071 18.7611 18.9812 18.8417 18.9207C18.9223 18.8603 18.9756 18.7703 18.9898 18.6705C19.0041 18.5708 18.9781 18.4695 18.9177 18.3888C18.1476 17.3545 17.0665 16.5939 15.8328 16.2186ZM2.27947 13.298C2.27947 12.7721 2.43544 12.2579 2.72765 11.8206C3.01987 11.3832 3.43521 11.0424 3.92115 10.8411C4.40708 10.6398 4.94179 10.5871 5.45766 10.6898C5.97353 10.7924 6.44739 11.0457 6.81931 11.4176C7.19123 11.7895 7.44451 12.2634 7.54712 12.7792C7.64973 13.2951 7.59707 13.8298 7.39579 14.3157C7.19451 14.8017 6.85365 15.217 6.41631 15.5092C5.97898 15.8014 5.46482 15.9574 4.93884 15.9574C4.23353 15.9574 3.55711 15.6772 3.05838 15.1785C2.55965 14.6798 2.27947 14.0033 2.27947 13.298ZM11.3973 13.298C11.3973 12.7721 11.5533 12.2579 11.8455 11.8206C12.1377 11.3832 12.5531 11.0424 13.039 10.8411C13.5249 10.6398 14.0597 10.5871 14.5755 10.6898C15.0914 10.7924 15.5653 11.0457 15.9372 11.4176C16.3091 11.7895 16.5624 12.2634 16.665 12.7792C16.7676 13.2951 16.7149 13.8298 16.5136 14.3157C16.3124 14.8017 15.9715 15.217 15.5342 15.5092C15.0968 15.8014 14.5827 15.9574 14.0567 15.9574C13.3514 15.9574 12.675 15.6772 12.1762 15.1785C11.6775 14.6798 11.3973 14.0033 11.3973 13.298Z" fill="white"/>
</svg>
