<svg width="27" height="25" viewBox="0 0 27 25" fill="none" xmlns="http://www.w3.org/2000/svg">
<mask id="mask0_0_20" style="mask-type:alpha" maskUnits="userSpaceOnUse" x="-3" y="-5" width="33" height="34">
<rect x="-2.7003" y="-4.04995" width="32.3996" height="32.3996" fill="#D9D9D9"/>
</mask>
<g mask="url(#mask0_0_20)">
<path d="M7.25616 24.3335C6.44617 24.311 5.67556 24.1028 4.94431 23.7091C4.21307 23.3153 3.52121 22.736 2.86871 21.971C1.96873 20.891 1.26561 19.6029 0.759366 18.1067C0.253122 16.6104 0 15.0748 0 13.4998C0 11.6324 0.354371 9.87738 1.06311 8.2349C1.77185 6.59242 2.73372 5.16369 3.9487 3.9487C5.16369 2.73372 6.59242 1.77185 8.2349 1.06311C9.87738 0.354371 11.6324 0 13.4998 0C15.3673 0 17.1223 0.359996 18.7648 1.07999C20.4073 1.79998 21.836 2.77872 23.051 4.0162C24.266 5.25369 25.2278 6.70492 25.9366 8.3699C26.6453 10.0349 26.9997 11.8236 26.9997 13.7361C26.9997 15.4686 26.7184 17.0885 26.1559 18.596C25.5934 20.1035 24.7947 21.3747 23.7597 22.4097C23.1297 23.0397 22.466 23.5178 21.7685 23.8441C21.071 24.1703 20.3623 24.3335 19.6423 24.3335C19.2373 24.3335 18.8323 24.2828 18.4273 24.1816C18.0223 24.0803 17.6173 23.9285 17.2123 23.726L15.3223 22.781C15.0523 22.646 14.7654 22.5447 14.4617 22.4772C14.158 22.4097 13.8373 22.376 13.4998 22.376C13.1623 22.376 12.8417 22.4097 12.538 22.4772C12.2342 22.5447 11.9474 22.646 11.6774 22.781L9.78738 23.726C9.35989 23.951 8.93802 24.1141 8.52177 24.2153C8.10553 24.3166 7.68366 24.356 7.25616 24.3335ZM13.4998 16.1998C14.2423 16.1998 14.8779 15.9354 15.4067 15.4067C15.9354 14.8779 16.1998 14.2423 16.1998 13.4998C16.1998 13.3198 16.1829 13.1398 16.1492 12.9598C16.1154 12.7798 16.0648 12.5998 15.9973 12.4199L17.6848 10.1586C17.9323 10.4736 18.1348 10.7942 18.2923 11.1205C18.4498 11.4467 18.5848 11.7899 18.6973 12.1499C18.8098 12.5098 18.9785 12.8248 19.2035 13.0948C19.4285 13.3648 19.721 13.4998 20.081 13.4998C20.531 13.4998 20.8854 13.303 21.1441 12.9092C21.4029 12.5155 21.476 12.0824 21.3635 11.6099C20.9135 9.78738 19.9573 8.29677 18.4948 7.13804C17.0323 5.9793 15.3673 5.39993 13.4998 5.39993C11.6099 5.39993 9.93925 5.9793 8.48802 7.13804C7.03679 8.29677 6.08618 9.78738 5.63618 11.6099C5.52368 12.0824 5.59681 12.5155 5.85555 12.9092C6.1143 13.303 6.46867 13.4998 6.91867 13.4998C7.27866 13.4998 7.57116 13.3648 7.79615 13.0948C8.02115 12.8248 8.1899 12.5098 8.3024 12.1499C8.61739 10.9574 9.25301 9.98425 10.2093 9.23051C11.1655 8.47677 12.2623 8.0999 13.4998 8.0999C13.8598 8.0999 14.2142 8.13365 14.5629 8.20115C14.9117 8.26865 15.2436 8.3699 15.5586 8.5049L13.8373 10.8336C13.7923 10.8336 13.7361 10.828 13.6686 10.8167C13.6011 10.8055 13.5448 10.7999 13.4998 10.7999C12.7573 10.7999 12.1217 11.0642 11.593 11.593C11.0642 12.1217 10.7999 12.7573 10.7999 13.4998C10.7999 14.2423 11.0642 14.8779 11.593 15.4067C12.1217 15.9354 12.7573 16.1998 13.4998 16.1998Z" fill="#1C1B1F"/>
</g>
</svg>
