<svg width="21" height="21" viewBox="0 0 21 21" fill="none" xmlns="http://www.w3.org/2000/svg">
<path fill-rule="evenodd" clip-rule="evenodd" d="M16.6249 9.62435H6.24297L9.42186 5.80933C9.73161 5.43833 9.68086 4.88621 9.30986 4.57733C8.93798 4.26758 8.38673 4.31833 8.07785 4.68933L3.70283 9.93935C3.66871 9.98048 3.65121 10.0286 3.62583 10.0741C3.60483 10.1109 3.57946 10.1424 3.56371 10.1826C3.52433 10.2832 3.50071 10.3891 3.50071 10.4959C3.50071 10.4967 3.49983 10.4985 3.49983 10.4994C3.49983 10.5002 3.50071 10.502 3.50071 10.5029C3.50071 10.6096 3.52433 10.7155 3.56371 10.8161C3.57946 10.8564 3.60483 10.8879 3.62583 10.9246C3.65121 10.9701 3.66871 11.0182 3.70283 11.0594L8.07785 16.3094C8.2511 16.5168 8.49961 16.6244 8.74986 16.6244C8.94761 16.6244 9.14623 16.5579 9.30986 16.4214C9.68086 16.1125 9.73161 15.5604 9.42186 15.1894L6.24297 11.3744H16.6249C17.1079 11.3744 17.4999 10.9824 17.4999 10.4994C17.4999 10.0164 17.1079 9.62435 16.6249 9.62435Z" fill="#1F2732"/>
</svg>
