<svg width="35" height="35" viewBox="0 0 35 35" fill="none" xmlns="http://www.w3.org/2000/svg">
<path d="M34.4522 25.6376L29.1726 13.2904C28.2111 11.0301 26.7774 9.74816 25.1412 9.66382C23.5219 9.57948 21.9532 10.7096 20.7556 12.8687L17.5508 18.6206C16.8761 19.8351 15.9146 20.5604 14.8688 20.6447C13.8061 20.7459 12.7434 20.1893 11.8832 19.0929L11.5121 18.6206C10.3145 17.1194 8.83011 16.3941 7.31202 16.5459C5.79392 16.6977 4.49511 17.7435 3.63486 19.4471L0.716747 25.2665C-0.32905 27.375 -0.227844 29.8208 1.0035 31.8112C2.23484 33.8015 4.37704 34.9992 6.72165 34.9992H28.2449C30.5052 34.9992 32.6136 33.869 33.8618 31.9798C35.1438 30.0907 35.3462 27.7123 34.4522 25.6376Z" fill="white" fill-opacity="0.2"/>
<path d="M9.06827 11.4026C12.217 11.4026 14.7695 8.85003 14.7695 5.70128C14.7695 2.55256 12.217 0 9.06827 0C5.91954 0 3.36698 2.55256 3.36698 5.70128C3.36698 8.85003 5.91954 11.4026 9.06827 11.4026Z" fill="white" fill-opacity="0.2"/>
</svg>
