<svg width="10" height="18" viewBox="0 0 10 18" fill="none" xmlns="http://www.w3.org/2000/svg">
<mask id="mask0_2252_1879" style="mask-type:alpha" maskUnits="userSpaceOnUse" x="-8" y="-4" width="25" height="26">
<rect width="24" height="24" transform="matrix(-1.00193 0 0 1.00193 16.9538 -3.00579)" fill="#D9D9D9"/>
</mask>
<g mask="url(#mask0_2252_1879)">
<path d="M7.84588 9.00386L0.298649 16.3421C0.0995484 16.5357 0.00256938 16.7636 0.00771291 17.0259C0.0128564 17.2881 0.114978 17.5161 0.314079 17.7097C0.513162 17.9032 0.747579 18 1.01733 18C1.28709 18 1.5215 17.9032 1.72059 17.7097L9.40654 10.2515C9.58769 10.0754 9.72193 9.87812 9.80927 9.65956C9.8966 9.44099 9.94027 9.22242 9.94027 9.00386C9.94027 8.78531 9.8966 8.56674 9.80927 8.34817C9.72191 8.12961 9.58767 7.93228 9.40654 7.75618L1.72059 0.283091C1.5215 0.0895045 1.28451 -0.00479688 1.00962 0.000187684C0.734737 0.00518848 0.49775 0.104482 0.298649 0.298068C0.0995484 0.491654 -1.91103e-06 0.71958 -1.91103e-06 0.981846C-1.91103e-06 1.24413 0.0995484 1.47206 0.298649 1.66565L7.84588 9.00386Z" fill="#1C1B1F"/>
</g>
</svg>
