<svg width="35" height="35" viewBox="0 0 35 35" fill="none" xmlns="http://www.w3.org/2000/svg">
<path fill-rule="evenodd" clip-rule="evenodd" d="M6.86395 5.10411C5.89208 5.10411 5.10423 5.89196 5.10423 6.86382V28.1359C5.10423 29.1078 5.89209 29.8956 6.86395 29.8956H28.1361C29.108 29.8956 29.8958 29.1078 29.8958 28.1359V6.86382C29.8958 5.89196 29.108 5.10411 28.1361 5.10411H6.86395ZM10.6688 12.8031C11.8566 12.8031 12.8195 11.8403 12.8195 10.6525C12.8195 9.4647 11.8566 8.50182 10.6688 8.50182C9.48103 8.50182 8.51814 9.4647 8.51814 10.6525C8.51814 11.8403 9.48103 12.8031 10.6688 12.8031ZM14.7891 14.3926H18.3535V16.0254C18.3535 16.0254 19.3207 14.0909 21.9524 14.0909C24.3 14.0909 26.2447 15.2474 26.2447 18.7725V26.2058H22.551V19.6732C22.551 17.5937 21.4409 17.365 20.5949 17.365C18.8393 17.365 18.5387 18.8794 18.5387 19.9444V26.2058H14.7891V14.3926ZM12.5436 14.3926H8.79402V26.2058H12.5436V14.3926Z" fill="#352474"/>
</svg>
