<svg width="243" height="35" viewBox="0 0 243 35" fill="none" xmlns="http://www.w3.org/2000/svg">
<g clip-path="url(#clip0_1_973)">
<path d="M8.98625 18.5409L22.6817 4.86003C23.607 3.93972 24.8589 3.42311 26.1639 3.42311C27.4689 3.42311 28.7209 3.93972 29.6461 4.86003L30.7104 5.92437L32.844 3.79083L31.7796 2.72163C30.2872 1.2324 28.265 0.396028 26.1566 0.396028C24.0483 0.396028 22.026 1.2324 20.5336 2.72163L6.84785 16.4074L8.98625 18.5409Z" fill="#B9BEC7"/>
<path d="M27.2695 9.36522L25.136 7.23168L11.4356 20.932C10.5101 21.8568 9.25519 22.3761 7.94684 22.3757C6.63849 22.3752 5.3839 21.8551 4.45908 20.9296C3.53425 20.0041 3.01495 18.7492 3.01541 17.4408C3.01586 16.1325 3.53604 14.8779 4.46151 13.9531L16.281 2.13354L14.1475 0L2.32797 11.8195C1.57553 12.5545 0.976411 13.4315 0.565305 14.3997C0.154199 15.3678 -0.0607201 16.4079 -0.0670023 17.4598C-0.0732845 18.5116 0.129195 19.5542 0.528707 20.5272C0.928219 21.5002 1.51682 22.3843 2.26042 23.1282C3.00402 23.8721 3.88784 24.4611 4.86068 24.8611C5.83352 25.261 6.87605 25.4639 7.92787 25.4581C8.97969 25.4523 10.0199 25.2378 10.9883 24.8271C11.9566 24.4164 12.8338 23.8177 13.5691 23.0656L27.2695 9.36522ZM40.9067 11.8195C39.4136 10.3315 37.3916 9.49592 35.2836 9.49592C33.1757 9.49592 31.1537 10.3315 29.6606 11.8195L15.9603 25.5199L18.0938 27.6534L31.7942 13.9531C32.4843 13.2643 33.3631 12.7955 34.3195 12.6059C35.2759 12.4163 36.2671 12.5144 37.1678 12.8877C38.0685 13.2611 38.8384 13.8931 39.3802 14.7038C39.9219 15.5144 40.2113 16.4675 40.2117 17.4425C40.2142 18.0921 40.0864 18.7356 39.836 19.3349C39.5856 19.9343 39.2176 20.4773 38.7537 20.932L26.9487 32.7515L29.0871 34.8851L40.9067 23.0656C42.3959 21.5731 43.2323 19.5509 43.2323 17.4425C43.2323 15.3342 42.3959 13.3119 40.9067 11.8195Z" fill="#B9BEC7"/>
<path d="M34.2486 16.3442L20.5483 30.0396C19.6218 30.9632 18.367 31.4818 17.0588 31.4818C15.7506 31.4818 14.4958 30.9632 13.5693 30.0396L12.505 28.9704L10.3714 31.104L11.4358 32.1732C12.9288 33.6612 14.9509 34.4968 17.0588 34.4968C19.1668 34.4968 21.1888 33.6612 22.6818 32.1732L36.3822 18.468L34.2486 16.3442Z" fill="#B9BEC7"/>
<path d="M55.7443 21.1264C55.8844 21.939 56.3272 22.6684 56.9836 23.1676C57.7364 23.6885 58.6401 23.9464 59.5545 23.9015C60.4249 23.957 61.2865 23.7002 61.9845 23.1773C62.2627 22.9459 62.4844 22.6539 62.6326 22.3238C62.7809 21.9936 62.8518 21.6339 62.8399 21.2722C62.8496 20.9339 62.7709 20.5988 62.6114 20.3002C62.4517 20.0292 62.2323 19.7982 61.9699 19.6247C61.657 19.4169 61.3168 19.2533 60.959 19.1387L59.608 18.7304L58.3201 18.3805C57.6061 18.1913 56.9113 17.9359 56.2448 17.6175C55.6727 17.3469 55.1437 16.9932 54.6751 16.5677C54.2571 16.1797 53.9259 15.7077 53.7031 15.1826C53.4653 14.6051 53.3495 13.9846 53.3629 13.3601C53.356 12.6683 53.5055 11.9838 53.8003 11.3578C54.0844 10.7486 54.5052 10.2131 55.0298 9.7929C55.607 9.33097 56.2667 8.98297 56.9738 8.76744C57.8002 8.5056 58.6635 8.37923 59.5302 8.39322C61.3154 8.39322 62.7297 8.81442 63.773 9.65682C64.2901 10.0732 64.7189 10.5886 65.0343 11.1727C65.3497 11.7569 65.5455 12.3981 65.6101 13.0588L62.6941 13.297C62.5498 12.6279 62.1747 12.0309 61.6346 11.6105C60.9798 11.1728 60.1998 10.9612 59.4136 11.0079C58.6716 10.9643 57.9377 11.1809 57.3383 11.6203C57.0989 11.8068 56.9066 12.0469 56.7766 12.3212C56.6466 12.5954 56.5827 12.8963 56.5899 13.1998C56.5779 13.5232 56.6535 13.8439 56.8086 14.128C56.9649 14.3903 57.1794 14.6131 57.4355 14.7793C57.7477 14.9823 58.084 15.1456 58.4367 15.2653C58.8304 15.4111 59.2775 15.5666 59.7732 15.727L61.0076 16.1109C61.7755 16.3539 62.4705 16.6066 63.0926 16.8691C63.6647 17.1124 64.1971 17.44 64.6721 17.8411C65.1002 18.2035 65.4422 18.6567 65.6732 19.1678C65.9233 19.771 66.0425 20.4203 66.0232 21.073C66.0313 21.8359 65.865 22.5905 65.5372 23.2794C65.2209 23.9411 64.759 24.5226 64.1861 24.9804C63.5704 25.4672 62.8702 25.8363 62.1206 26.069C61.2665 26.3347 60.376 26.4642 59.4816 26.453C57.8999 26.5119 56.3395 26.0734 55.0201 25.1991C54.4042 24.7534 53.8884 24.1836 53.5059 23.5266C53.1234 22.8695 52.8826 22.1397 52.7991 21.384L55.7443 21.1264ZM78.319 8.44182C79.5415 8.426 80.7552 8.65058 81.8911 9.10278C82.9285 9.5183 83.8648 10.1514 84.637 10.9593C85.4117 11.7831 86.0118 12.7552 86.4011 13.817C86.8286 14.9841 87.041 16.2191 87.0281 17.462C87.0455 18.7277 86.8195 19.9849 86.3623 21.1653C85.936 22.2381 85.2924 23.2111 84.4717 24.023L86.7851 26.73V27.5708H83.8691L82.2507 25.5928C81.6644 25.8733 81.0503 26.0916 80.4185 26.244C79.7365 26.3898 79.0407 26.4615 78.3433 26.4578C77.1068 26.4653 75.8811 26.2274 74.7371 25.758C73.7056 25.3398 72.7758 24.7051 72.0107 23.8966C71.2453 23.0765 70.655 22.1092 70.2757 21.0535C69.8565 19.8979 69.6475 18.6766 69.6584 17.4474C69.6463 16.2102 69.8553 14.9807 70.2757 13.817C70.6574 12.7577 71.2529 11.7883 72.0253 10.969C72.7954 10.1609 73.7279 9.52486 74.7614 9.10278C75.8907 8.64521 77.1007 8.4204 78.319 8.44182ZM78.2947 11.0468C77.4923 11.0344 76.6971 11.2004 75.9667 11.5328C75.2956 11.8428 74.7027 12.2995 74.2317 12.8693C73.7419 13.4667 73.3722 14.1532 73.1431 14.891C72.8895 15.7125 72.7649 16.5683 72.7737 17.428C72.7652 18.2951 72.8948 19.158 73.1576 19.9843C73.393 20.7288 73.7656 21.4228 74.256 22.0304C74.7262 22.6071 75.3189 23.0719 75.991 23.3912C76.7207 23.7259 77.5163 23.892 78.319 23.8772C79.1209 23.885 79.9151 23.7192 80.6469 23.3912C81.3167 23.0878 81.9096 22.6377 82.3819 22.0741C82.8781 21.4758 83.2513 20.7854 83.4803 20.0426C83.7461 19.1969 83.8774 18.3145 83.8691 17.428C83.8765 16.5542 83.7453 15.6848 83.4803 14.8522C83.248 14.1137 82.875 13.4272 82.3819 12.8304C81.9047 12.2668 81.3089 11.8154 80.6372 11.5085C79.8994 11.1854 79.0998 11.0278 78.2947 11.0468ZM98.4831 23.9987C99.0234 24.0319 99.5644 23.9465 100.068 23.7483C100.572 23.5502 101.026 23.2442 101.399 22.8517C102.089 22.0903 102.434 20.9207 102.434 19.3428V8.77716H105.462V19.44C105.486 20.5324 105.322 21.6207 104.976 22.6573C104.697 23.4876 104.226 24.2403 103.601 24.854C102.981 25.441 102.229 25.871 101.409 26.1079C99.5006 26.6356 97.485 26.6356 95.5768 26.1079C94.7595 25.8708 94.0111 25.4408 93.3947 24.854C92.7713 24.239 92.3003 23.4867 92.0193 22.6573C91.674 21.6207 91.5096 20.5324 91.5333 19.44V8.77716H94.5708V19.3428C94.5708 20.9174 94.9175 22.0871 95.6108 22.8517C95.9784 23.2389 96.4255 23.5419 96.9213 23.7399C97.4171 23.9378 97.9499 24.0261 98.4831 23.9987ZM108.495 25.272L114.643 8.7966H119.201L125.281 25.272V26.0982H122.292L120.552 21.1507H113.053L111.294 26.0982H108.475L108.495 25.272ZM113.967 18.5652H119.687L118.744 15.8144C118.375 14.7404 118.079 13.8704 117.85 13.1852C117.622 12.4999 117.427 11.9167 117.248 11.4016H116.504L116.212 12.2229C116.115 12.4951 116.008 12.8012 115.887 13.1366C115.765 13.4719 115.634 13.8607 115.488 14.2981C115.342 14.7355 115.167 15.2361 114.959 15.8144L113.967 18.5652ZM142.262 26.0982H139.346L134.063 19.2942H132.119V26.0982H129.125V8.77716H134.748C135.591 8.77568 136.432 8.83578 137.266 8.95698C138.041 9.06931 138.78 9.35505 139.429 9.7929C140.796 10.6936 141.48 12.0512 141.48 13.8656C141.493 14.5688 141.373 15.2681 141.125 15.9262C140.915 16.4803 140.599 16.9886 140.196 17.4231C139.812 17.8314 139.36 18.1702 138.86 18.4243C138.359 18.6805 137.829 18.8747 137.28 19.0026L142.262 25.272V26.0982ZM132.109 16.6892H134.739C135.692 16.74 136.64 16.521 137.475 16.0574C137.811 15.8328 138.081 15.5224 138.257 15.1585C138.433 14.7945 138.509 14.3901 138.476 13.9871C138.516 13.5871 138.442 13.1841 138.262 12.8246C138.082 12.465 137.804 12.1638 137.46 11.9556C136.617 11.5361 135.68 11.3388 134.739 11.3821H132.109V16.6892ZM146.121 8.77716H157.338V11.4307H149.076V15.9651H156.745V18.5701H149.09V23.4301H157.508V26.0982H146.121V8.77716ZM164.215 21.1264C164.355 21.939 164.798 22.6684 165.454 23.1676C166.207 23.6878 167.111 23.9457 168.025 23.9015C168.895 23.957 169.757 23.7002 170.455 23.1773C170.733 22.9459 170.955 22.6539 171.103 22.3238C171.251 21.9936 171.322 21.6339 171.31 21.2722C171.32 20.9339 171.241 20.5988 171.082 20.3002C170.922 20.0292 170.703 19.7982 170.44 19.6247C170.127 19.4169 169.787 19.2533 169.429 19.1387L168.078 18.7304L166.776 18.3708C166.062 18.1816 165.367 17.9262 164.701 17.6078C164.128 17.3372 163.599 16.9835 163.131 16.558C162.713 16.1699 162.382 15.6979 162.159 15.1729C161.919 14.5612 161.804 13.9076 161.82 13.2507C161.837 12.5937 161.985 11.9468 162.256 11.3481C162.542 10.7399 162.962 10.2048 163.486 9.78318C164.063 9.32124 164.722 8.97325 165.43 8.75772C166.256 8.49588 167.119 8.36951 167.986 8.3835C169.771 8.3835 171.187 8.8047 172.234 9.6471C172.75 10.0637 173.178 10.5792 173.493 11.1634C173.807 11.7476 174.002 12.3887 174.066 13.0491L171.15 13.2872C171.008 12.6196 170.637 12.0228 170.1 11.6008C169.446 11.1624 168.665 10.9507 167.879 10.9982C167.137 10.9546 166.403 11.1711 165.804 11.6105C165.565 11.7976 165.374 12.0379 165.245 12.3121C165.116 12.5864 165.052 12.887 165.06 13.19C165.047 13.5131 165.121 13.8337 165.274 14.1183C165.43 14.3805 165.645 14.6034 165.901 14.7695C166.213 14.9726 166.55 15.1359 166.902 15.2555C167.296 15.4013 167.743 15.5569 168.244 15.7172L169.473 16.1012C170.244 16.3442 170.939 16.5969 171.558 16.8593C172.13 17.1027 172.663 17.4303 173.138 17.8313C173.566 18.1938 173.908 18.647 174.139 19.1581C174.389 19.7613 174.508 20.4106 174.489 21.0632C174.497 21.8261 174.331 22.5808 174.003 23.2697C173.688 23.9324 173.226 24.5142 172.652 24.9707C172.035 25.4536 171.335 25.8193 170.586 26.0496C169.73 26.3152 168.838 26.4448 167.942 26.4335C166.361 26.4918 164.8 26.0533 163.481 25.1797C162.869 24.7351 162.356 24.1681 161.976 23.5146C161.595 22.8611 161.354 22.1355 161.269 21.384L164.215 21.1264ZM178.804 8.77716H185.122C186.123 8.75132 187.122 8.8909 188.077 9.19026C188.803 9.41407 189.468 9.80147 190.021 10.3226C190.507 10.7953 190.871 11.3791 191.081 12.0236C191.303 12.7043 191.413 13.4168 191.406 14.1329C191.426 14.9398 191.274 15.7418 190.959 16.4851C190.675 17.1351 190.232 17.7033 189.671 18.1375C189.057 18.5919 188.361 18.9221 187.62 19.1095C186.73 19.338 185.813 19.4475 184.894 19.4351H181.832V26.0982H178.814L178.804 8.77716ZM181.822 16.835H184.714C185.203 16.8387 185.691 16.7947 186.172 16.7038C186.581 16.6273 186.973 16.4774 187.329 16.2616C187.656 16.0567 187.923 15.7682 188.102 15.4256C188.297 15.0235 188.392 14.5799 188.379 14.1329C188.393 13.6749 188.298 13.2201 188.102 12.8061C187.928 12.4592 187.665 12.1654 187.339 11.9556C186.989 11.7382 186.601 11.5882 186.196 11.5133C185.716 11.4217 185.228 11.3778 184.738 11.3821H181.798L181.822 16.835ZM192.242 25.272L198.395 8.7966H202.954L209.029 25.272V26.0982H206.064L204.329 21.1507H196.801L195.066 26.0982H192.242V25.272ZM197.719 18.5652H203.435L202.492 15.8144C202.123 14.7404 201.826 13.8704 201.603 13.1852L201 11.4016H200.232L199.94 12.2229C199.843 12.4951 199.736 12.8012 199.615 13.1366C199.493 13.4719 199.362 13.8607 199.216 14.2981C199.071 14.7355 198.896 15.2361 198.687 15.8144L197.719 18.5652ZM227.409 21.5152C227.135 22.1929 226.775 22.833 226.34 23.4203C225.888 24.0225 225.346 24.5505 224.731 24.9853C224.065 25.453 223.329 25.8108 222.549 26.0447C221.654 26.3129 220.723 26.4439 219.789 26.4335C218.582 26.4519 217.384 26.2219 216.27 25.758C215.25 25.3323 214.331 24.6964 213.573 23.8918C212.811 23.0687 212.224 22.0999 211.847 21.0438C211.435 19.8951 211.23 18.6824 211.24 17.462C211.229 16.2415 211.435 15.0288 211.847 13.8802C212.225 12.8193 212.815 11.8469 213.583 11.0225C214.345 10.2093 215.269 9.56375 216.294 9.12708C217.412 8.65706 218.615 8.42374 219.828 8.44182C221.514 8.38186 223.178 8.84533 224.59 9.7686C225.846 10.624 226.797 11.8561 227.307 13.2872L224.24 13.8899C223.859 13.0481 223.254 12.3271 222.491 11.8049C221.685 11.283 220.739 11.0186 219.779 11.0468C218.992 11.0296 218.211 11.1959 217.5 11.5328C216.844 11.8544 216.268 12.3175 215.813 12.8887C215.336 13.4972 214.979 14.1918 214.763 14.9348C214.515 15.7523 214.392 16.6028 214.399 17.4571C214.392 18.317 214.518 19.1729 214.773 19.994C215.002 20.7296 215.37 21.4143 215.857 22.0109C216.332 22.5712 216.925 23.0207 217.592 23.328C218.319 23.6613 219.111 23.8274 219.91 23.814C220.904 23.8539 221.882 23.5653 222.695 22.9927C223.411 22.468 223.994 21.782 224.396 20.9903L227.409 21.5152ZM231.487 8.77716H242.704V11.4307H234.442V15.9651H242.125V18.5701H234.456V23.4301H242.874V26.0982H231.487V8.77716Z" fill="#B9BEC7"/>
</g>
<defs>
<clipPath id="clip0_1_973">
<rect width="242.98" height="34.9892" fill="white"/>
</clipPath>
</defs>
</svg>
