<svg width="35" height="35" viewBox="0 0 35 35" fill="none" xmlns="http://www.w3.org/2000/svg">
<path fill-rule="evenodd" clip-rule="evenodd" d="M4.37509 17.4999C4.37509 23.9895 9.11466 29.3853 15.3126 30.4791L15.3857 30.4206C15.3613 30.4158 15.3369 30.411 15.3125 30.4062V21.1458H12.0312V17.4999H15.3125V14.5833C15.3125 11.302 17.427 9.47914 20.4166 9.47914C21.3645 9.47914 22.3854 9.62497 23.3333 9.7708V13.125H21.6562C20.052 13.125 19.6874 13.927 19.6874 14.9479V17.4999H23.1874L22.6041 21.1458H19.6874V30.4062C19.6631 30.411 19.6387 30.4158 19.6144 30.4205L19.6875 30.4791C25.8854 29.3853 30.625 23.9895 30.625 17.4999C30.625 10.2812 24.7188 4.37497 17.5001 4.37497C10.2813 4.37497 4.37509 10.2812 4.37509 17.4999Z" fill="#352474"/>
</svg>
