<svg width="37" height="40" viewBox="0 0 37 40" fill="none" xmlns="http://www.w3.org/2000/svg">
<g clip-path="url(#clip0_1_996)">
<path d="M18.3673 17.5C16.7435 17.5 15.1863 16.8415 14.0381 15.6694C12.8899 14.4973 12.2449 12.9076 12.2449 11.25C12.2449 9.5924 12.8899 8.00269 14.0381 6.83058C15.1863 5.65848 16.7435 5 18.3673 5C19.9911 5 21.5484 5.65848 22.6965 6.83058C23.8447 8.00269 24.4898 9.5924 24.4898 11.25C24.4898 12.9076 23.8447 14.4973 22.6965 15.6694C21.5484 16.8415 19.9911 17.5 18.3673 17.5ZM18.3673 7.5C16.3347 7.5 14.6939 9.175 14.6939 11.25C14.6939 13.325 16.3347 15 18.3673 15C20.4 15 22.0408 13.325 22.0408 11.25C22.0408 9.175 20.4 7.5 18.3673 7.5Z" fill="white"/>
<path d="M33.0612 27.5C32.3755 27.5 31.8367 26.95 31.8367 26.25C31.8367 25.55 32.3755 25 33.0612 25C33.7469 25 34.2857 24.45 34.2857 23.75C34.2857 22.0924 33.6407 20.5027 32.4925 19.3306C31.3443 18.1585 29.787 17.5 28.1633 17.5H25.7143C25.0286 17.5 24.4898 16.95 24.4898 16.25C24.4898 15.55 25.0286 15 25.7143 15C27.7469 15 29.3878 13.325 29.3878 11.25C29.3878 9.175 27.7469 7.5 25.7143 7.5C25.0286 7.5 24.4898 6.95 24.4898 6.25C24.4898 5.55 25.0286 5 25.7143 5C27.3381 5 28.8953 5.65848 30.0435 6.83058C31.1917 8.00269 31.8367 9.5924 31.8367 11.25C31.8367 12.8 31.298 14.2 30.3673 15.3C34.0163 16.3 36.7347 19.7 36.7347 23.75C36.7347 25.825 35.0939 27.5 33.0612 27.5ZM3.67347 27.5C1.64082 27.5 0 25.825 0 23.75C0 19.7 2.69388 16.3 6.36735 15.3C5.46122 14.2 4.89796 12.8 4.89796 11.25C4.89796 9.5924 5.543 8.00269 6.69118 6.83058C7.83937 5.65848 9.39663 5 11.0204 5C11.7061 5 12.2449 5.55 12.2449 6.25C12.2449 6.95 11.7061 7.5 11.0204 7.5C8.98775 7.5 7.34694 9.175 7.34694 11.25C7.34694 13.325 8.98775 15 11.0204 15C11.7061 15 12.2449 15.55 12.2449 16.25C12.2449 16.95 11.7061 17.5 11.0204 17.5H8.57143C6.94765 17.5 5.39039 18.1585 4.2422 19.3306C3.09402 20.5027 2.44898 22.0924 2.44898 23.75C2.44898 24.45 2.98776 25 3.67347 25C4.35918 25 4.89796 25.55 4.89796 26.25C4.89796 26.95 4.35918 27.5 3.67347 27.5ZM25.7143 35H11.0204C8.98775 35 7.34694 33.325 7.34694 31.25V28.75C7.34694 23.925 11.1918 20 15.9184 20H20.8163C25.5429 20 29.3878 23.925 29.3878 28.75V31.25C29.3878 33.325 27.7469 35 25.7143 35ZM15.9184 22.5C14.2946 22.5 12.7373 23.1585 11.5891 24.3306C10.441 25.5027 9.79592 27.0924 9.79592 28.75V31.25C9.79592 31.95 10.3347 32.5 11.0204 32.5H25.7143C26.4 32.5 26.9388 31.95 26.9388 31.25V28.75C26.9388 27.0924 26.2937 25.5027 25.1456 24.3306C23.9974 23.1585 22.4401 22.5 20.8163 22.5H15.9184Z" fill="white"/>
</g>
<defs>
<clipPath id="clip0_1_996">
<rect width="36.7347" height="40" fill="white"/>
</clipPath>
</defs>
</svg>
