<svg width="40" height="37" viewBox="0 0 40 37" fill="none" xmlns="http://www.w3.org/2000/svg">
<path d="M0.439768 4.20762C3.66304 2.83196 6.89635 1.4563 10.1297 0.0806312C11.1639 -0.361188 12.0676 1.13497 11.0233 1.60692C9.20586 2.43031 7.38838 3.24365 5.58094 4.06704C21.9282 7.943 37.4923 18.5969 39.9022 36.4303C39.9725 36.9926 39.1491 37.2537 39.0287 36.6713C35.3636 18.7374 19.8597 8.184 2.61874 5.21176C2.59866 5.21176 2.57858 5.23184 2.55849 5.24188C4.14503 6.6075 5.7416 7.97313 7.30805 9.36887C8.15152 10.122 6.92648 11.3069 6.083 10.5939C4.12494 8.95718 2.197 7.28027 0.259024 5.61341C-0.142631 5.27201 -0.0723384 4.41849 0.439768 4.20762Z" fill="white"/>
</svg>
