<svg width="46" height="48" viewBox="0 0 46 48" fill="none" xmlns="http://www.w3.org/2000/svg">
<g clip-path="url(#clip0_0_23)">
<path d="M4.24432 39.8216C3.65194 36.3253 3.06192 32.8192 2.47191 29.313C2.28143 28.191 3.96694 27.6552 4.18468 28.7941C4.56565 30.7768 4.93673 32.7571 5.32006 34.7299C12.994 19.5608 27.1519 6.7629 45.2675 8.60298C45.8374 8.66661 45.8999 9.53841 45.2984 9.51944C26.7875 8.89063 12.7426 21.653 5.74686 37.9148C5.74211 37.9346 5.75713 37.9591 5.76227 37.9812C7.48058 36.7427 9.20126 35.4942 10.9445 34.2826C11.8846 33.6305 12.7612 35.1157 11.8605 35.7772C9.78772 37.3173 7.68252 38.8182 5.58482 40.3314C5.15406 40.646 4.33087 40.3753 4.24432 39.8216Z" fill="white"/>
</g>
<defs>
<clipPath id="clip0_0_23">
<rect width="39.74" height="36.85" fill="white" transform="matrix(-0.23712 0.987985 0.987985 0.23712 9.42319 0)"/>
</clipPath>
</defs>
</svg>
