<svg width="24" height="24" viewBox="0 0 24 24" fill="none" xmlns="http://www.w3.org/2000/svg">
<path d="M3.49988 4.70666C3.49988 4.04024 4.04012 3.5 4.70654 3.5H19.2932C19.9596 3.5 20.4999 4.04024 20.4999 4.70666V19.2933C20.4999 19.9597 19.9596 20.5 19.2932 20.5H4.70654C4.04012 20.5 3.49988 19.9597 3.49988 19.2933V4.70666Z" fill="#0A66C2"/>
<path d="M7.31544 8.77957C8.12992 8.77957 8.79019 8.1193 8.79019 7.30482C8.79019 6.49034 8.12992 5.83008 7.31544 5.83008C6.50096 5.83008 5.8407 6.49034 5.8407 7.30482C5.8407 8.1193 6.50096 8.77957 7.31544 8.77957Z" fill="white"/>
<path d="M10.1408 9.86945H12.5849V10.9891C12.5849 10.9891 13.2482 9.66262 15.0528 9.66262C16.6626 9.66262 17.9961 10.4556 17.9961 12.8728V17.97H15.4633V13.4905C15.4633 12.0646 14.702 11.9077 14.1219 11.9077C12.9181 11.9077 12.712 12.9461 12.712 13.6765V17.97H10.1408V9.86945Z" fill="white"/>
<path d="M6.02987 9.86946H8.60102V17.97H6.02987V9.86946Z" fill="white"/>
</svg>
