<svg width="24" height="26" viewBox="0 0 24 26" fill="none" xmlns="http://www.w3.org/2000/svg">
<g clip-path="url(#clip0_1_1047)">
<path d="M18.4103 4.47889C16.997 3.97132 15.4998 3.63724 13.9535 3.50616C13.9253 3.50349 13.8987 3.51866 13.8867 3.54541C13.7286 3.89669 13.5593 4.35172 13.444 4.70783C11.7842 4.60467 10.1543 4.74726 8.57126 5.13414C8.3952 4.79582 8.14257 4.3854 7.92508 4.06698C7.90865 4.04358 7.87981 4.03326 7.85245 4.03993C6.35318 4.43661 4.93677 5.02559 3.63231 5.7718C3.62099 5.77792 3.61165 5.78731 3.6059 5.79894C1.20566 10.1894 0.802734 14.3023 1.52373 18.2663C1.52712 18.2857 1.53967 18.3035 1.55584 18.3141C3.49665 19.5001 5.33407 20.1624 7.11464 20.5522C7.14311 20.5582 7.17162 20.5455 7.18726 20.521C7.54801 19.9224 7.86157 19.2972 8.12036 18.6459C8.13564 18.6077 8.11421 18.5659 8.07514 18.5548C7.47611 18.3845 6.90057 18.1634 6.34283 17.9038C6.29867 17.8828 6.29003 17.8228 6.32615 17.7905C6.43052 17.6966 6.5346 17.5993 6.63356 17.5015C6.65147 17.4837 6.67806 17.4779 6.70164 17.4862C10.3299 18.7815 14.1063 18.4511 17.4134 16.549C17.4351 16.536 17.4623 16.537 17.4838 16.5514C17.5983 16.6305 17.7177 16.7091 17.8377 16.7834C17.8788 16.8089 17.8816 16.8695 17.8418 16.8978C17.3381 17.2562 16.8092 17.568 16.2479 17.8389C16.2114 17.8567 16.1984 17.9023 16.2201 17.9373C16.5947 18.5323 17.0121 19.0936 17.4637 19.621C17.4826 19.6434 17.5137 19.6509 17.5407 19.64C19.2349 18.9462 20.9294 17.9749 22.6348 16.4699C22.6497 16.4566 22.6583 16.4379 22.6582 16.4182C22.6984 11.7589 21.1585 7.84934 18.4402 4.50196C18.4333 4.49058 18.4225 4.48296 18.4103 4.47889ZM8.34528 15.2175C7.29511 15.3093 6.345 14.4161 6.24089 13.2261C6.13678 12.0362 6.90054 10.993 7.96752 10.8996C9.04289 10.8055 9.98534 11.708 10.0719 12.891C10.176 14.0809 9.41225 15.1241 8.34528 15.2175ZM15.4276 14.5978C14.3774 14.6897 13.4273 13.7965 13.3232 12.6065C13.2191 11.4165 13.9829 10.3733 15.0499 10.28C16.1252 10.1859 17.0677 11.0884 17.1542 12.2713C17.2584 13.4613 16.503 14.5037 15.4276 14.5978Z" fill="white"/>
</g>
<defs>
<clipPath id="clip0_1_1047">
<rect width="21.1948" height="24" fill="white" transform="translate(0 1.86468) scale(1.00948) rotate(-5)"/>
</clipPath>
</defs>
</svg>
