<svg width="580" height="444" viewBox="0 0 580 444" fill="none" xmlns="http://www.w3.org/2000/svg">
<path d="M451.57 316.53H115.959V123.729C115.959 119.843 119.11 116.693 122.996 116.693H444.534C448.42 116.693 451.57 119.843 451.57 123.729V316.53Z" fill="#263238"/>
<path d="M440.329 306.968H127.2V126.255H440.329V306.968Z" fill="white"/>
<rect width="92.9491" height="3.90329" rx="1.95164" transform="matrix(1 0 0 -1 237.29 163.358)" fill="#465E9C"/>
<rect width="130.899" height="3.90329" rx="1.95164" transform="matrix(1 0 0 -1 218.315 146.602)" fill="#7E8EAD"/>
<path d="M421.515 218.572L346.093 218.581C345.738 218.581 345.386 218.511 345.058 218.375C344.73 218.24 344.432 218.04 344.181 217.789C343.93 217.538 343.731 217.24 343.595 216.912C343.459 216.584 343.389 216.233 343.389 215.878C343.389 215.522 343.459 215.171 343.594 214.843C343.73 214.515 343.929 214.217 344.18 213.966C344.431 213.714 344.729 213.515 345.057 213.379C345.385 213.243 345.737 213.173 346.092 213.173L421.515 213.164C422.232 213.164 422.919 213.449 423.427 213.956C423.934 214.463 424.219 215.151 424.219 215.868C424.219 216.585 423.934 217.273 423.427 217.78C422.92 218.287 422.232 218.572 421.515 218.572Z" fill="#B9CAF7"/>
<path d="M329.953 219.622L329.608 219.622C329.116 219.622 328.628 219.525 328.173 219.337C327.719 219.149 327.305 218.872 326.957 218.524C326.609 218.176 326.333 217.763 326.144 217.308C325.956 216.853 325.859 216.366 325.859 215.874C325.859 215.381 325.956 214.894 326.144 214.439C326.332 213.984 326.608 213.571 326.956 213.223C327.305 212.875 327.718 212.598 328.173 212.41C328.627 212.221 329.115 212.124 329.607 212.124L329.952 212.124C330.946 212.124 331.9 212.519 332.603 213.222C333.306 213.925 333.701 214.878 333.701 215.873C333.701 216.365 333.604 216.853 333.416 217.307C333.228 217.762 332.951 218.176 332.603 218.524C332.255 218.872 331.842 219.148 331.387 219.337C330.932 219.525 330.445 219.622 329.953 219.622Z" fill="#2A4E96"/>
<path d="M330.618 227.917H330.962C331.455 227.917 331.942 228.014 332.397 228.202C332.852 228.39 333.265 228.667 333.613 229.015C333.961 229.363 334.237 229.776 334.426 230.231C334.614 230.686 334.711 231.173 334.711 231.665V231.666C334.711 232.158 334.614 232.645 334.426 233.1C334.237 233.555 333.961 233.968 333.613 234.316C333.265 234.664 332.852 234.941 332.397 235.129C331.942 235.317 331.455 235.414 330.962 235.414H330.617C329.623 235.414 328.67 235.019 327.967 234.316C327.264 233.614 326.869 232.66 326.869 231.666V231.666C326.869 231.174 326.966 230.686 327.154 230.231C327.343 229.776 327.619 229.363 327.967 229.015C328.315 228.667 328.729 228.39 329.183 228.202C329.638 228.014 330.126 227.917 330.618 227.917Z" fill="#F99746"/>
<path d="M421.517 234.364L346.094 234.373C345.377 234.373 344.689 234.089 344.182 233.582C343.675 233.075 343.39 232.387 343.39 231.67C343.39 230.953 343.675 230.265 344.182 229.758C344.689 229.251 345.377 228.966 346.094 228.966L421.516 228.957C421.871 228.956 422.223 229.026 422.551 229.162C422.879 229.298 423.177 229.497 423.428 229.748C423.679 229.999 423.878 230.297 424.014 230.625C424.15 230.953 424.22 231.305 424.22 231.66C424.22 232.015 424.15 232.367 424.014 232.695C423.879 233.023 423.68 233.321 423.428 233.572C423.177 233.823 422.879 234.022 422.551 234.158C422.223 234.294 421.872 234.364 421.517 234.364Z" fill="#B9CAF7"/>
<path d="M304.752 271.915H138.312V273.312H304.752V271.915Z" fill="#8EB2DD"/>
<path d="M146.064 189.184L146.075 281.997L147.469 281.996L147.458 189.184L146.064 189.184Z" fill="#8EB2DD"/>
<path d="M297.073 196.268L287.514 197.105L288.77 199.704L258.767 214.521L230.738 263.934L197.66 234.191L170.975 247.763L170.9 247.801L153.888 264.421L154.665 265.221L171.555 248.72L197.483 235.532L231.023 265.689L259.566 215.371L289.256 200.709L290.497 203.275L297.073 196.268Z" fill="#699FF0"/>
<path d="M171.171 252.26L170.853 252.26C170.399 252.26 169.949 252.167 169.529 251.984C169.11 251.802 168.728 251.535 168.407 251.198C168.086 250.861 167.831 250.461 167.657 250.021C167.483 249.581 167.394 249.109 167.394 248.633C167.394 248.156 167.483 247.685 167.657 247.244C167.831 246.804 168.085 246.404 168.406 246.067C168.728 245.73 169.109 245.463 169.529 245.281C169.948 245.098 170.398 245.004 170.852 245.004L171.17 245.004C172.087 245.004 172.967 245.386 173.616 246.067C174.265 246.747 174.629 247.67 174.629 248.632V248.632C174.63 249.108 174.54 249.58 174.366 250.02C174.193 250.46 173.938 250.86 173.617 251.197C173.296 251.534 172.914 251.802 172.495 251.984C172.075 252.166 171.625 252.26 171.171 252.26Z" fill="#2A4E96"/>
<path d="M259.167 219.317L258.85 219.317C257.932 219.317 257.052 218.935 256.404 218.255C255.755 217.574 255.39 216.652 255.39 215.689V215.689C255.39 215.213 255.479 214.741 255.653 214.301C255.827 213.861 256.082 213.461 256.403 213.124C256.724 212.787 257.105 212.52 257.525 212.337C257.945 212.155 258.394 212.061 258.849 212.061L259.167 212.061C259.621 212.061 260.071 212.155 260.49 212.337C260.91 212.519 261.291 212.786 261.613 213.123C261.934 213.46 262.189 213.86 262.363 214.3C262.536 214.74 262.626 215.212 262.626 215.689C262.626 216.651 262.262 217.574 261.613 218.254C260.965 218.935 260.085 219.317 259.167 219.317Z" fill="#2A4E96"/>
<path d="M197.573 239.415L197.255 239.415C196.338 239.415 195.458 239.033 194.809 238.353C194.16 237.673 193.796 236.75 193.796 235.788C193.796 234.825 194.16 233.903 194.808 233.222C195.457 232.542 196.337 232.159 197.254 232.159L197.572 232.159C198.489 232.159 199.369 232.541 200.018 233.221C200.667 233.902 201.031 234.825 201.031 235.787C201.032 236.263 200.942 236.735 200.768 237.175C200.595 237.615 200.34 238.015 200.019 238.352C199.698 238.689 199.316 238.956 198.897 239.139C198.477 239.321 198.027 239.415 197.573 239.415Z" fill="#2A4E96"/>
<path d="M230.883 267.413L230.565 267.413C229.647 267.414 228.767 267.031 228.119 266.351C227.47 265.671 227.105 264.748 227.105 263.786V263.786C227.105 262.824 227.469 261.901 228.118 261.22C228.767 260.54 229.646 260.158 230.564 260.157L230.882 260.157C231.336 260.157 231.786 260.251 232.205 260.433C232.625 260.616 233.006 260.883 233.328 261.22C233.649 261.557 233.904 261.956 234.078 262.397C234.251 262.837 234.341 263.309 234.341 263.785C234.341 264.747 233.977 265.67 233.328 266.35C232.68 267.031 231.8 267.413 230.883 267.413Z" fill="#F99746"/>
<path d="M451.789 334.697H111.916C106.913 334.697 102.479 331.478 100.929 326.723L98.625 319.658C97.5063 316.227 100.062 312.705 103.671 312.705H460.034C463.641 312.705 466.197 316.227 465.08 319.658L462.776 326.723C461.224 331.478 456.791 334.697 451.789 334.697Z" fill="#60087A"/>
<g filter="url(#filter0_d_4_2497)">
<circle cx="112.753" cy="115.003" r="38.5395" fill="#E43153"/>
</g>
<path fill-rule="evenodd" clip-rule="evenodd" d="M97.5203 126.91V137.105H91.3497V126.91H97.5203Z" fill="white"/>
<path fill-rule="evenodd" clip-rule="evenodd" d="M108.788 122.199V137.106H102.618V122.199H108.788Z" fill="white"/>
<path fill-rule="evenodd" clip-rule="evenodd" d="M120.04 114.754V137.105H113.869V114.754H120.04Z" fill="white"/>
<rect x="124.617" y="107.812" width="7.17667" height="29.7966" fill="white"/>
<path fill-rule="evenodd" clip-rule="evenodd" d="M134.225 92.5203C134.108 92.4197 133.957 92.3861 133.823 92.4029L129.128 93.1574C128.86 93.2078 128.659 93.4593 128.709 93.7276C128.759 93.9958 129.011 94.1803 129.279 94.1468L132.347 93.6605L123.192 104.291L119.453 100.703C119.352 100.602 119.218 100.552 119.084 100.569C118.95 100.569 118.816 100.636 118.732 100.737L106.458 114.989L102.903 112.323C102.702 112.172 102.434 112.189 102.249 112.357L91.2325 122.92C91.0313 123.105 91.0313 123.424 91.2158 123.625C91.3164 123.725 91.4505 123.776 91.5847 123.776C91.702 123.776 91.8362 123.725 91.9368 123.642L102.651 113.363L106.257 116.062C106.475 116.213 106.76 116.197 106.944 115.995L119.168 101.793L122.907 105.381C123.008 105.482 123.142 105.532 123.276 105.515C123.41 105.515 123.544 105.448 123.628 105.348L133.404 93.9958L133.337 97.9698C133.337 98.2549 133.555 98.4729 133.84 98.4729C134.108 98.4729 134.343 98.2549 134.343 97.9698L134.427 92.8892C134.41 92.7718 134.343 92.6209 134.225 92.5203Z" fill="white"/>
<g filter="url(#filter1_d_4_2497)">
<circle cx="406.667" cy="95.3893" r="38.1244" fill="#17C4BD"/>
</g>
<path d="M385.878 89.1343C385.878 86.9624 387.637 85.2015 389.809 85.2015C391.981 85.2015 393.742 86.9624 393.742 89.1343C393.742 91.3049 391.981 93.0671 389.809 93.0671C387.637 93.0671 385.878 91.3049 385.878 89.1343ZM396.69 93.6294L401.988 94.3579L402.911 90.3131L398.012 88.7319C397.975 87.9714 397.838 87.238 397.609 86.5452L401.377 82.957L398.792 79.7133L394.622 82.4771C393.986 82.0169 393.283 81.6465 392.53 81.3819L392.083 76.3257H387.935L387.503 81.2465C386.72 81.4742 385.986 81.815 385.319 82.2507L381.106 79.4561L378.518 82.701L382.15 86.1601C381.876 86.8664 381.693 87.6195 381.624 88.4058L376.708 89.9932L377.631 94.0379L382.751 93.3341C383.12 93.9555 383.567 94.5252 384.082 95.0261L382.203 99.9999L385.942 101.8L388.64 97.2632C389.023 97.3185 389.412 97.3554 389.809 97.3554C390.109 97.3554 390.405 97.3382 390.698 97.3062L393.455 101.943L397.192 100.143L395.331 95.2131C395.847 94.7443 396.306 94.2151 396.69 93.6294Z" fill="#D9D9D9"/>
<path d="M412.654 96.7958C412.654 93.5459 415.288 90.9126 418.539 90.9126C421.788 90.9126 424.422 93.5459 424.422 96.7958C424.422 100.046 421.788 102.68 418.539 102.68C415.288 102.68 412.654 100.046 412.654 96.7958ZM429.36 102.647L435.605 103.506L436.628 99.0218L430.822 97.1477C430.826 97.0296 430.841 96.9139 430.841 96.7958C430.841 95.0558 430.474 93.402 429.822 91.9007L434.137 87.792L431.27 84.1963L426.456 87.3871C425.027 86.1824 423.316 85.3063 421.44 84.8522L420.938 79.1413H416.338L415.841 84.7993C413.947 85.2239 412.217 86.0778 410.763 87.2641L405.943 84.0684L403.076 87.664L407.339 91.7235C406.637 93.2715 406.235 94.9857 406.235 96.7958C406.235 96.8622 406.244 96.9262 406.245 96.9914L400.448 98.863L401.47 103.347L407.643 102.498C408.435 104.009 409.529 105.333 410.85 106.391L408.588 112.384L412.731 114.379L416.026 108.84C416.837 109.009 417.677 109.099 418.539 109.099C419.351 109.099 420.143 109.015 420.912 108.864L424.234 114.45L428.379 112.454L426.119 106.471C427.443 105.433 428.554 104.137 429.36 102.647Z" fill="white"/>
<g filter="url(#filter2_d_4_2497)">
<circle cx="476.919" cy="254.365" r="38.0811" fill="#00C85C"/>
</g>
<path d="M459.727 237.173C459.727 235.653 460.331 234.195 461.406 233.121C462.48 232.046 463.938 231.442 465.458 231.442H478.598C480.118 231.442 481.575 232.046 482.65 233.121L492.432 242.903C493.507 243.978 494.111 245.435 494.111 246.955V271.557C494.111 273.077 493.507 274.534 492.433 275.609C491.358 276.684 489.9 277.287 488.38 277.287H484.002C486.93 274.012 488.493 269.74 488.37 265.349C488.247 260.957 486.448 256.78 483.341 253.673C480.235 250.567 476.057 248.767 471.666 248.645C467.274 248.522 463.002 250.085 459.727 253.012V237.173Z" fill="white"/>
<path fill-rule="evenodd" clip-rule="evenodd" d="M471.188 254.365C469.167 254.365 467.182 254.899 465.434 255.913C463.686 256.927 462.237 258.386 461.235 260.141C460.232 261.896 459.712 263.884 459.726 265.905C459.739 267.926 460.288 269.908 461.314 271.648L457.701 275.259C457.435 275.525 457.224 275.841 457.08 276.188C456.935 276.536 456.861 276.909 456.861 277.285C456.861 277.661 456.935 278.034 457.079 278.382C457.223 278.73 457.434 279.046 457.7 279.312C457.966 279.578 458.282 279.789 458.629 279.933C458.977 280.078 459.35 280.152 459.726 280.152C460.102 280.152 460.475 280.078 460.823 279.934C461.17 279.79 461.486 279.579 461.753 279.313L465.366 275.7C466.884 276.595 468.588 277.128 470.346 277.257C472.103 277.386 473.867 277.108 475.499 276.445C477.132 275.781 478.59 274.75 479.759 273.432C480.929 272.114 481.778 270.544 482.242 268.844C482.706 267.143 482.772 265.359 482.434 263.63C482.097 261.9 481.365 260.272 480.295 258.871C479.226 257.47 477.848 256.335 476.268 255.554C474.689 254.772 472.95 254.365 471.188 254.365ZM465.458 265.826C465.458 264.306 466.061 262.849 467.136 261.774C468.211 260.699 469.668 260.095 471.188 260.095C472.708 260.095 474.166 260.699 475.24 261.774C476.315 262.849 476.919 264.306 476.919 265.826C476.919 267.346 476.315 268.804 475.24 269.878C474.166 270.953 472.708 271.557 471.188 271.557C469.668 271.557 468.211 270.953 467.136 269.878C466.061 268.804 465.458 267.346 465.458 265.826Z" fill="white"/>
<defs>
<filter id="filter0_d_4_2497" x="69.213" y="73.4637" width="87.079" height="87.079" filterUnits="userSpaceOnUse" color-interpolation-filters="sRGB">
<feFlood flood-opacity="0" result="BackgroundImageFix"/>
<feColorMatrix in="SourceAlpha" type="matrix" values="0 0 0 0 0 0 0 0 0 0 0 0 0 0 0 0 0 0 127 0" result="hardAlpha"/>
<feOffset dy="2"/>
<feGaussianBlur stdDeviation="2.5"/>
<feColorMatrix type="matrix" values="0 0 0 0 0 0 0 0 0 0 0 0 0 0 0 0 0 0 0.25 0"/>
<feBlend mode="normal" in2="BackgroundImageFix" result="effect1_dropShadow_4_2497"/>
<feBlend mode="normal" in="SourceGraphic" in2="effect1_dropShadow_4_2497" result="shape"/>
</filter>
<filter id="filter1_d_4_2497" x="363.543" y="54.2649" width="86.2488" height="86.2488" filterUnits="userSpaceOnUse" color-interpolation-filters="sRGB">
<feFlood flood-opacity="0" result="BackgroundImageFix"/>
<feColorMatrix in="SourceAlpha" type="matrix" values="0 0 0 0 0 0 0 0 0 0 0 0 0 0 0 0 0 0 127 0" result="hardAlpha"/>
<feOffset dy="2"/>
<feGaussianBlur stdDeviation="2.5"/>
<feColorMatrix type="matrix" values="0 0 0 0 0 0 0 0 0 0 0 0 0 0 0 0 0 0 0.25 0"/>
<feBlend mode="normal" in2="BackgroundImageFix" result="effect1_dropShadow_4_2497"/>
<feBlend mode="normal" in="SourceGraphic" in2="effect1_dropShadow_4_2497" result="shape"/>
</filter>
<filter id="filter2_d_4_2497" x="433.838" y="213.284" width="86.1622" height="86.1622" filterUnits="userSpaceOnUse" color-interpolation-filters="sRGB">
<feFlood flood-opacity="0" result="BackgroundImageFix"/>
<feColorMatrix in="SourceAlpha" type="matrix" values="0 0 0 0 0 0 0 0 0 0 0 0 0 0 0 0 0 0 127 0" result="hardAlpha"/>
<feOffset dy="2"/>
<feGaussianBlur stdDeviation="2.5"/>
<feColorMatrix type="matrix" values="0 0 0 0 0 0 0 0 0 0 0 0 0 0 0 0 0 0 0.25 0"/>
<feBlend mode="normal" in2="BackgroundImageFix" result="effect1_dropShadow_4_2497"/>
<feBlend mode="normal" in="SourceGraphic" in2="effect1_dropShadow_4_2497" result="shape"/>
</filter>
</defs>
</svg>
