<svg width="16" height="16" viewBox="0 0 16 16" fill="none" xmlns="http://www.w3.org/2000/svg">
<path d="M6.00025 4.66602C6.17017 4.6662 6.33361 4.73127 6.45717 4.84791C6.58072 4.96456 6.65508 5.12398 6.66503 5.29361C6.67499 5.46324 6.6198 5.63027 6.51074 5.76057C6.40168 5.89087 6.24698 5.97461 6.07825 5.99468L6.00025 5.99935H4.66692C4.14632 5.99885 3.64603 6.20136 3.27237 6.56386C2.89872 6.92636 2.68113 7.42028 2.66585 7.94066C2.65058 8.46104 2.83881 8.96687 3.19056 9.35066C3.54231 9.73446 4.02985 9.96598 4.54959 9.99602L4.66692 9.99935H6.00025C6.17017 9.99954 6.33361 10.0646 6.45717 10.1812C6.58072 10.2979 6.65508 10.4573 6.66503 10.6269C6.67499 10.7966 6.6198 10.9636 6.51074 11.0939C6.40168 11.2242 6.24698 11.3079 6.07825 11.328L6.00025 11.3327H4.66692C3.79614 11.3316 2.96037 10.9897 2.33838 10.3803C1.7164 9.77089 1.35758 8.94228 1.33868 8.0717C1.31978 7.20113 1.64229 6.35772 2.23725 5.72188C2.8322 5.08605 3.65234 4.70827 4.52225 4.66935L4.66692 4.66602H6.00025ZM11.3336 4.66602C12.2044 4.66714 13.0401 5.00897 13.6621 5.61839C14.2841 6.2278 14.6429 7.05642 14.6618 7.92699C14.6807 8.79757 14.3582 9.64098 13.7633 10.2768C13.1683 10.9127 12.3482 11.2904 11.4783 11.3293L11.3336 11.3327H10.0003C9.83033 11.3325 9.6669 11.2674 9.54334 11.1508C9.41978 11.0341 9.34543 10.8747 9.33547 10.7051C9.32551 10.5355 9.3807 10.3684 9.48976 10.2381C9.59882 10.1078 9.75352 10.0241 9.92225 10.004L10.0003 9.99935H11.3336C11.8542 9.99985 12.3545 9.79734 12.7281 9.43483C13.1018 9.07233 13.3194 8.57842 13.3347 8.05804C13.3499 7.53766 13.1617 7.03183 12.8099 6.64804C12.4582 6.26424 11.9707 6.03272 11.4509 6.00268L11.3336 5.99935H10.0003C9.83033 5.99916 9.6669 5.9341 9.54334 5.81745C9.41978 5.7008 9.34543 5.54138 9.33547 5.37175C9.32551 5.20212 9.3807 5.0351 9.48976 4.90479C9.59882 4.77449 9.75352 4.69075 9.92225 4.67068L10.0003 4.66602H11.3336ZM4.66692 7.33268H11.3336C11.5035 7.33287 11.6669 7.39794 11.7905 7.51458C11.9141 7.63123 11.9884 7.79065 11.9984 7.96028C12.0083 8.12991 11.9531 8.29694 11.8441 8.42724C11.735 8.55754 11.5803 8.64128 11.4116 8.66135L11.3336 8.66602H4.66692C4.497 8.66583 4.33356 8.60076 4.21001 8.48412C4.08645 8.36747 4.0121 8.20805 4.00214 8.03842C3.99218 7.86879 4.04737 7.70176 4.15643 7.57146C4.26549 7.44116 4.42019 7.35742 4.58892 7.33735L4.66692 7.33268Z" fill="white"/>
</svg>
