<svg width="10" height="18" viewBox="0 0 10 18" fill="none" xmlns="http://www.w3.org/2000/svg">
<mask id="mask0_2252_1878" style="mask-type:alpha" maskUnits="userSpaceOnUse" x="-8" y="-4" width="26" height="26">
<rect x="-7.01351" y="-3.00579" width="24.0463" height="24.0463" fill="#D9D9D9"/>
</mask>
<g mask="url(#mask0_2252_1878)">
<path d="M2.09438 9.00386L9.64162 16.3421C9.84072 16.5357 9.9377 16.7636 9.93256 17.0259C9.92741 17.2881 9.82529 17.5161 9.62619 17.7097C9.42711 17.9032 9.19269 18 8.92294 18C8.65318 18 8.41877 17.9032 8.21968 17.7097L0.533728 10.2515C0.352579 10.0754 0.218337 9.87812 0.131002 9.65956C0.0436674 9.44099 0 9.22242 0 9.00386C0 8.78531 0.0436674 8.56674 0.131002 8.34817C0.218354 8.12961 0.352596 7.93228 0.533728 7.75618L8.21968 0.283091C8.41877 0.0895045 8.65576 -0.00479688 8.93065 0.000187684C9.20553 0.00518848 9.44252 0.104482 9.64162 0.298068C9.84072 0.491654 9.94027 0.71958 9.94027 0.981846C9.94027 1.24413 9.84072 1.47206 9.64162 1.66565L2.09438 9.00386Z" fill="#1C1B1F"/>
</g>
</svg>
