<svg width="16" height="16" viewBox="0 0 16 16" fill="none" xmlns="http://www.w3.org/2000/svg">
<path d="M8.0001 1.59961C4.4657 1.59961 1.6001 4.46521 1.6001 7.99961C1.6001 11.534 4.4657 14.3996 8.0001 14.3996C11.5345 14.3996 14.4001 11.534 14.4001 7.99961C14.4001 6.83728 14.0854 5.75062 13.5438 4.81107L7.54489 10.809C7.44516 10.9087 7.30967 10.9652 7.16781 10.9652C7.02647 10.9652 6.89046 10.9093 6.79072 10.809L4.41572 8.43398C4.20719 8.22545 4.20719 7.88835 4.41572 7.67982C4.62426 7.47128 4.96136 7.47128 5.16989 7.67982L7.16781 9.67773L12.9282 3.91732C11.7544 2.50132 9.98303 1.59961 8.0001 1.59961ZM12.9282 3.91732C13.1584 4.19496 13.3621 4.49564 13.5438 4.81003L14.7772 3.57669C14.9857 3.36763 14.9857 3.03106 14.7772 2.82253C14.5686 2.61399 14.2315 2.61399 14.023 2.82253L12.9282 3.91732Z" fill="white"/>
</svg>
