<svg width="16" height="16" viewBox="0 0 16 16" fill="none" xmlns="http://www.w3.org/2000/svg">
<path d="M9.29357 3.33321L12.6669 6.70655L6.04157 13.3332C5.857 13.5179 5.62744 13.6511 5.37557 13.7199L1.9649 14.6499C1.8799 14.6729 1.79031 14.6731 1.7052 14.6505C1.62009 14.6278 1.54249 14.583 1.48024 14.5207C1.41799 14.4584 1.37331 14.3807 1.35071 14.2956C1.32812 14.2105 1.32842 14.1209 1.35157 14.0359L2.28157 10.6252C2.3503 10.3733 2.48359 10.1438 2.66824 9.95921L9.29224 3.33321H9.29357ZM14.0202 1.97988C14.4676 2.42721 14.7189 3.03393 14.7189 3.66655C14.7189 4.29917 14.4676 4.90588 14.0202 5.35321L13.3736 5.99988L10.0002 2.62655L10.6469 1.97988C11.0942 1.53255 11.701 1.28125 12.3336 1.28125C12.9662 1.28125 13.5729 1.53255 14.0202 1.97988Z" fill="#7B68EE"/>
</svg>
