<svg width="40" height="40" viewBox="0 0 40 40" fill="none" xmlns="http://www.w3.org/2000/svg">
<rect x="40" y="40" width="40" height="40" rx="20" transform="rotate(180 40 40)" fill="#FF53F8"/>
<rect x="39" y="39" width="38" height="38" rx="19" transform="rotate(180 39 39)" stroke="#DC00D3" stroke-width="2"/>
<path d="M17.1172 22.2551C14.9435 20.0791 14.9733 16.5905 17.1041 14.4479C17.1081 14.4435 17.1128 14.4388 17.1172 14.4344L19.5621 11.9896C21.7184 9.83322 25.2267 9.83351 27.3827 11.9896C29.5391 14.1456 29.5391 17.6542 27.3827 19.8102L26.0327 21.1602C25.6747 21.5182 25.0582 21.2803 25.0397 20.7744C25.0162 20.1296 24.9005 19.4818 24.6872 18.8563C24.6149 18.6444 24.6666 18.4101 24.8248 18.2519L25.301 17.7758C26.3206 16.7561 26.3526 15.0959 25.343 14.0663C24.3234 13.0265 22.6476 13.0203 21.6202 14.0477L19.1753 16.4922C18.1497 17.5178 18.154 19.1756 19.1753 20.197C19.31 20.3314 19.4456 20.4358 19.5516 20.5087C19.6265 20.5602 19.6884 20.6285 19.7323 20.7081C19.7762 20.7877 19.8008 20.8765 19.8043 20.9674C19.8187 21.3518 19.6825 21.748 19.3787 22.0518L18.6127 22.8178C18.4119 23.0186 18.0968 23.0433 17.8638 22.8808C17.5971 22.6945 17.3473 22.4851 17.1172 22.2551ZM11.9897 27.3828C14.1457 29.5389 17.654 29.5392 19.8104 27.3828L22.2552 24.938C22.2596 24.9336 22.2643 24.9289 22.2683 24.9245C24.3991 22.7819 24.429 19.2933 22.2552 17.1173C22.0252 16.8873 21.7754 16.6779 21.5087 16.4917C21.2757 16.3291 20.9606 16.3538 20.7598 16.5547L19.9938 17.3207C19.69 17.6245 19.5538 18.0206 19.5682 18.4051C19.5717 18.4959 19.5963 18.5847 19.6402 18.6644C19.6841 18.744 19.746 18.8123 19.8209 18.8637C19.9269 18.9367 20.0625 19.0411 20.1972 19.1755C21.2185 20.1968 21.2228 21.8546 20.1972 22.8802L17.7523 25.3248C16.7249 26.3521 15.0491 26.346 14.0295 25.3062C13.0199 24.2766 13.0519 22.6163 14.0715 21.5967L14.5477 21.1206C14.7059 20.9623 14.7575 20.728 14.6853 20.5162C14.4719 19.8906 14.3563 19.2429 14.3328 18.5981C14.3142 18.0922 13.6977 17.8542 13.3397 18.2122L11.9898 19.5622C9.83336 21.7182 9.83336 25.2268 11.9897 27.3828Z" fill="white"/>
</svg>
