<svg width="16" height="16" viewBox="0 0 16 16" fill="none" xmlns="http://www.w3.org/2000/svg">
<path d="M15.835 4.59C15.835 4.59 15.679 3.413 15.2 2.895C14.591 2.216 13.91 2.212 13.597 2.1735C11.3585 2 8.001 2 8.001 2H7.9935C7.9935 2 4.636 2 2.3985 2.1735C2.0855 2.212 1.4045 2.216 0.7955 2.895C0.3175 3.413 0.16 4.59 0.16 4.59C0.16 4.59 0 5.97 0 7.35V8.645C0 10.026 0.16 11.406 0.16 11.406C0.16 11.406 0.316 12.582 0.795 13.099C1.405 13.778 2.203 13.7575 2.559 13.829C3.839 13.959 7.9975 14 7.9975 14C7.9975 14 11.3585 13.994 13.5975 13.8225C13.9095 13.7825 14.591 13.7785 15.1995 13.0995C15.6775 12.5815 15.8345 11.4055 15.8345 11.4055C15.8345 11.4055 15.9945 10.0255 15.9945 8.644V7.35C15.9945 5.97 15.8345 4.589 15.8345 4.589L15.835 4.59Z" fill="black"/>
<path d="M6 5V11L11 8" fill="white"/>
</svg>
