<svg width="24" height="24" viewBox="0 0 24 24" fill="none" xmlns="http://www.w3.org/2000/svg">
<path d="M11.9999 21C7.02918 21 2.99988 16.9707 2.99988 12C2.99988 7.0293 7.02918 3 11.9999 3C16.9706 3 20.9999 7.0293 20.9999 12C20.9999 16.9707 16.9706 21 11.9999 21ZM18.0029 12C17.9936 11.7467 17.9113 11.5014 17.7658 11.2938C17.6203 11.0862 17.4178 10.9252 17.1829 10.83C16.9479 10.7349 16.6904 10.7098 16.4415 10.7577C16.1925 10.8056 15.9628 10.9245 15.7799 11.1C14.7561 10.404 13.5526 10.0196 12.3149 9.993L12.8999 7.185L14.8259 7.59C14.8488 7.80283 14.9468 8.00054 15.1023 8.14763C15.2578 8.29471 15.4607 8.38155 15.6745 8.39255C15.8883 8.40355 16.099 8.33799 16.2688 8.20764C16.4386 8.07729 16.5563 7.89069 16.6009 7.68133C16.6456 7.47197 16.6141 7.25356 16.5122 7.06531C16.4103 6.87705 16.2446 6.73129 16.0449 6.65417C15.8453 6.57705 15.6246 6.57363 15.4226 6.64453C15.2207 6.71543 15.0506 6.85599 14.9429 7.041L12.7379 6.6C12.7018 6.59209 12.6645 6.59141 12.6282 6.59801C12.5919 6.60461 12.5572 6.61836 12.5263 6.63845C12.4953 6.65854 12.4686 6.68458 12.4478 6.71506C12.4269 6.74554 12.4124 6.77985 12.4049 6.816L11.7389 9.939C10.486 9.95789 9.26592 10.3427 8.22888 11.046C8.09014 10.9155 7.92467 10.8166 7.74394 10.7564C7.56321 10.6962 7.37155 10.676 7.18223 10.6972C6.99291 10.7183 6.81046 10.7805 6.64753 10.8792C6.48461 10.9779 6.34509 11.1109 6.23866 11.2689C6.13222 11.4269 6.06142 11.6061 6.03115 11.7942C6.00087 11.9823 6.01186 12.1747 6.06334 12.3581C6.11483 12.5415 6.20558 12.7115 6.3293 12.8564C6.45303 13.0012 6.60677 13.1175 6.77988 13.197C6.76974 13.3288 6.76974 13.4612 6.77988 13.593C6.77988 15.609 9.12888 17.247 12.0269 17.247C14.9249 17.247 17.2739 15.609 17.2739 13.593C17.284 13.4612 17.284 13.3288 17.2739 13.197C17.496 13.0866 17.6823 12.9156 17.8113 12.7038C17.9403 12.492 18.0067 12.248 18.0029 12ZM9.00288 12.9C9.00288 12.6613 9.0977 12.4324 9.26648 12.2636C9.43527 12.0948 9.66418 12 9.90288 12C10.1416 12 10.3705 12.0948 10.5393 12.2636C10.7081 12.4324 10.8029 12.6613 10.8029 12.9C10.8029 13.1387 10.7081 13.3676 10.5393 13.5364C10.3705 13.7052 10.1416 13.8 9.90288 13.8C9.66418 13.8 9.43527 13.7052 9.26648 13.5364C9.0977 13.3676 9.00288 13.1387 9.00288 12.9ZM14.2319 15.375C13.5933 15.8562 12.8077 16.1011 12.0089 16.068C11.21 16.1011 10.4244 15.8562 9.78588 15.375C9.74761 15.3284 9.72805 15.2692 9.73101 15.2089C9.73397 15.1487 9.75923 15.0917 9.80189 15.049C9.84455 15.0064 9.90154 14.9811 9.9618 14.9781C10.022 14.9752 10.0812 14.9947 10.1279 15.033C10.669 15.4299 11.3295 15.63 11.9999 15.6C12.6711 15.6365 13.3347 15.4428 13.8809 15.051C13.9039 15.0252 13.932 15.0044 13.9634 14.99C13.9947 14.9755 14.0288 14.9677 14.0633 14.9669C14.0979 14.9661 14.1322 14.9725 14.1642 14.9856C14.1962 14.9986 14.2252 15.0182 14.2493 15.0429C14.2734 15.0677 14.2922 15.0971 14.3045 15.1294C14.3167 15.1617 14.3222 15.1962 14.3206 15.2307C14.3189 15.2653 14.3102 15.2991 14.295 15.3301C14.2797 15.3611 14.2582 15.3886 14.2319 15.411V15.375ZM14.0699 13.836C13.8919 13.836 13.7179 13.7832 13.5699 13.6843C13.4219 13.5854 13.3065 13.4449 13.2384 13.2804C13.1703 13.116 13.1524 12.935 13.1872 12.7604C13.2219 12.5858 13.3076 12.4255 13.4335 12.2996C13.5594 12.1737 13.7197 12.088 13.8943 12.0533C14.0689 12.0186 14.2498 12.0364 14.4143 12.1045C14.5787 12.1726 14.7193 12.288 14.8182 12.436C14.9171 12.584 14.9699 12.758 14.9699 12.936C14.9748 13.0579 14.9548 13.1796 14.9112 13.2936C14.8676 13.4076 14.8013 13.5115 14.7162 13.5991C14.6312 13.6866 14.5293 13.756 14.4166 13.8029C14.3039 13.8498 14.1829 13.8733 14.0609 13.872L14.0699 13.836Z" fill="#FC471E"/>
<path d="M18.0028 12.0002C17.9936 11.7469 17.9112 11.5017 17.7657 11.2941C17.6202 11.0865 17.4178 10.9254 17.1828 10.8303C16.9478 10.7351 16.6904 10.71 16.4414 10.7579C16.1925 10.8058 15.9627 10.9247 15.7798 11.1002C14.756 10.4043 13.5525 10.0198 12.3148 9.99323L12.8998 7.18523L14.8258 7.59023C14.8487 7.80306 14.9467 8.00077 15.1023 8.14786C15.2578 8.29494 15.4606 8.38178 15.6744 8.39278C15.8882 8.40378 16.0989 8.33822 16.2687 8.20787C16.4385 8.07752 16.5563 7.89092 16.6009 7.68156C16.6455 7.4722 16.6141 7.25379 16.5122 7.06554C16.4103 6.87728 16.2446 6.73152 16.0449 6.6544C15.8452 6.57728 15.6246 6.57386 15.4226 6.64476C15.2206 6.71566 15.0505 6.85622 14.9428 7.04123L12.7378 6.60023C12.7018 6.59232 12.6645 6.59164 12.6282 6.59824C12.5918 6.60484 12.5572 6.61859 12.5262 6.63868C12.4952 6.65877 12.4686 6.68481 12.4477 6.71529C12.4269 6.74577 12.4123 6.78008 12.4048 6.81623L11.7388 9.93923C10.4859 9.95812 9.26588 10.3429 8.22883 11.0462C8.09009 10.9157 7.92462 10.8169 7.74389 10.7566C7.56316 10.6964 7.3715 10.6762 7.18218 10.6974C6.99286 10.7186 6.81042 10.7807 6.64749 10.8794C6.48456 10.9781 6.34504 11.1111 6.23861 11.2691C6.13218 11.4271 6.06137 11.6063 6.0311 11.7944C6.00083 11.9825 6.01182 12.1749 6.0633 12.3583C6.11478 12.5417 6.20553 12.7118 6.32926 12.8566C6.45298 13.0015 6.60673 13.1177 6.77983 13.1972C6.7697 13.329 6.7697 13.4614 6.77983 13.5932C6.77983 15.6092 9.12883 17.2472 12.0268 17.2472C14.9248 17.2472 17.2738 15.6092 17.2738 13.5932C17.284 13.4614 17.284 13.329 17.2738 13.1972C17.4959 13.0868 17.6822 12.9159 17.8112 12.704C17.9402 12.4922 18.0067 12.2482 18.0028 12.0002ZM9.00283 12.9002C9.00283 12.6615 9.09765 12.4326 9.26644 12.2638C9.43522 12.0951 9.66414 12.0002 9.90283 12.0002C10.1415 12.0002 10.3704 12.0951 10.5392 12.2638C10.708 12.4326 10.8028 12.6615 10.8028 12.9002C10.8028 13.1389 10.708 13.3678 10.5392 13.5366C10.3704 13.7054 10.1415 13.8002 9.90283 13.8002C9.66414 13.8002 9.43522 13.7054 9.26644 13.5366C9.09765 13.3678 9.00283 13.1389 9.00283 12.9002ZM14.2318 15.3752C13.5933 15.8564 12.8077 16.1013 12.0088 16.0682C11.21 16.1013 10.4244 15.8564 9.78583 15.3752C9.74756 15.3286 9.728 15.2694 9.73096 15.2091C9.73392 15.1489 9.75919 15.0919 9.80184 15.0492C9.8445 15.0066 9.9015 14.9813 9.96175 14.9784C10.022 14.9754 10.0812 14.995 10.1278 15.0332C10.6689 15.4301 11.3294 15.6302 11.9998 15.6002C12.6711 15.6367 13.3346 15.4431 13.8808 15.0512C13.9039 15.0255 13.9319 15.0047 13.9633 14.9902C13.9947 14.9757 14.0287 14.9679 14.0633 14.9671C14.0978 14.9664 14.1322 14.9727 14.1642 14.9858C14.1962 14.9989 14.2251 15.0184 14.2492 15.0431C14.2734 15.0679 14.2922 15.0973 14.3044 15.1296C14.3167 15.162 14.3222 15.1964 14.3205 15.231C14.3189 15.2655 14.3102 15.2993 14.2949 15.3303C14.2797 15.3613 14.2582 15.3889 14.2318 15.4112V15.3752ZM14.0698 13.8362C13.8918 13.8362 13.7178 13.7834 13.5698 13.6846C13.4218 13.5857 13.3065 13.4451 13.2383 13.2806C13.1702 13.1162 13.1524 12.9352 13.1871 12.7607C13.2219 12.5861 13.3076 12.4257 13.4334 12.2998C13.5593 12.174 13.7197 12.0883 13.8943 12.0535C14.0688 12.0188 14.2498 12.0366 14.4142 12.1047C14.5787 12.1729 14.7193 12.2882 14.8182 12.4362C14.917 12.5842 14.9698 12.7582 14.9698 12.9362C14.9747 13.0582 14.9548 13.1798 14.9112 13.2938C14.8676 13.4078 14.8012 13.5117 14.7162 13.5993C14.6312 13.6869 14.5292 13.7562 14.4166 13.8031C14.3039 13.85 14.1829 13.8735 14.0608 13.8722L14.0698 13.8362Z" fill="white"/>
</svg>
