<svg width="16" height="16" viewBox="0 0 16 16" fill="none" xmlns="http://www.w3.org/2000/svg">
<g clip-path="url(#clip0_3101_4032)">
<g clip-path="url(#clip1_3101_4032)">
<path fill-rule="evenodd" clip-rule="evenodd" d="M15.115 2.27036e-06H0.885002C0.768708 -0.000261436 0.653508 0.0224498 0.546016 0.0668318C0.438523 0.111214 0.340857 0.176392 0.258625 0.258625C0.176392 0.340857 0.111214 0.438523 0.0668318 0.546016C0.0224498 0.653508 -0.000261436 0.768708 2.27036e-06 0.885002V15.115C2.27036e-06 15.605 0.395002 16 0.885002 16H8.544V9.803H6.454V7.403H8.544V5.62C8.544 3.551 9.814 2.431 11.648 2.431C12.523 2.431 13.291 2.484 13.515 2.527V4.682H12.224C11.221 4.682 11.04 5.151 11.04 5.855V7.402H13.419L13.109 9.802H11.04V16H15.115C15.605 16 16 15.605 16 15.115V0.885002C16.0003 0.768708 15.9776 0.653508 15.9332 0.546016C15.8888 0.438523 15.8236 0.340857 15.7414 0.258625C15.6591 0.176392 15.5615 0.111214 15.454 0.0668318C15.3465 0.0224498 15.2313 -0.000261436 15.115 2.27036e-06Z" fill="black"/>
</g>
</g>
<defs>
<clipPath id="clip0_3101_4032">
<rect width="16" height="16" fill="white"/>
</clipPath>
<clipPath id="clip1_3101_4032">
<rect width="16" height="16" fill="white"/>
</clipPath>
</defs>
</svg>
