<svg width="40" height="40" viewBox="0 0 40 40" fill="none" xmlns="http://www.w3.org/2000/svg">
<rect width="40" height="40" rx="20" fill="#FF53F8"/>
<rect x="1" y="1" width="38" height="38" rx="19" stroke="#DC00D3" stroke-width="2"/>
<path d="M22.8828 17.7449C25.0565 19.9209 25.0267 23.4095 22.8959 25.5521C22.8919 25.5565 22.8872 25.5612 22.8828 25.5656L20.4379 28.0104C18.2816 30.1668 14.7733 30.1665 12.6173 28.0104C10.4609 25.8544 10.4609 22.3458 12.6173 20.1898L13.9673 18.8398C14.3253 18.4818 14.9418 18.7197 14.9603 19.2256C14.9838 19.8704 15.0995 20.5182 15.3128 21.1437C15.3851 21.3556 15.3334 21.5899 15.1752 21.7481L14.699 22.2242C13.6794 23.2439 13.6474 24.9041 14.657 25.9337C15.6766 26.9735 17.3524 26.9797 18.3798 25.9523L20.8247 23.5078C21.8503 22.4822 21.846 20.8244 20.8247 19.803C20.69 19.6686 20.5544 19.5642 20.4484 19.4913C20.3735 19.4398 20.3116 19.3715 20.2677 19.2919C20.2238 19.2123 20.1992 19.1235 20.1957 19.0326C20.1813 18.6482 20.3175 18.252 20.6213 17.9482L21.3873 17.1822C21.5881 16.9814 21.9032 16.9567 22.1362 17.1192C22.4029 17.3055 22.6527 17.5149 22.8828 17.7449ZM28.0103 12.6172C25.8543 10.4611 22.346 10.4608 20.1896 12.6172L17.7448 15.062C17.7404 15.0664 17.7357 15.0711 17.7317 15.0755C15.6009 17.2181 15.571 20.7067 17.7448 22.8827C17.9748 23.1127 18.2246 23.3221 18.4913 23.5083C18.7243 23.6709 19.0394 23.6462 19.2402 23.4453L20.0062 22.6793C20.31 22.3755 20.4462 21.9794 20.4318 21.5949C20.4283 21.5041 20.4037 21.4153 20.3598 21.3356C20.3159 21.256 20.254 21.1877 20.1791 21.1363C20.0731 21.0633 19.9375 20.9589 19.8028 20.8245C18.7815 19.8032 18.7772 18.1454 19.8028 17.1198L22.2477 14.6752C23.2751 13.6479 24.9509 13.654 25.9705 14.6938C26.9801 15.7234 26.9481 17.3837 25.9285 18.4033L25.4523 18.8794C25.2941 19.0377 25.2425 19.272 25.3147 19.4838C25.5281 20.1094 25.6437 20.7571 25.6672 21.4019C25.6858 21.9078 26.3023 22.1458 26.6603 21.7878L28.0102 20.4378C30.1666 18.2818 30.1666 14.7732 28.0103 12.6172Z" fill="white"/>
</svg>
