<svg width="60" height="67" viewBox="0 0 60 67" fill="none" xmlns="http://www.w3.org/2000/svg">
<g opacity="0.25">
<path d="M60 36.7906C60 47.3828 54.5117 56.6935 46.2224 62.031C46.0761 62.1256 45.9283 62.2187 45.779 62.3104C41.6535 64.8675 36.86 66.4521 31.722 66.7418C31.1515 66.7743 30.5779 66.7906 30 66.7906C29.9601 66.7906 29.9187 66.7906 29.8788 66.7891C29.2994 66.7876 28.7229 66.7699 28.1523 66.7344C23.01 66.4225 18.2194 64.8143 14.0998 62.235C13.9505 62.1419 13.8027 62.0473 13.6564 61.9512C5.43506 56.6004 0 47.3296 0 36.7906C0 20.2223 13.4317 6.79056 30 6.79056C46.5698 6.79056 60 20.2223 60 36.7906Z" fill="#7C6F66"/>
</g>
<path d="M53.8365 54.8777C48.3556 62.4689 39.716 66.7908 30.0003 66.7908C20.286 66.7908 11.6523 62.4689 6.17143 54.8793C7.94518 46.7005 14.3543 39.8275 22.314 38.6853C24.6849 37.6544 27.2805 37.0841 30.0017 37.0841C32.723 37.0841 35.32 37.6528 37.6895 38.6853C45.6477 39.8291 52.0627 46.7005 53.8365 54.8777Z" fill="#782440"/>
<path d="M29.2984 45.8125C26.573 45.3319 24.7533 42.7329 25.2338 40.0075L28.1543 23.4446C28.6349 20.7192 31.2337 18.8993 33.9592 19.3799C36.6846 19.8604 38.5043 22.4594 38.0238 25.1849L35.1033 41.7477C34.6227 44.4732 32.0239 46.293 29.2984 45.8125Z" fill="#FFD9BB"/>
<path d="M38.0236 25.1829L35.8496 37.4243C32.2624 36.5527 29.098 34.7788 26.5623 32.3872L28.1547 23.4427C28.6352 20.718 31.2345 18.8981 33.9592 19.3785C35.3224 19.6189 36.4597 20.3884 37.1943 21.44C37.9293 22.4897 38.264 23.8195 38.0236 25.1829Z" fill="#F4C7A6"/>
<path d="M38.8151 38.8979L30.835 66.7901H29.0435L21.5834 38.8034C25.7746 38.0354 27.5882 40.3764 30.5917 40.3764C33.341 40.3764 35.1601 37.9317 38.8151 38.8979Z" fill="#FCACA4"/>
<path d="M26.0662 35.6915L22.2212 38.6728L24.3334 45.4478L30.5918 40.3757L26.0662 35.6915Z" fill="white"/>
<path d="M35.961 37.0215L37.6999 38.6726L35.0527 47.9313L30.5916 40.3754L35.961 37.0215Z" fill="white"/>
<path d="M29.939 66.7894H29.8784C29.299 66.7878 28.7225 66.7674 28.1519 66.7298L19.0245 47.375L20.513 44.6127L15.8953 40.8743C19.2374 38.9753 22.3089 38.6839 22.3089 38.6839L29.939 66.7894Z" fill="#A3486B"/>
<path d="M39.3651 44.6127L40.8536 47.375L31.7217 66.7377C31.1512 66.7721 30.5777 66.7894 29.9997 66.7894H29.9391L37.5692 38.6839C37.5692 38.6839 40.6422 38.9753 43.9828 40.8743L39.3651 44.6127Z" fill="#A3486B"/>
<path d="M14.0994 55.2656V61.9605C13.9501 61.8618 13.8023 61.7616 13.656 61.6597V55.2656C13.656 55.1371 13.755 55.0305 13.8777 55.0305C14.0004 55.0305 14.0994 55.1371 14.0994 55.2656Z" fill="#9E3B61"/>
<path d="M46.2222 55.2656V61.7443C46.0759 61.8446 45.9281 61.9433 45.7788 62.0405V55.2656C45.7788 55.1371 45.8778 55.0305 46.0005 55.0305C46.1232 55.0305 46.2222 55.1371 46.2222 55.2656Z" fill="#9E3B61"/>
<path d="M48.036 25.0539C47.8052 26.3627 46.5571 27.2366 45.2483 27.0058C43.9395 26.7751 43.0656 25.5269 43.2963 24.2181C43.5271 22.9094 44.7752 22.0354 46.084 22.2662C47.3928 22.497 48.2668 23.7451 48.036 25.0539Z" fill="#F6C9A7"/>
<path d="M23.6089 20.7472C23.3782 22.056 22.13 22.9299 20.8213 22.6992C19.5125 22.4684 18.6385 21.2202 18.8693 19.9115C19.1001 18.6027 20.3482 17.7287 21.657 17.9595C22.9658 18.1903 23.8397 19.4384 23.6089 20.7472Z" fill="#F6C9A7"/>
<path d="M37.503 34.0211C33.5031 35.9461 28.721 35.1029 25.6207 31.9259C22.1818 28.4017 20.6499 23.4376 21.505 18.5885L22.529 12.7808C23.7184 6.0354 30.1508 1.53138 36.8963 2.72078C43.6417 3.91018 48.1457 10.3426 46.9563 17.088L45.9322 22.8957C45.0772 27.7448 41.9399 31.8856 37.503 34.0211Z" fill="#FFD9BB"/>
<path d="M31.9217 30.9332C29.5249 30.5106 27.9245 28.2251 28.3471 25.8284L37.0266 27.3588C36.604 29.7556 34.3184 31.3559 31.9217 30.9332Z" fill="white"/>
<path d="M32.9592 25.0487C32.1861 24.9124 31.6987 24.1396 31.9089 23.3833L32.6651 20.6619C32.8108 20.1378 33.3306 19.8099 33.8663 19.9044C34.402 19.9988 34.7783 20.4847 34.7359 21.027L34.5157 23.843C34.4546 24.6256 33.7323 25.185 32.9592 25.0487Z" fill="#F4C7A6"/>
<path d="M28.4832 20.0753C27.7005 19.9373 26.9726 20.3556 27.1106 19.5728C27.2486 18.7901 27.9949 18.2676 28.7776 18.4056C29.5603 18.5436 30.0828 19.2899 29.9448 20.0726C29.8068 20.8553 29.2659 20.2133 28.4832 20.0753Z" fill="#563C00"/>
<path d="M38.6488 21.8668C37.8661 21.7288 37.1382 22.1471 37.2762 21.3644C37.4142 20.5817 38.1605 20.0591 38.9432 20.1971C39.7259 20.3352 40.2484 21.0814 40.1104 21.8641C39.9724 22.6468 39.4315 22.0048 38.6488 21.8668Z" fill="#563C00"/>
<path d="M30.2163 16.7991L27.7833 16.3701C27.4115 16.3045 27.1635 15.9501 27.229 15.5783C27.2946 15.2065 27.6489 14.9583 28.0207 15.0239L30.4537 15.4529C30.8254 15.5184 31.0735 15.8729 31.0079 16.2446C30.9424 16.6164 30.5881 16.8646 30.2163 16.7991Z" fill="#563C00"/>
<path d="M40.4782 18.6082L38.0452 18.1792C37.6735 18.1136 37.4254 17.7592 37.491 17.3874C37.5565 17.0156 37.9108 16.7674 38.2826 16.833L40.7156 17.262C41.0874 17.3275 41.3354 17.682 41.2699 18.0538C41.2043 18.4255 40.85 18.6737 40.4782 18.6082Z" fill="#563C00"/>
<path d="M21.4717 18.8333C21.4717 18.8333 20.3066 13.7581 22.0349 8.21504C23.7309 2.77561 27.6642 -1.16795 35.9702 0.315072C41.7717 1.35095 44.8533 3.11337 45.0979 5.35535C45.1632 5.95372 45.5655 6.45993 46.1307 6.66691C47.5238 7.17687 49.9722 8.42553 50.2496 10.9624C50.7819 15.8295 46.4436 23.0148 45.7036 24.1991C45.662 24.2656 45.562 24.2523 45.5401 24.177C45.3522 23.5264 44.7583 21.2626 44.6353 18.2521C44.4888 14.6645 43.8783 12.3772 41.7269 11.9531C39.5755 11.529 36.8579 11.161 33.6386 12.3744C31.8884 13.034 30.2168 13.2469 28.769 13.0029C26.8719 12.6831 24.9838 13.609 24.0943 15.3148C23.423 16.6022 22.545 17.9336 21.4717 18.8333Z" fill="#563C00"/>
</svg>
