<svg width="12" height="12" viewBox="0 0 12 12" fill="none" xmlns="http://www.w3.org/2000/svg">
<path d="M6.85248 2.14271C6.8057 2.09662 6.7503 2.06019 6.68944 2.03551C6.62857 2.01083 6.56345 1.99837 6.49777 1.99886C6.4321 1.99935 6.36716 2.01277 6.30667 2.03835C6.24619 2.06393 6.19133 2.10118 6.14523 2.14796C6.09914 2.19475 6.06271 2.25015 6.03803 2.31101C6.01335 2.37187 6.0009 2.437 6.00138 2.50268C6.00187 2.56835 6.01529 2.63328 6.04087 2.69377C6.06645 2.75426 6.1037 2.80912 6.15048 2.85521L8.83548 5.50021L2.00048 5.50021C1.86788 5.50021 1.7407 5.55289 1.64693 5.64666C1.55316 5.74043 1.50048 5.8676 1.50048 6.00021C1.50048 6.13282 1.55316 6.26 1.64693 6.35377C1.7407 6.44753 1.86788 6.50021 2.00048 6.50021L8.83198 6.50021L6.14998 9.14371C6.05801 9.23732 6.00652 9.36334 6.00664 9.49457C6.00675 9.62581 6.05845 9.75173 6.15059 9.84518C6.24273 9.93863 6.36791 9.99211 6.49913 9.99408C6.63035 9.99605 6.75708 9.94636 6.85198 9.85571L10.314 6.44471C10.3729 6.38657 10.4198 6.31729 10.4517 6.24089C10.4837 6.1645 10.5001 6.08252 10.5001 5.99971C10.5001 5.91691 10.4837 5.83493 10.4517 5.75853C10.4198 5.68214 10.3729 5.61286 10.314 5.55471L6.85198 2.14321L6.85248 2.14271Z" fill="white"/>
</svg>
