<svg width="35" height="35" viewBox="0 0 35 35" fill="none" xmlns="http://www.w3.org/2000/svg">
<path fill-rule="evenodd" clip-rule="evenodd" d="M28.8336 11.7961C28.8435 12.0511 28.8468 12.3061 28.8468 12.5611C28.8468 20.2935 23.4075 29.22 13.4608 29.22C10.4054 29.22 7.56427 28.2462 5.17047 26.5885C5.59362 26.6348 6.02336 26.6697 6.4597 26.6697C8.99307 26.6697 11.3264 25.7305 13.1773 24.1539C10.8109 24.1191 8.81283 22.415 8.12371 20.0964C8.45453 20.166 8.79522 20.2008 9.14363 20.2008C9.63492 20.2008 10.1119 20.1314 10.5691 19.9923C8.09291 19.459 6.22779 17.0941 6.22779 14.2539C6.22779 14.2191 6.22779 14.2075 6.22779 14.1843C6.95758 14.6132 7.79287 14.8797 8.67982 14.9145C7.22684 13.8595 6.27173 12.0627 6.27173 10.034C6.27173 8.96746 6.53771 7.95885 7.00592 7.08939C9.67228 10.6368 13.6587 12.9669 18.1528 13.2104C18.0605 12.7815 18.0132 12.3295 18.0132 11.8773C18.0132 8.64297 20.4345 6.02295 23.4218 6.02295C24.977 6.02295 26.3816 6.73021 27.3674 7.8663C28.6017 7.61126 29.758 7.1244 30.8043 6.45202C30.3987 7.81996 29.5425 8.9674 28.4237 9.68615C29.5183 9.54704 30.5625 9.23427 31.5308 8.77056C30.8043 9.94143 29.8898 10.973 28.8336 11.7961Z" fill="#352474"/>
</svg>
