<svg width="122" height="35" viewBox="0 0 122 35" fill="none" xmlns="http://www.w3.org/2000/svg">
<g clip-path="url(#clip0_1_964)">
<path fill-rule="evenodd" clip-rule="evenodd" d="M85.2487 13.1174C82.4771 13.1174 80.9068 15.5561 80.9068 15.5561H80.8472L81.0837 13.3549H77.4569C77.2791 14.8419 76.9518 17.1008 76.6245 18.7969L73.7696 33.8185H77.875L79.0036 27.755H79.0925C79.0925 27.755 79.9344 28.2942 81.5018 28.2942C86.3167 28.2942 89.4667 23.3564 89.4667 18.3618C89.4667 15.5949 88.2464 13.1269 85.2383 13.1269L85.2487 13.1174ZM69.1903 13.1174C64.2544 13.1174 60.9833 17.5776 60.9833 22.5438C60.9833 25.726 62.9452 28.2829 66.6325 28.2829C71.4804 28.2829 74.7506 23.941 74.7506 18.8518C74.7506 15.9099 73.0261 13.1099 69.1903 13.1099V13.1174ZM41.8619 19.2434C40.8214 18.6787 40.286 18.2028 40.286 17.5483C40.286 16.7158 41.0295 16.1861 42.1892 16.1861C43.54 16.1861 44.7461 16.7537 44.7461 16.7537L45.6977 13.8401C45.6977 13.8401 44.818 13.1562 42.245 13.1562C38.6599 13.1562 36.172 15.2089 36.172 18.0941C36.172 19.7287 37.3308 20.9773 38.8775 21.8684C40.1261 22.5826 40.5726 23.0887 40.5726 23.8322C40.5726 24.605 39.9483 25.2293 38.7876 25.2293C37.0603 25.2293 35.4266 24.3373 35.4266 24.3373L34.423 27.2433C34.423 27.2433 35.9318 28.2554 38.4679 28.2554C42.1571 28.2554 44.8019 26.442 44.8019 23.171C44.8019 21.4172 43.4643 20.1676 41.8581 19.2453L41.8619 19.2434ZM89.5906 27.9858H93.6941L96.4884 13.4447H92.3546L89.5906 27.9858ZM106.927 13.4145H104.07L104.222 12.7334C104.458 11.3428 105.29 10.0942 106.659 10.0942C107.39 10.0942 107.967 10.3023 107.967 10.3023L108.772 7.09081C108.772 7.09081 108.056 6.73419 106.539 6.73419C105.082 6.73419 103.626 7.15041 102.525 8.10298C101.128 9.29109 100.473 11.0165 100.146 12.74L100.023 13.4249H98.1221L97.5261 16.5181H99.4275L97.2613 27.9962H101.36L103.531 16.5172H106.356L106.919 13.4239L106.927 13.4145ZM81.323 25.1906C80.2579 25.1906 79.6279 24.5946 79.6279 24.5946L80.3118 20.7597C80.7942 18.2028 82.128 16.5077 83.5564 16.5077C84.805 16.5077 85.1929 17.6712 85.1929 18.7685C85.1929 21.4172 83.6132 25.1915 81.324 25.1915L81.323 25.1906ZM67.1679 25.131C65.7707 25.131 65.1757 23.9419 65.1757 22.4539C65.1757 20.1051 66.396 16.2693 68.6246 16.2693C70.0814 16.2693 70.5581 17.518 70.5581 18.7288C70.5581 21.2545 69.3379 25.1234 67.1679 25.1234V25.131ZM116.799 13.4447C116.799 13.4447 114.233 19.9084 113.081 23.4358H113.023C112.947 22.3007 112.02 13.4447 112.02 13.4447H107.706L110.175 26.7968C110.232 27.0938 110.204 27.2716 110.087 27.4807C109.612 28.4077 108.808 29.2969 107.855 29.9496C107.084 30.5172 106.221 30.8766 105.537 31.1131L106.668 34.5942C107.5 34.4145 109.222 33.7334 110.679 32.3618C112.552 30.6118 114.28 27.9064 116.061 24.2172L121.081 13.4514H116.801L116.799 13.4447ZM56.5515 13.1174C54.7372 13.1174 53.3107 13.9801 52.2096 15.2884L52.151 15.2581L53.7307 7.02176H49.6253L45.6429 27.9858H49.7483L51.1199 20.8193C51.6591 18.1045 53.0544 16.4396 54.3645 16.4396C55.2839 16.4396 55.6415 17.0639 55.6415 17.955C55.6415 18.5197 55.581 19.2037 55.4618 19.7712L53.9104 27.9802H58.0158L59.6192 19.5045C59.799 18.6134 59.9181 17.5435 59.9181 16.8303C59.9181 14.5099 58.6979 13.1127 56.56 13.1127L56.5515 13.1174ZM95.3296 7.22987C94.0214 7.22987 92.9799 8.27041 92.9799 9.60798C92.9799 10.8282 93.7537 11.6607 94.9134 11.6607H94.9721C96.2491 11.6607 97.3464 10.798 97.3748 9.28163C97.3748 8.09163 96.5707 7.22892 95.3221 7.22892L95.3296 7.22987ZM15.7188 12.0674L14.4323 15.8947C14.4323 15.8947 13.3038 15.2931 11.9218 15.2931C9.89555 15.2931 9.79338 16.5645 9.79338 16.8851C9.79338 18.6333 14.35 19.303 14.35 23.398C14.35 26.6199 12.3068 28.6953 9.55217 28.6953C6.24514 28.6953 4.55473 26.6369 4.55473 26.6369L5.44014 23.7045C5.44014 23.7045 7.18068 25.1943 8.6469 25.1943C9.6023 25.1943 9.9996 24.4404 9.9996 23.8889C9.9996 21.6092 6.26311 21.5051 6.26311 17.7592C6.26311 14.6054 8.52392 11.5538 13.0966 11.5538C14.8561 11.5538 15.7264 12.058 15.7264 12.058L15.7188 12.0674ZM13.6803 1.16824C13.8676 1.16824 14.0568 1.23162 14.2384 1.35743C12.8422 2.01297 11.3466 3.66743 10.7147 6.97163L8.05379 7.7946C8.79446 5.27554 10.5511 1.16824 13.6803 1.16824ZM14.9743 2.39324C15.243 3.06487 15.417 4.02689 15.417 5.32568V5.51487L12.0495 6.55825C12.6984 4.05716 13.913 2.84824 14.9753 2.39324H14.9743ZM18.1877 4.65784L16.5578 5.16203V4.81203C16.5578 3.73365 16.4093 2.86716 16.17 2.17946C17.133 2.30054 17.7753 3.39689 18.1877 4.65784ZM22.996 6.09852C22.996 6.09852 25.5926 6.29054 25.7146 6.30095C25.8376 6.31987 25.9861 6.405 26.0097 6.57527C26.0324 6.74554 29.6961 31.5199 29.6961 31.5199L19.2595 33.7703L0 30.1624C0 30.1624 2.47176 11.0477 2.56541 10.3732C2.68838 9.48406 2.71865 9.45379 3.6627 9.15771L6.71149 8.21176C7.36419 5.44865 9.44528 0 13.8014 0C14.3689 0 15.0283 0.305541 15.5608 1.00838C15.6128 1.00554 15.6649 1.00365 15.7178 1.00365C17.587 1.00365 18.6503 2.6023 19.2519 4.33338L20.2612 4.02122C20.4031 3.98338 20.791 3.91716 20.9896 4.11581L22.4189 5.53379L22.996 6.10514V6.09852Z" fill="#B9BEC7"/>
</g>
<defs>
<clipPath id="clip0_1_964">
<rect width="121.044" height="34.9892" fill="white" transform="scale(1.00031)"/>
</clipPath>
</defs>
</svg>
