<svg width="49" height="49" viewBox="0 0 49 49" fill="none" xmlns="http://www.w3.org/2000/svg">
<g filter="url(#filter0_d_1817_3655)">
<rect x="7.28564" y="6.5" width="33.8857" height="33.8857" rx="16.9429" fill="#352474" shape-rendering="crispEdges"/>
<path d="M24.2285 16.6431C26.4285 16.6431 26.7285 16.6431 27.6285 16.6431C28.4285 16.6431 28.8285 16.8431 29.1285 16.9431C29.5285 17.1431 29.8285 17.2431 30.1285 17.5431C30.4285 17.8431 30.6285 18.1431 30.7285 18.5431C30.8285 18.8431 30.9285 19.2431 31.0285 20.0431C31.0285 20.9431 31.0285 21.1431 31.0285 23.4431C31.0285 25.7431 31.0285 25.9431 31.0285 26.8431C31.0285 27.6431 30.8285 28.0431 30.7285 28.3431C30.5285 28.7431 30.4285 29.0431 30.1285 29.3431C29.8285 29.6431 29.5285 29.8431 29.1285 29.9431C28.8285 30.0431 28.4285 30.1431 27.6285 30.2431C26.7285 30.2431 26.5285 30.2431 24.2285 30.2431C21.9285 30.2431 21.7285 30.2431 20.8285 30.2431C20.0285 30.2431 19.6285 30.0431 19.3285 29.9431C18.9285 29.7431 18.6285 29.6431 18.3285 29.3431C18.0285 29.0431 17.8285 28.7431 17.7285 28.3431C17.6285 28.0431 17.5285 27.6431 17.4285 26.8431C17.4285 25.9431 17.4285 25.7431 17.4285 23.4431C17.4285 21.1431 17.4285 20.9431 17.4285 20.0431C17.4285 19.2431 17.6285 18.8431 17.7285 18.5431C17.9285 18.1431 18.0285 17.8431 18.3285 17.5431C18.6285 17.2431 18.9285 17.0431 19.3285 16.9431C19.6285 16.8431 20.0285 16.7431 20.8285 16.6431C21.7285 16.6431 22.0285 16.6431 24.2285 16.6431ZM24.2285 15.1431C21.9285 15.1431 21.7285 15.1431 20.8285 15.1431C19.9285 15.1431 19.3285 15.3431 18.8285 15.5431C18.3285 15.7431 17.8285 16.0431 17.3285 16.5431C16.8285 17.0431 16.6285 17.4431 16.3285 18.0431C16.1285 18.5431 16.0285 19.1431 15.9285 20.0431C15.9285 20.9431 15.9285 21.2431 15.9285 23.4431C15.9285 25.7431 15.9285 25.9431 15.9285 26.8431C15.9285 27.7431 16.1285 28.3431 16.3285 28.8431C16.5285 29.3431 16.8285 29.8431 17.3285 30.3431C17.8285 30.8431 18.2285 31.0431 18.8285 31.3431C19.3285 31.5431 19.9285 31.6431 20.8285 31.7431C21.7285 31.7431 22.0285 31.7431 24.2285 31.7431C26.4285 31.7431 26.7285 31.7431 27.6285 31.7431C28.5285 31.7431 29.1285 31.5431 29.6285 31.3431C30.1285 31.1431 30.6285 30.8431 31.1285 30.3431C31.6285 29.8431 31.8285 29.4431 32.1285 28.8431C32.3285 28.3431 32.4285 27.7431 32.5285 26.8431C32.5285 25.9431 32.5285 25.6431 32.5285 23.4431C32.5285 21.2431 32.5285 20.9431 32.5285 20.0431C32.5285 19.1431 32.3285 18.5431 32.1285 18.0431C31.9285 17.5431 31.6285 17.0431 31.1285 16.5431C30.6285 16.0431 30.2285 15.8431 29.6285 15.5431C29.1285 15.3431 28.5285 15.2431 27.6285 15.1431C26.7285 15.1431 26.5285 15.1431 24.2285 15.1431Z" fill="#FEFEFE"/>
<path d="M24.2285 19.1431C21.8285 19.1431 19.9285 21.0431 19.9285 23.4431C19.9285 25.8431 21.8285 27.7431 24.2285 27.7431C26.6285 27.7431 28.5285 25.8431 28.5285 23.4431C28.5285 21.0431 26.6285 19.1431 24.2285 19.1431ZM24.2285 26.2431C22.7285 26.2431 21.4285 25.0431 21.4285 23.4431C21.4285 21.9431 22.6285 20.6431 24.2285 20.6431C25.7285 20.6431 27.0285 21.8431 27.0285 23.4431C27.0285 24.9431 25.7285 26.2431 24.2285 26.2431Z" fill="#FEFEFE"/>
<path d="M28.6285 20.0431C29.1808 20.0431 29.6285 19.5954 29.6285 19.0431C29.6285 18.4908 29.1808 18.0431 28.6285 18.0431C28.0762 18.0431 27.6285 18.4908 27.6285 19.0431C27.6285 19.5954 28.0762 20.0431 28.6285 20.0431Z" fill="#FEFEFE"/>
</g>
<defs>
<filter id="filter0_d_1817_3655" x="0.405644" y="0.5" width="47.6457" height="47.6457" filterUnits="userSpaceOnUse" color-interpolation-filters="sRGB">
<feFlood flood-opacity="0" result="BackgroundImageFix"/>
<feColorMatrix in="SourceAlpha" type="matrix" values="0 0 0 0 0 0 0 0 0 0 0 0 0 0 0 0 0 0 127 0" result="hardAlpha"/>
<feOffset dy="0.88"/>
<feGaussianBlur stdDeviation="3.44"/>
<feComposite in2="hardAlpha" operator="out"/>
<feColorMatrix type="matrix" values="0 0 0 0 0 0 0 0 0 0 0 0 0 0 0 0 0 0 0.1 0"/>
<feBlend mode="normal" in2="BackgroundImageFix" result="effect1_dropShadow_1817_3655"/>
<feBlend mode="normal" in="SourceGraphic" in2="effect1_dropShadow_1817_3655" result="shape"/>
</filter>
</defs>
</svg>
