<svg width="32" height="32" viewBox="0 0 32 32" fill="none" xmlns="http://www.w3.org/2000/svg">
<path d="M22.2435 12.7993C22.3395 13.8056 22.3987 14.8664 22.3987 15.9991C22.3987 16.4234 22.2302 16.8304 21.9301 17.1304C21.6301 17.4304 21.2231 17.599 20.7988 17.599C20.3745 17.599 19.9676 17.4304 19.6675 17.1304C19.3675 16.8304 19.1989 16.4234 19.1989 15.9991C19.1989 14.8584 19.1365 13.7944 19.0309 12.7993H12.9465C12.7241 14.9272 12.7225 17.071 12.9401 19.1989H15.9991C16.4234 19.1989 16.8304 19.3675 17.1304 19.6675C17.4304 19.9676 17.599 20.3745 17.599 20.7988C17.599 21.2231 17.4304 21.6301 17.1304 21.9301C16.8304 22.2302 16.4234 22.3987 15.9991 22.3987H13.4648C14.2152 25.7265 15.3879 27.8544 16.0007 28.7984C16.0007 28.7984 17.263 28.8192 17.4822 28.8016C17.9047 28.7742 18.321 28.914 18.6413 29.1909C18.9616 29.4677 19.1601 29.8595 19.1941 30.2815C19.2249 30.7045 19.0865 31.1224 18.8093 31.4435C18.5321 31.7645 18.1388 31.9623 17.7158 31.9934C17.5654 32.0046 15.9991 31.9982 15.9991 31.9982C7.17719 31.9982 0 24.821 0 15.9991C0 7.17559 7.17719 0 15.9991 0C24.821 0 31.9982 7.17559 31.9982 15.9991C31.9982 16.6055 31.9406 17.1974 31.8718 17.7846C31.8082 18.1941 31.5884 18.5631 31.2585 18.8139C30.9286 19.0647 30.5143 19.1779 30.1027 19.1296C29.6911 19.0814 29.3142 18.8754 29.0513 18.5551C28.7884 18.2347 28.6598 17.8249 28.6928 17.4118C28.7488 16.9462 28.7984 16.4791 28.7984 15.9991C28.7984 14.892 28.6416 13.8232 28.3776 12.7993H22.2435ZM15.9799 3.25741C15.3623 4.22696 14.22 6.34684 13.4776 9.59945H18.4965C17.751 6.34684 16.6007 4.22696 15.9799 3.25741ZM3.62059 19.1989H9.73065C9.63075 18.1374 9.58004 17.0717 9.57866 16.0055C9.57866 14.9336 9.63145 13.8648 9.73225 12.7993H3.62059C3.34497 13.8437 3.20357 14.9189 3.19982 15.9991C3.20381 17.0792 3.34521 18.1545 3.62059 19.1989ZM4.93092 22.3987C6.51082 25.1245 9.03714 27.1748 12.0297 28.16C11.1961 26.3173 10.5797 24.3839 10.193 22.3987H4.93092ZM10.1962 9.59945C10.5828 7.61284 11.2003 5.67823 12.0361 3.83498C9.04057 4.81943 6.51167 6.87114 4.93092 9.59945H10.1962ZM21.778 9.59945H27.0657C25.4784 6.8583 22.9343 4.80024 19.9221 3.82058C20.7659 5.66715 21.3888 7.60686 21.778 9.59945Z" fill="#B9BEC7"/>
<path d="M24.3553 30.3102L20.2756 21.3347C20.2083 21.1865 20.1878 21.0212 20.2168 20.8611C20.2459 20.7009 20.3232 20.5534 20.4383 20.4383C20.5534 20.3232 20.7009 20.2459 20.8611 20.2168C21.0212 20.1878 21.1865 20.2083 21.3347 20.2756L30.3102 24.3553C30.448 24.4177 30.5653 24.5179 30.6485 24.6442C30.7317 24.7705 30.7774 24.9179 30.7802 25.0691C30.7831 25.2203 30.743 25.3693 30.6646 25.4987C30.5862 25.6281 30.4728 25.7326 30.3374 25.8001L27.5504 27.192C27.3958 27.2697 27.2706 27.3955 27.1936 27.5504L25.8001 30.3374C25.7326 30.4728 25.6281 30.5862 25.4987 30.6646C25.3693 30.743 25.2203 30.7831 25.0691 30.7803C24.9179 30.7774 24.7705 30.7317 24.6442 30.6485C24.5179 30.5653 24.4177 30.448 24.3553 30.3102Z" fill="#B9BEC7"/>
</svg>
