<svg width="28" height="26" viewBox="0 0 28 26" fill="none" xmlns="http://www.w3.org/2000/svg">
<mask id="mask0_0_28" style="mask-type:alpha" maskUnits="userSpaceOnUse" x="-4" y="-3" width="32" height="33">
<rect x="-4" y="-2.66602" width="32" height="32" fill="#D9D9D9"/>
</mask>
<g mask="url(#mask0_0_28)">
<path d="M2.66667 24C1.93333 24 1.30556 23.7389 0.783333 23.2167C0.261111 22.6944 0 22.0667 0 21.3333V2.66667C0 1.93333 0.261111 1.30556 0.783333 0.783333C1.30556 0.261111 1.93333 0 2.66667 0H21.3333C22.0667 0 22.6944 0.261111 23.2167 0.783333C23.7389 1.30556 24 1.93333 24 2.66667V12.1C23.7778 12.0556 23.5611 12.0278 23.35 12.0167C23.1389 12.0056 22.9111 12 22.6667 12H14.6667C13.8444 12 13.0611 12.1167 12.3167 12.35C11.5722 12.5833 10.8778 12.9111 10.2333 13.3333H5.33333V18.6667H6.76667C6.72222 18.8889 6.69445 19.1056 6.68333 19.3167C6.67222 19.5278 6.66667 19.7556 6.66667 20C6.66667 20.7111 6.75556 21.4056 6.93333 22.0833C7.11111 22.7611 7.37778 23.4 7.73333 24H2.66667ZM5.33333 10.6667H10.6667V5.33333H5.33333V10.6667ZM13.3333 10.6667H18.6667V5.33333H13.3333V10.6667ZM14.6667 25.3333C13.2 25.3333 11.9444 24.8111 10.9 23.7667C9.85556 22.7222 9.33333 21.4667 9.33333 20C9.33333 18.5333 9.85556 17.2778 10.9 16.2333C11.9444 15.1889 13.2 14.6667 14.6667 14.6667H16C16.3778 14.6667 16.6944 14.7944 16.95 15.05C17.2056 15.3056 17.3333 15.6222 17.3333 16C17.3333 16.3778 17.2056 16.6944 16.95 16.95C16.6944 17.2056 16.3778 17.3333 16 17.3333H14.6667C13.9333 17.3333 13.3056 17.5944 12.7833 18.1167C12.2611 18.6389 12 19.2667 12 20C12 20.7333 12.2611 21.3611 12.7833 21.8833C13.3056 22.4056 13.9333 22.6667 14.6667 22.6667H16C16.3778 22.6667 16.6944 22.7944 16.95 23.05C17.2056 23.3056 17.3333 23.6222 17.3333 24C17.3333 24.3778 17.2056 24.6944 16.95 24.95C16.6944 25.2056 16.3778 25.3333 16 25.3333H14.6667ZM16 21.3333C15.6222 21.3333 15.3056 21.2056 15.05 20.95C14.7944 20.6944 14.6667 20.3778 14.6667 20C14.6667 19.6222 14.7944 19.3056 15.05 19.05C15.3056 18.7944 15.6222 18.6667 16 18.6667H21.3333C21.7111 18.6667 22.0278 18.7944 22.2833 19.05C22.5389 19.3056 22.6667 19.6222 22.6667 20C22.6667 20.3778 22.5389 20.6944 22.2833 20.95C22.0278 21.2056 21.7111 21.3333 21.3333 21.3333H16ZM22.6667 25.3333H21.3333C20.9556 25.3333 20.6389 25.2056 20.3833 24.95C20.1278 24.6944 20 24.3778 20 24C20 23.6222 20.1278 23.3056 20.3833 23.05C20.6389 22.7944 20.9556 22.6667 21.3333 22.6667H22.6667C23.4 22.6667 24.0278 22.4056 24.55 21.8833C25.0722 21.3611 25.3333 20.7333 25.3333 20C25.3333 19.2667 25.0722 18.6389 24.55 18.1167C24.0278 17.5944 23.4 17.3333 22.6667 17.3333H21.3333C20.9556 17.3333 20.6389 17.2056 20.3833 16.95C20.1278 16.6944 20 16.3778 20 16C20 15.6222 20.1278 15.3056 20.3833 15.05C20.6389 14.7944 20.9556 14.6667 21.3333 14.6667H22.6667C24.1333 14.6667 25.3889 15.1833 26.4333 16.2167C27.4778 17.25 28 18.5111 28 20C28 21.4667 27.4778 22.7222 26.4333 23.7667C25.3889 24.8111 24.1333 25.3333 22.6667 25.3333Z" fill="#1C1B1F"/>
</g>
</svg>
