<svg width="24" height="24" viewBox="0 0 24 24" fill="none" xmlns="http://www.w3.org/2000/svg">
<path d="M18.3297 7.17047C18.1831 7.02384 18.1831 6.78647 18.3297 6.64022L18.8599 6.10997C19.0066 5.96334 19.2439 5.96334 19.3902 6.10997C19.5368 6.25659 19.5368 6.49397 19.3902 6.64022L18.8599 7.17047C18.7133 7.31709 18.4759 7.31709 18.3297 7.17047Z" fill="#00A0C8"/>
<path d="M18.3297 10.0807C18.4763 9.93405 18.7137 9.93405 18.8599 10.0807L19.3902 10.6109C19.5368 10.7575 19.5368 10.9949 19.3902 11.1412C19.2436 11.2878 19.0062 11.2878 18.8599 11.1412L18.3297 10.6109C18.1831 10.4643 18.1831 10.2269 18.3297 10.0807Z" fill="#0A5078"/>
<path d="M18.75 8.625C18.75 8.418 18.918 8.25 19.125 8.25H19.875C20.082 8.25 20.25 8.418 20.25 8.625C20.25 8.832 20.082 9 19.875 9H19.125C18.918 9 18.75 8.832 18.75 8.625Z" fill="#C80A50"/>
<path d="M4.92047 10.0807C5.06709 10.2273 5.06709 10.4647 4.92047 10.6109L4.39022 11.1412C4.24359 11.2878 4.00622 11.2878 3.85997 11.1412C3.71334 10.9945 3.71334 10.7572 3.85997 10.6109L4.39022 10.0807C4.53684 9.93405 4.77422 9.93405 4.92047 10.0807Z" fill="#00A0C8"/>
<path d="M4.92047 7.17047C4.77384 7.31709 4.53647 7.31709 4.39022 7.17047L3.85997 6.64022C3.71334 6.49359 3.71334 6.25622 3.85997 6.10997C4.00659 5.96334 4.24397 5.96334 4.39022 6.10997L4.92047 6.64022C5.06709 6.78684 5.06709 7.02422 4.92047 7.17047Z" fill="#0A5078"/>
<path d="M4.5 8.625C4.5 8.832 4.332 9 4.125 9H3.375C3.168 9 3 8.832 3 8.625C3 8.418 3.168 8.25 3.375 8.25H4.125C4.332 8.25 4.5 8.418 4.5 8.625Z" fill="#C80A50"/>
<path d="M17.25 3.75V18C17.25 18.4125 16.9125 18.75 16.5 18.75H6.75C6.3375 18.75 6 18.4125 6 18V3.75C6 3.3375 6.3375 3 6.75 3H16.5C16.9125 3 17.25 3.3375 17.25 3.75Z" fill="#FAB400"/>
<path d="M16.123 14.5028V6.375C16.123 6.168 15.955 6 15.748 6H7.49805C7.29105 6 7.12305 6.168 7.12305 6.375V17.25C7.12305 17.457 7.29105 17.625 7.49805 17.625H13.8839C13.8644 18.0022 13.8903 18.3476 14.0024 18.75H16.4999C16.9124 18.75 17.2499 18.4125 17.2499 18V14.2537C16.8528 14.2744 16.4752 14.3632 16.123 14.5028Z" fill="#DC9600"/>
<path d="M13.873 6.9375H9.37305C9.06292 6.9375 8.81055 6.68512 8.81055 6.375V5.25C8.81055 4.93988 9.06292 4.6875 9.37305 4.6875H13.873C14.1832 4.6875 14.4355 4.93988 14.4355 5.25V6.375C14.4355 6.68512 14.1832 6.9375 13.873 6.9375ZM9.37305 5.0625C9.26992 5.0625 9.18555 5.1465 9.18555 5.25V6.375C9.18555 6.4785 9.26992 6.5625 9.37305 6.5625H13.873C13.9762 6.5625 14.0605 6.4785 14.0605 6.375V5.25C14.0605 5.1465 13.9762 5.0625 13.873 5.0625H9.37305Z" fill="#DC9600"/>
<path d="M13.123 5.625H10.123C9.91605 5.625 9.74805 5.457 9.74805 5.25V4.5C9.74805 4.293 9.91605 4.125 10.123 4.125H13.123C13.33 4.125 13.498 4.293 13.498 4.5V5.25C13.498 5.457 13.3304 5.625 13.123 5.625Z" fill="#DC9600"/>
<path d="M16.124 6V16.875C16.124 17.0813 15.9553 17.25 15.749 17.25H7.49902C7.29277 17.25 7.12402 17.0813 7.12402 16.875V6C7.12402 5.79375 7.29277 5.625 7.49902 5.625H15.749C15.9553 5.625 16.124 5.79375 16.124 6Z" fill="#F0F0F0"/>
<path d="M17.4375 21C19.405 21 21 19.405 21 17.4375C21 15.47 19.405 13.875 17.4375 13.875C15.47 13.875 13.875 15.47 13.875 17.4375C13.875 19.405 15.47 21 17.4375 21Z" fill="#00A0C8"/>
<path d="M17.4375 20.25C18.9908 20.25 20.25 18.9908 20.25 17.4375C20.25 15.8842 18.9908 14.625 17.4375 14.625C15.8842 14.625 14.625 15.8842 14.625 17.4375C14.625 18.9908 15.8842 20.25 17.4375 20.25Z" fill="#0A5078"/>
<path d="M17.0626 19.1251C16.9666 19.1251 16.8706 19.0883 16.7975 19.0152L16.0475 18.2652C15.9008 18.1186 15.9008 17.8816 16.0475 17.735C16.1941 17.5883 16.4311 17.5883 16.5777 17.735L17.0626 18.2198L18.2975 16.985C18.4441 16.8383 18.6811 16.8383 18.8277 16.985C18.9743 17.1316 18.9743 17.3686 18.8277 17.5152L17.3277 19.0152C17.2546 19.0883 17.1586 19.1251 17.0626 19.1251Z" fill="#00325A"/>
<path d="M20.25 17.4375C20.25 17.5013 20.2463 17.5612 20.2388 17.625C20.1488 16.1587 18.9262 15 17.4375 15C15.9488 15 14.7262 16.1587 14.6362 17.625C14.6287 17.5612 14.625 17.5013 14.625 17.4375C14.625 15.885 15.885 14.625 17.4375 14.625C18.99 14.625 20.25 15.885 20.25 17.4375Z" fill="#00325A"/>
<path d="M14.0605 5.625V6.375C14.0605 6.48 13.978 6.5625 13.873 6.5625H9.37305C9.26805 6.5625 9.18555 6.48 9.18555 6.375V5.625H8.81055V6.375C8.81055 6.68625 9.0618 6.9375 9.37305 6.9375H13.873C14.1843 6.9375 14.4355 6.68625 14.4355 6.375V5.625H14.0605Z" fill="#D2D2D2"/>
<path d="M13.873 6.5625H9.37305C9.06292 6.5625 8.81055 6.31012 8.81055 6V4.875C8.81055 4.56488 9.06292 4.3125 9.37305 4.3125H13.873C14.1832 4.3125 14.4355 4.56488 14.4355 4.875V6C14.4355 6.31012 14.1832 6.5625 13.873 6.5625ZM9.37305 4.6875C9.26992 4.6875 9.18555 4.7715 9.18555 4.875V6C9.18555 6.1035 9.26992 6.1875 9.37305 6.1875H13.873C13.9762 6.1875 14.0605 6.1035 14.0605 6V4.875C14.0605 4.7715 13.9762 4.6875 13.873 4.6875H9.37305Z" fill="#C80A50"/>
<path d="M13.123 5.25H10.123C9.91605 5.25 9.74805 5.082 9.74805 4.875V4.125C9.74805 3.918 9.91605 3.75 10.123 3.75H13.123C13.33 3.75 13.498 3.918 13.498 4.125V4.875C13.498 5.082 13.3304 5.25 13.123 5.25Z" fill="#0A5078"/>
<path d="M13.498 4.5V4.875C13.498 5.08125 13.3293 5.25 13.123 5.25H10.123C9.9168 5.25 9.74805 5.08125 9.74805 4.875V4.5C9.74805 4.70625 9.9168 4.875 10.123 4.875H13.123C13.3293 4.875 13.498 4.70625 13.498 4.5Z" fill="#00325A"/>
<path d="M10.874 13.5H8.81152C8.70802 13.5 8.62402 13.416 8.62402 13.3125C8.62402 13.209 8.70802 13.125 8.81152 13.125H10.874C10.9775 13.125 11.0615 13.209 11.0615 13.3125C11.0615 13.416 10.9775 13.5 10.874 13.5Z" fill="#0A5078"/>
<path d="M14.4365 13.5H11.624C11.5205 13.5 11.4365 13.416 11.4365 13.3125C11.4365 13.209 11.5205 13.125 11.624 13.125H14.4365C14.54 13.125 14.624 13.209 14.624 13.3125C14.624 13.416 14.54 13.5 14.4365 13.5Z" fill="#0A5078"/>
<path d="M12.374 13.875H14.4365C14.54 13.875 14.624 13.959 14.624 14.0625C14.624 14.166 14.54 14.25 14.4365 14.25H12.374C12.2705 14.25 12.1865 14.166 12.1865 14.0625C12.1865 13.959 12.2701 13.875 12.374 13.875Z" fill="#0A5078"/>
<path d="M8.81152 13.875H11.624C11.7275 13.875 11.8115 13.959 11.8115 14.0625C11.8115 14.166 11.7275 14.25 11.624 14.25H8.81152C8.70802 14.25 8.62402 14.166 8.62402 14.0625C8.62402 13.959 8.70765 13.875 8.81152 13.875Z" fill="#0A5078"/>
<path d="M10.874 10.875H8.81152C8.70802 10.875 8.62402 10.791 8.62402 10.6875C8.62402 10.584 8.70802 10.5 8.81152 10.5H10.874C10.9775 10.5 11.0615 10.584 11.0615 10.6875C11.0615 10.791 10.9775 10.875 10.874 10.875Z" fill="#0A5078"/>
<path d="M14.4365 10.875H11.624C11.5205 10.875 11.4365 10.791 11.4365 10.6875C11.4365 10.584 11.5205 10.5 11.624 10.5H14.4365C14.54 10.5 14.624 10.584 14.624 10.6875C14.624 10.791 14.54 10.875 14.4365 10.875Z" fill="#0A5078"/>
<path d="M12.374 11.25H14.4365C14.54 11.25 14.624 11.334 14.624 11.4375C14.624 11.541 14.54 11.625 14.4365 11.625H12.374C12.2705 11.625 12.1865 11.541 12.1865 11.4375C12.1865 11.334 12.2701 11.25 12.374 11.25Z" fill="#0A5078"/>
<path d="M8.81152 11.25H11.624C11.7275 11.25 11.8115 11.334 11.8115 11.4375C11.8115 11.541 11.7275 11.625 11.624 11.625H8.81152C8.70802 11.625 8.62402 11.541 8.62402 11.4375C8.62402 11.334 8.70765 11.25 8.81152 11.25Z" fill="#0A5078"/>
<path d="M10.874 8.25H8.81152C8.70802 8.25 8.62402 8.166 8.62402 8.0625C8.62402 7.959 8.70802 7.875 8.81152 7.875H10.874C10.9775 7.875 11.0615 7.959 11.0615 8.0625C11.0615 8.166 10.9775 8.25 10.874 8.25Z" fill="#0A5078"/>
<path d="M14.4365 8.25H11.624C11.5205 8.25 11.4365 8.166 11.4365 8.0625C11.4365 7.959 11.5205 7.875 11.624 7.875H14.4365C14.54 7.875 14.624 7.959 14.624 8.0625C14.624 8.166 14.54 8.25 14.4365 8.25Z" fill="#0A5078"/>
<path d="M12.374 8.625H14.4365C14.54 8.625 14.624 8.709 14.624 8.8125C14.624 8.916 14.54 9 14.4365 9H12.374C12.2705 9 12.1865 8.916 12.1865 8.8125C12.1865 8.709 12.2701 8.625 12.374 8.625Z" fill="#0A5078"/>
<path d="M8.81152 8.625H11.624C11.7275 8.625 11.8115 8.709 11.8115 8.8125C11.8115 8.916 11.7275 9 11.624 9H8.81152C8.70802 9 8.62402 8.916 8.62402 8.8125C8.62402 8.709 8.70765 8.625 8.81152 8.625Z" fill="#0A5078"/>
<path d="M17.0626 18.7501C16.9666 18.7501 16.8706 18.7133 16.7975 18.6402L16.0475 17.8902C15.9008 17.7436 15.9008 17.5066 16.0475 17.36C16.1941 17.2133 16.4311 17.2133 16.5777 17.36L17.0626 17.8448L18.2975 16.61C18.4441 16.4633 18.6811 16.4633 18.8277 16.61C18.9743 16.7566 18.9743 16.9936 18.8277 17.1402L17.3277 18.6402C17.2546 18.7133 17.1586 18.7501 17.0626 18.7501Z" fill="#F0F0F0"/>
</svg>
