<svg width="22" height="22" viewBox="0 0 22 22" fill="none" xmlns="http://www.w3.org/2000/svg">
<path d="M2.75 9.16674V12.8334C2.75 13.3376 3.1625 13.7501 3.66667 13.7501H6.41667L9.4325 16.7659C10.01 17.3434 11 16.9309 11 16.1151V5.87591C11 5.06008 10.01 4.64758 9.4325 5.22508L6.41667 8.25008H3.66667C3.1625 8.25008 2.75 8.66258 2.75 9.16674ZM15.125 11.0001C15.125 9.37758 14.19 7.98424 12.8333 7.30591V14.6851C14.19 14.0159 15.125 12.6226 15.125 11.0001ZM12.8333 4.07924V4.26258C12.8333 4.61091 13.0625 4.91341 13.3833 5.04174C15.7483 5.98591 17.4167 8.30508 17.4167 11.0001C17.4167 13.6951 15.7483 16.0142 13.3833 16.9584C13.0533 17.0867 12.8333 17.3892 12.8333 17.7376V17.9209C12.8333 18.4984 13.4108 18.9017 13.9425 18.7001C17.05 17.5176 19.25 14.5201 19.25 11.0001C19.25 7.48008 17.05 4.48258 13.9425 3.30008C13.4108 3.08924 12.8333 3.50174 12.8333 4.07924Z" fill="black"/>
</svg>
