<svg width="24" height="24" viewBox="0 0 24 24" fill="none" xmlns="http://www.w3.org/2000/svg">
<path fill-rule="evenodd" clip-rule="evenodd" d="M19.7719 8.08961C19.7787 8.26449 19.7809 8.43931 19.7809 8.61419C19.7809 13.9164 16.0511 20.0375 9.23048 20.0375C7.13532 20.0375 5.18712 19.3697 3.54565 18.233C3.83581 18.2648 4.13049 18.2887 4.4297 18.2887C6.16687 18.2887 7.76688 17.6446 9.03604 16.5635C7.41342 16.5397 6.04328 15.3711 5.57074 13.7813C5.79759 13.829 6.0312 13.8529 6.27011 13.8529C6.607 13.8529 6.93408 13.8052 7.2476 13.7098C5.54962 13.3442 4.27068 11.7225 4.27068 9.77496C4.27068 9.75111 4.27068 9.74312 4.27068 9.72722C4.7711 10.0213 5.34387 10.2041 5.95207 10.2279C4.95574 9.50454 4.30081 8.27243 4.30081 6.8813C4.30081 6.14996 4.48319 5.45833 4.80425 4.86214C6.63262 7.29463 9.36615 8.89247 12.4478 9.0594C12.3845 8.76528 12.3521 8.45533 12.3521 8.14531C12.3521 5.92745 14.0124 4.13086 16.0609 4.13086C17.1273 4.13086 18.0905 4.61584 18.7665 5.39487C19.6128 5.21999 20.4057 4.88614 21.1232 4.42508C20.8451 5.3631 20.258 6.14992 19.4907 6.64278C20.2414 6.54738 20.9574 6.33292 21.6213 6.01494C21.1232 6.81783 20.4961 7.52521 19.7719 8.08961Z" fill="#1EA1F2"/>
</svg>
