<svg width="16" height="16" viewBox="0 0 16 16" fill="none" xmlns="http://www.w3.org/2000/svg">
<path d="M7.99992 2.90234V7.33634L12.9613 7.33567L11.8133 6.18634C11.7286 6.10168 11.6771 5.98944 11.6682 5.87004C11.6592 5.75063 11.6934 5.63198 11.7646 5.53567L11.8133 5.47967C11.8979 5.39499 12.0101 5.34351 12.1296 5.33457C12.249 5.32564 12.3676 5.35986 12.4639 5.431L12.5199 5.47967L14.5179 7.47767C14.6026 7.56233 14.6541 7.67456 14.663 7.79397C14.6719 7.91338 14.6377 8.03202 14.5666 8.12834L14.5179 8.18434L12.5206 10.187C12.4314 10.2759 12.3119 10.3278 12.1861 10.3324C12.0602 10.337 11.9373 10.294 11.8418 10.2119C11.7463 10.1298 11.6853 10.0147 11.671 9.88955C11.6567 9.76444 11.6901 9.63854 11.7646 9.537L11.8126 9.48034L12.9546 8.33567L8.00059 8.33634L7.99992 12.833C7.99995 12.906 7.98399 12.9782 7.95316 13.0444C7.92233 13.1105 7.87738 13.1692 7.82146 13.2161C7.76555 13.2631 7.70002 13.2972 7.6295 13.3162C7.55898 13.3351 7.48517 13.3383 7.41325 13.3257L1.74659 12.3243C1.63097 12.304 1.5262 12.2436 1.45063 12.1538C1.37506 12.064 1.33351 11.9504 1.33325 11.833V3.833C1.33325 3.7145 1.37535 3.59984 1.45203 3.50949C1.52871 3.41913 1.63499 3.35895 1.75192 3.33967L7.41859 2.409C7.49016 2.3972 7.56345 2.40112 7.63336 2.42048C7.70327 2.43984 7.76813 2.47418 7.82344 2.52112C7.87875 2.56805 7.92318 2.62646 7.95366 2.69229C7.98413 2.75812 7.99992 2.8298 7.99992 2.90234ZM5.66792 7.66634C5.49075 7.66634 5.32085 7.73672 5.19557 7.86199C5.0703 7.98726 4.99992 8.15717 4.99992 8.33434C4.99992 8.5115 5.0703 8.68141 5.19557 8.80668C5.32085 8.93196 5.49075 9.00234 5.66792 9.00234C5.84508 9.00234 6.01499 8.93196 6.14027 8.80668C6.26554 8.68141 6.33592 8.5115 6.33592 8.33434C6.33592 8.15717 6.26554 7.98726 6.14027 7.86199C6.01499 7.73672 5.84508 7.66634 5.66792 7.66634Z" fill="white"/>
<path d="M8.66675 12.3347H9.17675L9.24475 12.3307C9.36468 12.3142 9.47456 12.2548 9.55401 12.1634C9.63345 12.0721 9.67707 11.955 9.67675 11.834L9.67208 9.00065H8.66675V12.3347ZM8.66808 6.66732L8.66675 5.81732V3.33398H9.16341C9.28414 3.33397 9.40079 3.37763 9.49184 3.45691C9.58288 3.53619 9.64217 3.64574 9.65875 3.76532L9.66341 3.83332L9.66808 6.66732H8.66808Z" fill="white"/>
</svg>
