<svg width="11" height="10" viewBox="0 0 11 10" fill="none" xmlns="http://www.w3.org/2000/svg">
<mask id="mask0_3101_4108" style="mask-type:alpha" maskUnits="userSpaceOnUse" x="-2" y="-3" width="15" height="15">
<rect x="-1.44794" y="-2.02629" width="13.8949" height="13.8949" fill="#D9D9D9"/>
</mask>
<g mask="url(#mask0_3101_4108)">
<path d="M0.868414 8.97375H3.37908V4.34213H0.868414V8.97375ZM4.24748 8.97375H6.75258V0.868414H4.24748V8.97375ZM7.62098 8.97375H10.1317V5.50003H7.62098V8.97375ZM0 8.79559V4.52029C0 4.23248 0.102479 3.9861 0.307438 3.78115C0.512387 3.57619 0.758765 3.47371 1.04657 3.47371H3.37908V1.04657C3.37908 0.758766 3.48156 0.512388 3.68651 0.307439C3.89146 0.10248 4.13783 0 4.42564 0H6.57442C6.86223 0 7.10861 0.10248 7.31356 0.307439C7.51851 0.512388 7.62098 0.758766 7.62098 1.04657V4.63162H9.95349C10.2413 4.63162 10.4877 4.7341 10.6926 4.93906C10.8976 5.14401 11.0001 5.39038 11.0001 5.67819V8.79559C11.0001 9.0834 10.8976 9.32977 10.6926 9.53472C10.4877 9.73968 10.2413 9.84216 9.95349 9.84216H1.04657C0.758765 9.84216 0.512387 9.73968 0.307438 9.53472C0.102479 9.32977 0 9.0834 0 8.79559Z" fill="#1C1B1F"/>
</g>
</svg>
