<svg width="16" height="16" viewBox="0 0 16 16" fill="none" xmlns="http://www.w3.org/2000/svg">
<path d="M3.66875 3.08532L3.66675 4.50065V11.5033C3.66675 12.078 3.89502 12.6291 4.30135 13.0354C4.70768 13.4417 5.25878 13.67 5.83341 13.67H11.5774C11.4739 13.9625 11.2823 14.2157 11.029 14.3947C10.7756 14.5738 10.473 14.67 10.1627 14.67H5.83341C4.99356 14.67 4.18811 14.3364 3.59424 13.7425C3.00038 13.1486 2.66675 12.3432 2.66675 11.5033V4.50065C2.66675 3.84732 3.08475 3.29065 3.66875 3.08532ZM11.8334 1.33398C12.0304 1.33398 12.2255 1.37278 12.4074 1.44817C12.5894 1.52355 12.7548 1.63404 12.8941 1.77332C13.0334 1.91261 13.1439 2.07797 13.2192 2.25996C13.2946 2.44195 13.3334 2.637 13.3334 2.83398V11.5007C13.3334 11.6976 13.2946 11.8927 13.2192 12.0747C13.1439 12.2567 13.0334 12.422 12.8941 12.5613C12.7548 12.7006 12.5894 12.8111 12.4074 12.8865C12.2255 12.9619 12.0304 13.0007 11.8334 13.0007H5.83341C5.43559 13.0007 5.05406 12.8426 4.77275 12.5613C4.49145 12.28 4.33341 11.8985 4.33341 11.5007V2.83398C4.33341 2.43616 4.49145 2.05463 4.77275 1.77332C5.05406 1.49202 5.43559 1.33398 5.83341 1.33398H11.8334Z" fill="white"/>
</svg>
