<svg width="20" height="20" viewBox="0 0 20 20" fill="none" xmlns="http://www.w3.org/2000/svg">
<path d="M10.0003 1.6665C14.6028 1.6665 18.3337 5.39734 18.3337 9.99984C18.3337 14.6023 14.6028 18.3332 10.0003 18.3332C5.39783 18.3332 1.66699 14.6023 1.66699 9.99984C1.66699 5.39734 5.39783 1.6665 10.0003 1.6665ZM12.942 7.05817L12.872 6.99734C12.7658 6.91885 12.6375 6.876 12.5054 6.87495C12.3734 6.87391 12.2444 6.91471 12.137 6.9915L12.0587 7.05817L10.0003 9.11567L7.94199 7.05734L7.87199 6.99734C7.7658 6.91885 7.63748 6.876 7.50544 6.87495C7.3734 6.87391 7.24441 6.91471 7.13699 6.9915L7.05866 7.05817L6.99783 7.12817C6.91933 7.23436 6.87649 7.36268 6.87544 7.49472C6.87439 7.62677 6.9152 7.75575 6.99199 7.86317L7.05866 7.9415L9.11616 9.99984L7.05783 12.0582L6.99783 12.1282C6.91933 12.2344 6.87649 12.3627 6.87544 12.4947C6.87439 12.6268 6.9152 12.7557 6.99199 12.8632L7.05866 12.9415L7.12866 13.0023C7.23485 13.0808 7.36317 13.1237 7.49521 13.1247C7.62725 13.1258 7.75624 13.085 7.86366 13.0082L7.94199 12.9415L10.0003 10.884L12.0587 12.9423L12.1287 13.0023C12.2348 13.0808 12.3632 13.1237 12.4952 13.1247C12.6273 13.1258 12.7562 13.085 12.8637 13.0082L12.942 12.9415L13.0028 12.8715C13.0813 12.7653 13.1242 12.637 13.1252 12.505C13.1263 12.3729 13.0855 12.2439 13.0087 12.1365L12.942 12.0582L10.8845 9.99984L12.9428 7.9415L13.0028 7.8715C13.0813 7.76532 13.1242 7.637 13.1252 7.50495C13.1263 7.37291 13.0855 7.24392 13.0087 7.1365L12.942 7.05817Z" fill="#EB4131"/>
</svg>
