<svg width="20" height="20" viewBox="0 0 20 20" fill="none" xmlns="http://www.w3.org/2000/svg">
<path d="M15.7634 9.12323C15.7634 13.6415 11.1357 16.425 10.174 16.9552C10.1207 16.9846 10.0608 17 9.99998 17C9.93914 17 9.87929 16.9846 9.82601 16.9552C8.86358 16.425 4.2373 13.6415 4.2373 9.12323C4.2373 5.52133 6.39844 3 10.0003 3C13.6022 3 15.7634 5.52133 15.7634 9.12323Z" stroke="#170F49" stroke-width="1.4" stroke-linecap="round" stroke-linejoin="round"/>
<path d="M7.11914 8.76336C7.11914 9.52758 7.42273 10.2605 7.96312 10.8009C8.50351 11.3413 9.23643 11.6449 10.0007 11.6449C10.7649 11.6449 11.4978 11.3413 12.0382 10.8009C12.5786 10.2605 12.8822 9.52758 12.8822 8.76336C12.8822 7.99913 12.5786 7.2662 12.0382 6.72581C11.4978 6.18542 10.7649 5.88184 10.0007 5.88184C9.23643 5.88184 8.50351 6.18542 7.96312 6.72581C7.42273 7.2662 7.11914 7.99913 7.11914 8.76336V8.76336Z" stroke="#170F49" stroke-width="1.4" stroke-linecap="round" stroke-linejoin="round"/>
</svg>
