<svg width="19" height="14" viewBox="0 0 19 14" fill="none" xmlns="http://www.w3.org/2000/svg">
<path d="M18.9622 6.75151C18.2173 4.82464 16.9241 3.15827 15.2424 1.95837C13.5608 0.758472 11.5644 0.0776315 9.49998 0C7.43559 0.0776315 5.43918 0.758472 3.75752 1.95837C2.07586 3.15827 0.782653 4.82464 0.0377315 6.75151C-0.0125772 6.89066 -0.0125772 7.04304 0.0377315 7.18219C0.782653 9.10906 2.07586 10.7754 3.75752 11.9753C5.43918 13.1752 7.43559 13.8561 9.49998 13.9337C11.5644 13.8561 13.5608 13.1752 15.2424 11.9753C16.9241 10.7754 18.2173 9.10906 18.9622 7.18219C19.0125 7.04304 19.0125 6.89066 18.9622 6.75151ZM9.49998 12.667C6.14322 12.667 2.59647 10.1779 1.31076 6.96685C2.59647 3.75576 6.14322 1.2667 9.49998 1.2667C12.8567 1.2667 16.4035 3.75576 17.6892 6.96685C16.4035 10.1779 12.8567 12.667 9.49998 12.667Z" fill="black"/>
</svg>
