<svg width="18" height="20" viewBox="0 0 18 20" fill="none" xmlns="http://www.w3.org/2000/svg">
<g clip-path="url(#clip0_1_1011)">
<path d="M8.96556 8.75C8.17296 8.75 7.41282 8.42076 6.85236 7.83471C6.29191 7.24866 5.97705 6.4538 5.97705 5.625C5.97705 4.7962 6.29191 4.00134 6.85236 3.41529C7.41282 2.82924 8.17296 2.5 8.96556 2.5C9.75816 2.5 10.5183 2.82924 11.0787 3.41529C11.6392 4.00134 11.9541 4.7962 11.9541 5.625C11.9541 6.4538 11.6392 7.24866 11.0787 7.83471C10.5183 8.42076 9.75816 8.75 8.96556 8.75ZM8.96556 3.75C7.97337 3.75 7.17245 4.5875 7.17245 5.625C7.17245 6.6625 7.97337 7.5 8.96556 7.5C9.95774 7.5 10.7587 6.6625 10.7587 5.625C10.7587 4.5875 9.95774 3.75 8.96556 3.75Z" fill="black"/>
<path d="M16.1379 13.75C15.8032 13.75 15.5402 13.475 15.5402 13.125C15.5402 12.775 15.8032 12.5 16.1379 12.5C16.4726 12.5 16.7356 12.225 16.7356 11.875C16.7356 11.0462 16.4208 10.2513 15.8603 9.66529C15.2999 9.07924 14.5397 8.75 13.7471 8.75H12.5517C12.217 8.75 11.954 8.475 11.954 8.125C11.954 7.775 12.217 7.5 12.5517 7.5C13.5439 7.5 14.3448 6.6625 14.3448 5.625C14.3448 4.5875 13.5439 3.75 12.5517 3.75C12.217 3.75 11.954 3.475 11.954 3.125C11.954 2.775 12.217 2.5 12.5517 2.5C13.3443 2.5 14.1045 2.82924 14.6649 3.41529C15.2254 4.00134 15.5402 4.7962 15.5402 5.625C15.5402 6.4 15.2772 7.1 14.823 7.65C16.6041 8.15 17.931 9.85 17.931 11.875C17.931 12.9125 17.1301 13.75 16.1379 13.75ZM1.7931 13.75C0.80092 13.75 0 12.9125 0 11.875C0 9.85 1.31494 8.15 3.10805 7.65C2.66575 7.1 2.3908 6.4 2.3908 5.625C2.3908 4.7962 2.70566 4.00134 3.26612 3.41529C3.82657 2.82924 4.58671 2.5 5.37931 2.5C5.71402 2.5 5.97701 2.775 5.97701 3.125C5.97701 3.475 5.71402 3.75 5.37931 3.75C4.38713 3.75 3.58621 4.5875 3.58621 5.625C3.58621 6.6625 4.38713 7.5 5.37931 7.5C5.71402 7.5 5.97701 7.775 5.97701 8.125C5.97701 8.475 5.71402 8.75 5.37931 8.75H4.18391C3.39131 8.75 2.63117 9.07924 2.07072 9.66529C1.51026 10.2513 1.1954 11.0462 1.1954 11.875C1.1954 12.225 1.45839 12.5 1.7931 12.5C2.12782 12.5 2.3908 12.775 2.3908 13.125C2.3908 13.475 2.12782 13.75 1.7931 13.75ZM12.5517 17.5H5.37931C4.38713 17.5 3.58621 16.6625 3.58621 15.625V14.375C3.58621 11.9625 5.46299 10 7.77011 10H10.1609C12.468 10 14.3448 11.9625 14.3448 14.375V15.625C14.3448 16.6625 13.5439 17.5 12.5517 17.5ZM7.77011 11.25C6.97751 11.25 6.21738 11.5792 5.65692 12.1653C5.09647 12.7513 4.78161 13.5462 4.78161 14.375V15.625C4.78161 15.975 5.0446 16.25 5.37931 16.25H12.5517C12.8864 16.25 13.1494 15.975 13.1494 15.625V14.375C13.1494 13.5462 12.8346 12.7513 12.2741 12.1653C11.7137 11.5792 10.9535 11.25 10.1609 11.25H7.77011Z" fill="black"/>
</g>
<defs>
<clipPath id="clip0_1_1011">
<rect width="17.931" height="20" fill="white"/>
</clipPath>
</defs>
</svg>
