<svg width="16" height="16" viewBox="0 0 16 16" fill="none" xmlns="http://www.w3.org/2000/svg">
<g clip-path="url(#clip0_3101_4028)">
<path d="M15.996 3.0385C15.4075 3.3 14.776 3.4765 14.111 3.555C14.7885 3.149 15.309 2.506 15.5545 1.74C14.9195 2.115 14.218 2.39 13.4705 2.536C12.8715 1.8985 12.0185 1.5 11.0745 1.5C9.26152 1.5 7.79302 2.969 7.79302 4.7815C7.79302 5.0385 7.82152 5.2895 7.87802 5.5295C5.14952 5.3915 2.73152 4.085 1.11302 2.1C0.830523 2.585 0.668023 3.149 0.668023 3.75C0.668023 4.89 1.24802 5.8935 2.12802 6.4825C1.59002 6.465 1.08402 6.3175 0.641523 6.0725V6.1125C0.641523 7.7035 1.77152 9.03 3.27352 9.3315C2.99852 9.4065 2.70852 9.4465 2.40852 9.4465C2.19702 9.4465 1.99202 9.4265 1.79202 9.388C2.20902 10.691 3.42202 11.64 4.85702 11.667C3.73452 12.547 2.31952 13.072 0.782023 13.072C0.517024 13.072 0.255523 13.057 -0.000976562 13.027C1.45202 13.957 3.17702 14.5 5.03052 14.5C11.0665 14.5 14.368 9.5 14.368 5.1625C14.368 5.0205 14.364 4.8785 14.358 4.7375C14.9995 4.275 15.5555 3.6975 15.996 3.0385Z" fill="black"/>
</g>
<defs>
<clipPath id="clip0_3101_4028">
<rect width="16" height="16" fill="white"/>
</clipPath>
</defs>
</svg>
