<svg width="8" height="8" viewBox="0 0 8 8" fill="none" xmlns="http://www.w3.org/2000/svg">
<path d="M4 0C3.20888 0 2.43552 0.234596 1.77772 0.674122C1.11992 1.11365 0.607234 1.73836 0.304484 2.46927C0.00173314 3.20017 -0.0774802 4.00444 0.0768607 4.78036C0.231202 5.55629 0.612164 6.26902 1.17157 6.82843C1.73098 7.38784 2.44372 7.7688 3.21964 7.92314C3.99556 8.07748 4.79983 7.99827 5.53074 7.69552C6.26164 7.39277 6.88635 6.88008 7.32588 6.22228C7.76541 5.56448 8 4.79113 8 4C8 2.93913 7.57857 1.92172 6.82843 1.17157C6.07828 0.421427 5.06087 0 4 0ZM4 6.66667C3.47258 6.66667 2.95701 6.51027 2.51848 6.21725C2.07995 5.92424 1.73816 5.50776 1.53632 5.02049C1.33449 4.53322 1.28168 3.99704 1.38457 3.47976C1.48747 2.96248 1.74144 2.48732 2.11438 2.11438C2.48732 1.74144 2.96248 1.48747 3.47976 1.38457C3.99704 1.28168 4.53322 1.33449 5.02049 1.53632C5.50776 1.73815 5.92424 2.07995 6.21725 2.51848C6.51027 2.95701 6.66667 3.47258 6.66667 4C6.66667 4.70724 6.38572 5.38552 5.88562 5.88562C5.38552 6.38571 4.70725 6.66667 4 6.66667Z" fill="black"/>
</svg>
