<svg width="155" height="35" viewBox="0 0 155 35" fill="none" xmlns="http://www.w3.org/2000/svg">
<g clip-path="url(#clip0_1_971)">
<path d="M89.4656 13.7769H83.3934V14.4209C85.2926 14.4209 85.5978 14.828 85.5978 17.2365V21.5788C85.5978 23.9872 85.2926 24.4286 83.3934 24.4286C81.9349 24.2249 80.9508 23.4446 79.5938 21.9521L78.0337 20.2559C80.1368 19.8825 81.2561 18.5599 81.2561 17.0669C81.2561 15.2013 79.662 13.7767 76.6765 13.7767H70.7064V14.4208C72.6056 14.4208 72.9111 14.8278 72.9111 17.2364V21.5785C72.9111 23.9871 72.6057 24.4284 70.7064 24.4284V25.0727H77.4566V24.4284C75.5574 24.4284 75.252 23.9874 75.252 21.5785V20.3579H75.8284L79.5938 25.0724H89.4656C94.316 25.0724 96.4194 22.4945 96.4194 19.4072C96.4194 16.3206 94.3166 13.7769 89.4656 13.7769ZM75.2523 19.3054V14.7944H76.6429C78.1691 14.7944 78.848 15.8461 78.848 17.067C78.848 18.2543 78.1691 19.3057 76.6429 19.3057H75.2523V19.3054ZM89.5675 24.0212H89.3298C88.109 24.0212 87.939 23.7161 87.939 22.1556V14.7944C87.939 14.7944 89.4319 14.7944 89.5675 14.7944C93.0952 14.7944 93.7398 17.3723 93.7398 19.3739C93.7395 21.4429 93.0952 24.0212 89.5675 24.0212ZM51.8122 20.5614L54.1529 13.6407C54.8316 11.6392 54.5263 11.0629 52.3553 11.0629V10.3843H58.7327V11.0629C56.5957 11.0629 56.0869 11.5717 55.2388 14.0481L51.3715 25.6495H50.9308L47.4702 15.0316L43.9427 25.6495H43.5017L39.7363 14.0481C38.9221 11.5717 38.3794 11.0629 36.4118 11.0629V10.3843H43.9427V11.0629C41.9411 11.0629 41.3979 11.5377 42.1107 13.6407L44.3834 20.5614L47.8094 10.3842H48.4542L51.8122 20.5614ZM63.3454 25.5134C59.6141 25.5134 56.5611 22.7658 56.5611 19.4072C56.5611 16.0827 59.6145 13.3351 63.3454 13.3351C67.0767 13.3351 70.1296 16.0827 70.1296 19.4072C70.1298 22.766 67.0769 25.5134 63.3454 25.5134ZM63.3454 14.3874C60.225 14.3874 59.1389 17.2025 59.1389 19.4077C59.1389 21.647 60.2248 24.4286 63.3454 24.4286C66.5006 24.4286 67.5859 21.647 67.5859 19.4077C67.5861 17.2025 66.5004 14.3874 63.3454 14.3874ZM104.798 24.3945V25.0726H97.0298V24.3945C99.3028 24.3945 99.7098 23.8179 99.7098 20.4252V14.9978C99.7098 11.605 99.3028 11.0626 97.0298 11.0626V10.384H104.052C107.546 10.384 109.48 12.182 109.48 14.5907C109.48 16.9317 107.546 18.7632 104.052 18.7632H102.118V20.4247C102.118 23.8177 102.525 24.3945 104.798 24.3945ZM104.052 11.605H102.118V17.5079H104.052C105.951 17.5079 106.833 16.185 106.833 14.5907C106.833 12.9624 105.951 11.605 104.052 11.605ZM132.784 21.8843L132.614 22.4947C132.309 23.6141 131.935 24.0212 129.527 24.0212H129.052C127.288 24.0212 126.983 23.6139 126.983 21.2059V19.6457C129.629 19.6457 129.832 19.8828 129.832 21.647H130.477V16.5921H129.832C129.832 18.3561 129.629 18.5934 126.983 18.5934V14.7944H128.848C131.257 14.7944 131.63 15.2014 131.935 16.3209L132.105 16.9654H132.648L132.411 13.7769H122.437V14.4209C124.337 14.4209 124.642 14.828 124.642 17.2365V21.5788C124.642 23.7819 124.383 24.3372 122.885 24.4165C121.462 24.1989 120.484 23.4227 119.147 21.9521L117.587 20.2559C119.69 19.8825 120.81 18.5599 120.81 17.0669C120.81 15.2013 119.215 13.7767 116.23 13.7767H110.26V14.4208C112.159 14.4208 112.465 14.8278 112.465 17.2364V21.5787C112.465 23.9871 112.16 24.4284 110.26 24.4284V25.0727H117.011V24.4284C115.112 24.4284 114.806 23.9874 114.806 21.5787V20.3579H115.382L119.148 25.0724H133.09L133.293 21.8843H132.784ZM114.805 19.3054V14.7944H116.196C117.722 14.7944 118.401 15.8461 118.401 17.067C118.401 18.2543 117.723 19.3057 116.196 19.3057H114.805V19.3054ZM139.67 25.5134C138.313 25.5134 137.125 24.8012 136.617 24.3598C136.447 24.5299 136.142 25.0383 136.074 25.5134H135.429V20.8322H136.107C136.379 23.0714 137.939 24.3943 139.941 24.3943C141.026 24.3943 141.909 23.7836 141.909 22.766C141.909 21.8843 141.128 21.2057 139.737 20.5611L137.804 19.6452C136.447 19 135.429 17.8806 135.429 16.3883C135.429 14.76 136.956 13.3693 139.059 13.3693C140.178 13.3693 141.128 13.7767 141.705 14.2515C141.874 14.1155 142.044 13.7423 142.146 13.3351H142.79V17.3383H142.078C141.84 15.7438 140.958 14.4209 139.161 14.4209C138.211 14.4209 137.329 14.9636 137.329 15.8121C137.329 16.694 138.041 17.1687 139.67 17.915L141.535 18.8309C143.164 19.6113 143.807 20.8668 143.807 21.8846C143.808 24.0212 141.942 25.5134 139.67 25.5134ZM150.118 25.5134C148.76 25.5134 147.573 24.8012 147.065 24.3598C146.895 24.5299 146.59 25.0383 146.522 25.5134H145.877V20.8322H146.555C146.827 23.0714 148.387 24.3943 150.389 24.3943C151.474 24.3943 152.356 23.7836 152.356 22.766C152.356 21.8843 151.576 21.2057 150.185 20.5611L148.252 19.6452C146.895 19 145.877 17.8806 145.877 16.3883C145.877 14.76 147.403 13.3693 149.507 13.3693C150.626 13.3693 151.576 13.7767 152.153 14.2515C152.322 14.1155 152.492 13.7423 152.593 13.3351H153.238V17.3383H152.526C152.288 15.7438 151.406 14.4209 149.609 14.4209C148.659 14.4209 147.777 14.9636 147.777 15.8121C147.777 16.694 148.489 17.1687 150.117 17.915L151.983 18.8309C153.612 19.6113 154.255 20.8668 154.255 21.8846C154.256 24.0212 152.39 25.5134 150.118 25.5134ZM2.48753 17.4995C2.48753 23.4418 5.94085 28.577 10.9485 31.0108L3.78729 11.3899C2.95415 13.2571 2.48753 15.3233 2.48753 17.4995ZM27.6346 16.742C27.6346 14.8866 26.9682 13.6017 26.3966 12.6016C25.6356 11.3648 24.9222 10.3177 24.9222 9.08104C24.9222 7.70107 25.969 6.41658 27.443 6.41658C27.5095 6.41658 27.5728 6.42491 27.6375 6.42846C24.9666 3.9818 21.4082 2.48753 17.4999 2.48753C12.255 2.48753 7.64075 5.17837 4.95655 9.25442C5.30871 9.26506 5.64082 9.27232 5.92265 9.27232C7.49297 9.27232 9.92374 9.08181 9.92374 9.08181C10.733 9.03414 10.8284 10.2228 10.02 10.3186C10.02 10.3186 9.20675 10.4143 8.30174 10.4618L13.7689 26.7225L17.0542 16.8696L14.7152 10.4609C13.9068 10.4133 13.1409 10.3177 13.1409 10.3177C12.3318 10.2702 12.4267 9.03337 13.2358 9.08088C13.2358 9.08088 15.7151 9.27139 17.1901 9.27139C18.7601 9.27139 21.1912 9.08088 21.1912 9.08088C22.001 9.03322 22.0962 10.2218 21.2874 10.3177C21.2874 10.3177 20.4725 10.4133 19.5692 10.4609L24.9945 26.5989L26.4919 21.5952C27.1407 19.5186 27.6346 18.0273 27.6346 16.742ZM17.7635 18.8129L13.2592 31.9015C14.6042 32.2968 16.0264 32.5133 17.5002 32.5133C19.2483 32.5133 20.9248 32.2109 22.4854 31.6619C22.4451 31.5978 22.4084 31.5297 22.3785 31.4552L17.7635 18.8129ZM30.6728 10.2969C30.7375 10.7752 30.774 11.2887 30.774 11.8407C30.774 13.3641 30.4894 15.0768 29.6325 17.218L25.047 30.4763C29.5101 27.8736 32.512 23.0383 32.512 17.4997C32.5123 14.8897 31.8455 12.4353 30.6728 10.2969ZM17.5002 0C7.85085 0 0 7.85054 0 17.4995C0 27.1499 7.85085 35 17.5002 35C27.149 35 35.0009 27.1498 35.0009 17.4995C35.0006 7.85054 27.149 0 17.5002 0ZM17.5002 34.1976C8.29325 34.1976 0.802438 26.7066 0.802438 17.4994C0.802438 8.29248 8.2931 0.802593 17.5002 0.802593C26.7066 0.802593 34.1968 8.29279 34.1968 17.4994C34.1967 26.7069 26.7066 34.1976 17.5002 34.1976Z" fill="#B9BEC7"/>
</g>
<defs>
<clipPath id="clip0_1_971">
<rect width="154.208" height="34.9892" fill="white" transform="scale(1.00031)"/>
</clipPath>
</defs>
</svg>
