<svg width="48" height="19" viewBox="0 0 48 19" fill="none" xmlns="http://www.w3.org/2000/svg">
<path d="M4.78976 4.79074H43.2039V14.2107H4.78976V4.79074Z" fill="#F36418"/>
<path d="M1.91588 0C0.862152 0 0 0.862152 0 1.91588V17.0837C0 18.1375 0.862152 18.9996 1.91588 18.9996H46.0777C47.1315 18.9996 47.9936 18.1375 47.9936 17.0837V1.91588C47.9936 0.862152 47.1315 0 46.0777 0H1.91588Z" fill="#F36418"/>
<path d="M6.07875 11.5178C6.07875 12.2166 6.28592 12.5534 6.93303 12.5534C7.58028 12.5534 7.78745 12.2166 7.78745 11.5178V6.78042C7.78745 6.08145 7.58028 5.74496 6.93303 5.74496C6.28592 5.74496 6.07875 6.08145 6.07875 6.78042V11.5178ZM4.47389 6.74162C4.47389 5.4214 5.25032 4.34701 6.93303 4.34701C8.61574 4.34701 9.39231 5.4214 9.39231 6.74162V11.5565C9.39231 12.8769 8.61574 13.9512 6.93303 13.9512C5.25032 13.9512 4.47389 12.8769 4.47389 11.5565V6.74162Z" fill="white"/>
<path d="M11.8891 12.3979C12.1738 12.6051 12.4327 12.7602 12.7175 12.7602C13.1057 12.7602 13.4163 12.5533 13.4163 11.6344V9.04553C13.4163 8.12658 13.1057 7.91941 12.7175 7.91941C12.4327 7.91941 12.1738 8.07472 11.8891 8.28176V12.3979ZM11.8113 6.85809V7.58292H11.8372C12.3161 6.9746 12.6656 6.72863 13.3905 6.72863C14.2966 6.72863 14.866 7.40175 14.866 8.67011V12.0097C14.866 13.2782 14.2966 13.9511 13.3905 13.9511C12.7563 13.9511 12.4584 13.6922 11.8891 13.2262V16.0222H10.4393V6.85809H11.8113Z" fill="white"/>
<path d="M18.9132 9.42081V9.05846C18.9132 8.2559 18.6284 7.91941 18.1108 7.91941C17.593 7.91941 17.3082 8.2559 17.3082 9.05846V9.42081H18.9132ZM20.3629 10.6117H17.3082V11.6212C17.3082 12.4239 17.593 12.7602 18.1108 12.7602C18.6284 12.7602 18.9132 12.4239 18.9132 11.6212V11.466H20.3629C20.337 12.9415 19.7287 13.9511 18.1108 13.9511C16.4541 13.9511 15.8585 12.8897 15.8585 11.3624V9.31723C15.8585 7.79009 16.4541 6.72863 18.1108 6.72863C19.7676 6.72863 20.3629 7.79009 20.3629 9.31723V10.6117Z" fill="white"/>
<path d="M21.2896 13.8217V6.85809H22.6618V7.55692C23.2701 7.03926 23.5808 6.72863 24.422 6.72863C25.1859 6.72863 25.6387 7.28523 25.6387 8.19137V13.8217H24.1889V8.42428C24.1889 8.07472 23.9819 7.91941 23.6713 7.91941C23.3608 7.91941 23.0759 8.11365 22.7394 8.35949V13.8217H21.2896Z" fill="white"/>
<path d="M28.3259 12.5014H28.8825C29.7368 12.5014 30.0343 12.178 30.0343 11.1944V7.10398C30.0343 6.12038 29.7368 5.79669 28.8825 5.79669H28.3259V12.5014ZM26.7209 4.47659H29.1024C30.759 4.47659 31.6396 5.38261 31.6396 7.29822V11.0001C31.6396 12.9157 30.759 13.8218 29.1024 13.8218H26.7209V4.47659Z" fill="white"/>
<path d="M32.684 13.8218V4.47659H34.1725L36.1272 9.82215H36.1528V4.47659H37.6026V13.8218H36.2049L34.1595 7.98426H34.1336V13.8218H32.684Z" fill="white"/>
<path d="M41.8596 6.68408C41.7948 5.88165 41.3679 5.64875 41.0057 5.64875C40.4878 5.64875 40.2031 5.98524 40.2031 6.56769C40.2031 8.15975 43.465 8.92365 43.465 11.4602C43.465 13.0007 42.4293 13.855 40.9279 13.855C39.4394 13.855 38.5851 12.6641 38.5203 11.2663L40.0477 11.0462C40.1125 11.9911 40.4878 12.457 41.0057 12.457C41.5623 12.457 41.9376 12.1592 41.9376 11.6028C41.9376 9.7518 38.6755 9.25987 38.6755 6.58076C38.6755 5.09202 39.5819 4.2508 41.161 4.2508C42.468 4.2508 43.245 5.19561 43.3871 6.51597L41.8596 6.68408Z" fill="white"/>
</svg>
