<svg width="49" height="39" viewBox="0 0 49 39" fill="none" xmlns="http://www.w3.org/2000/svg">
<g clip-path="url(#clip0_1_966)">
<path d="M29.8183 10.031C29.8183 11.0236 29.976 12.5211 27.6444 13.3697C26.9227 13.6324 26.4353 14.1055 26.4353 14.1055C26.4353 11.7441 26.7931 10.8895 27.7543 10.3837C28.4933 9.99448 29.8183 10.031 29.8183 10.031ZM21.0406 12.7382L18.4452 22.8431L16.2864 14.5732C15.7035 12.1364 14.709 10.8766 12.6154 10.8766C10.5408 10.8766 9.5334 12.109 8.94443 14.5732L6.78564 22.8431L4.19024 12.7382C3.76955 10.7029 1.80859 9.82309 0 10.0516L4.97022 28.9369C4.97022 28.9369 6.60978 29.0557 7.4307 28.6353C8.50858 28.083 9.02099 27.6572 9.67363 25.0879C10.255 22.7974 11.8802 16.0684 12.0325 15.5893C12.3933 14.4513 12.8732 14.5374 13.1999 15.5893C13.3492 16.0692 14.9774 22.7974 15.5588 25.0879C16.2106 27.6572 16.7238 28.083 17.8017 28.6353C18.6218 29.0557 20.2622 28.9369 20.2622 28.9369L25.2324 10.0516C23.3813 9.81776 21.456 10.7318 21.0406 12.7382ZM29.8168 13.135C29.8168 13.135 29.506 13.618 28.7965 14.0164C28.341 14.2723 27.9036 14.446 27.4344 14.6722C26.2868 15.2252 26.4353 15.7348 26.4353 17.3534V28.9369C26.4353 28.9369 27.6898 29.0961 28.51 28.6756C29.5659 28.1348 29.8085 27.613 29.8183 25.2646V13.8183L29.8168 13.8191V13.135ZM42.2056 19.5396L48.5122 10.1141C48.5122 10.1141 45.8508 9.65856 44.5326 10.8644C43.5245 11.786 42.6824 13.1152 40.4258 16.3845C40.3902 16.4401 39.952 17.1874 39.4351 16.3845C37.2149 13.1678 36.3424 11.7921 35.3282 10.8644C34.0101 9.65856 31.3487 10.1141 31.3487 10.1141L37.6553 19.5396L31.3661 28.9361C31.3661 28.9361 34.1382 29.288 35.4556 28.0822C36.3265 27.2855 36.7881 26.5306 39.4358 22.6954C39.952 21.894 40.3887 22.6367 40.4266 22.6954C42.6551 25.9235 43.4002 27.1179 44.4546 28.0822C45.7727 29.288 48.4962 28.9361 48.4962 28.9361L42.2056 19.5396Z" fill="#B9BEC7"/>
</g>
<defs>
<clipPath id="clip0_1_966">
<rect width="48.2283" height="38.7718" fill="white" transform="scale(1.00589)"/>
</clipPath>
</defs>
</svg>
