<svg width="17" height="17" viewBox="0 0 17 17" fill="none" xmlns="http://www.w3.org/2000/svg">
<path d="M8.5002 1.53618C10.7533 1.53618 11.0605 1.53618 11.9822 1.53618C12.8015 1.53618 13.2112 1.741 13.5184 1.84342C13.928 2.04824 14.2353 2.15065 14.5425 2.45789C14.8497 2.76513 15.0546 3.07236 15.157 3.48201C15.2594 3.78925 15.3618 4.19889 15.4642 5.01819C15.4642 5.9399 15.4642 6.14472 15.4642 8.5002C15.4642 10.8557 15.4642 11.0605 15.4642 11.9822C15.4642 12.8015 15.2594 13.2112 15.157 13.5184C14.9522 13.928 14.8497 14.2353 14.5425 14.5425C14.2353 14.8497 13.928 15.0546 13.5184 15.157C13.2112 15.2594 12.8015 15.3618 11.9822 15.4642C11.0605 15.4642 10.8557 15.4642 8.5002 15.4642C6.14472 15.4642 5.9399 15.4642 5.01819 15.4642C4.19889 15.4642 3.78925 15.2594 3.48201 15.157C3.07236 14.9522 2.76513 14.8497 2.45789 14.5425C2.15065 14.2353 1.94583 13.928 1.84342 13.5184C1.741 13.2112 1.63859 12.8015 1.53618 11.9822C1.53618 11.0605 1.53618 10.8557 1.53618 8.5002C1.53618 6.14472 1.53618 5.9399 1.53618 5.01819C1.53618 4.19889 1.741 3.78925 1.84342 3.48201C2.04824 3.07236 2.15065 2.76513 2.45789 2.45789C2.76513 2.15065 3.07236 1.94583 3.48201 1.84342C3.78925 1.741 4.19889 1.63859 5.01819 1.53618C5.9399 1.53618 6.24714 1.53618 8.5002 1.53618ZM8.5002 0C6.14472 0 5.9399 0 5.01819 0C4.09648 0 3.48201 0.204825 2.96995 0.409649C2.45789 0.614473 1.94583 0.921709 1.43377 1.43377C0.921709 1.94583 0.716885 2.35548 0.409649 2.96995C0.204825 3.48201 0.102412 4.09648 0 5.01819C0 5.9399 0 6.24714 0 8.5002C0 10.8557 0 11.0605 0 11.9822C0 12.9039 0.204825 13.5184 0.409649 14.0305C0.614473 14.5425 0.921709 15.0546 1.43377 15.5666C1.94583 16.0787 2.35548 16.2835 2.96995 16.5908C3.48201 16.7956 4.09648 16.898 5.01819 17.0004C5.9399 17.0004 6.24714 17.0004 8.5002 17.0004C10.7533 17.0004 11.0605 17.0004 11.9822 17.0004C12.9039 17.0004 13.5184 16.7956 14.0305 16.5908C14.5425 16.3859 15.0546 16.0787 15.5666 15.5666C16.0787 15.0546 16.2835 14.6449 16.5908 14.0305C16.7956 13.5184 16.898 12.9039 17.0004 11.9822C17.0004 11.0605 17.0004 10.7533 17.0004 8.5002C17.0004 6.24714 17.0004 5.9399 17.0004 5.01819C17.0004 4.09648 16.7956 3.48201 16.5908 2.96995C16.3859 2.45789 16.0787 1.94583 15.5666 1.43377C15.0546 0.921709 14.6449 0.716885 14.0305 0.409649C13.5184 0.204825 12.9039 0.102412 11.9822 0C11.0605 0 10.8557 0 8.5002 0Z" fill="#F00073"/>
<path d="M8.5002 4.09648C6.04231 4.09648 4.09648 6.04231 4.09648 8.5002C4.09648 10.9581 6.04231 12.9039 8.5002 12.9039C10.9581 12.9039 12.9039 10.9581 12.9039 8.5002C12.9039 6.04231 10.9581 4.09648 8.5002 4.09648ZM8.5002 11.3677C6.96402 11.3677 5.63266 10.1388 5.63266 8.5002C5.63266 6.96402 6.86161 5.63266 8.5002 5.63266C10.0364 5.63266 11.3677 6.86161 11.3677 8.5002C11.3677 10.0364 10.0364 11.3677 8.5002 11.3677Z" fill="#F00073"/>
<path d="M13.0063 5.01819C13.5719 5.01819 14.0305 4.55968 14.0305 3.99407C14.0305 3.42846 13.5719 2.96995 13.0063 2.96995C12.4407 2.96995 11.9822 3.42846 11.9822 3.99407C11.9822 4.55968 12.4407 5.01819 13.0063 5.01819Z" fill="#F00073"/>
</svg>
