<svg width="122" height="31" viewBox="0 0 122 31" fill="none" xmlns="http://www.w3.org/2000/svg">
<g clip-path="url(#clip0_1_968)">
<path d="M39.3938 11.9993C39.3938 9.81071 37.2656 7.48633 33.5828 7.48633C29.4472 7.48633 24.9041 10.5201 24.2098 16.5726C23.5004 22.6854 27.304 25.4022 31.1377 25.4022C34.9714 25.4022 36.9788 23.908 39.0315 21.9156C37.2656 19.6969 34.9865 20.7232 34.5488 20.9496C34.0658 21.1911 33.447 21.5232 32.1791 21.5232C30.7 21.5232 29.1906 20.8591 29.1906 18.097C38.6693 17.1612 39.3938 14.1878 39.3938 11.9993ZM34.6997 12.3615C34.6394 13.0407 34.3677 14.2029 29.568 14.8519C30.5792 11.2597 32.5112 10.988 33.4017 10.988C34.2318 10.988 34.7601 11.637 34.6997 12.3615ZM18.6404 12.9501C18.6404 12.9501 16.6027 19.3497 16.4367 19.878C16.3763 19.3347 14.8821 7.84857 14.8821 7.84857C11.4106 7.84857 9.55412 10.3239 8.57305 12.935C8.57305 12.935 6.09774 19.3497 5.88643 19.8931C5.87133 19.395 5.50909 13.0105 5.50909 13.0105C5.29778 9.81071 2.36966 7.86366 0 7.86366L2.86775 25.2664C6.50526 25.2513 8.4674 22.791 9.49375 20.1799C9.49375 20.1799 11.6823 14.5199 11.7729 14.2633C11.7879 14.5048 13.3426 25.2664 13.3426 25.2664C16.9952 25.2664 18.9573 22.9571 20.0139 20.4365L25.1305 7.86366C21.5232 7.86366 19.6214 10.3239 18.6404 12.9501ZM52.7967 7.45614C50.5478 7.45614 48.8272 8.67871 47.3782 10.4748V10.4597L48.6762 0C45.6877 0 43.2577 2.59607 42.7898 6.45998L40.5258 25.1305C42.2464 25.1305 44.0727 24.6324 45.0538 23.3646C45.9292 24.4966 47.2424 25.4022 49.1894 25.4022C54.2306 25.4022 57.687 19.546 57.687 14.052C57.6568 9.04095 55.2268 7.45614 52.7967 7.45614ZM52.3288 16.4367C51.8006 19.5007 50.095 21.5836 48.4498 21.5836C46.7896 21.5836 46.0802 20.844 46.0802 20.844C46.3971 18.1574 46.5933 16.5122 47.1971 15.0934C47.8008 13.6746 49.2347 11.4106 50.7289 11.4106C52.193 11.4106 52.8571 13.3577 52.3288 16.4367ZM70.2749 7.86366H66.7581L66.7732 7.68254C67.0147 5.38835 67.5581 4.18087 69.3542 3.98466C70.5768 3.86391 71.1201 3.22999 71.256 2.53569C71.3616 1.99233 71.6937 0.105654 71.6937 0.105654C64.63 0.0603736 62.4112 3.10924 61.8377 7.75801L61.8226 7.86366H61.7471C60.6 7.86366 59.3322 9.1617 59.1209 10.8069L59.0454 11.4106H61.4L59.4227 27.7417L58.819 30.6698C58.8945 30.6698 58.985 30.6849 59.0605 30.6849C62.3659 30.5641 64.479 27.953 64.9469 24.1645L66.4864 11.4106H67.5883C68.675 11.4106 69.9428 10.3239 70.1692 8.51268L70.2749 7.86366ZM88.5681 7.5618C84.508 7.5618 80.6742 10.5503 79.497 15.2443C78.3197 19.9384 80.1007 25.4928 86.0777 25.4928C92.0396 25.4928 95.4809 19.712 95.4809 14.8972C95.4809 10.1126 92.2358 7.5618 88.5681 7.5618ZM90.2133 16.2858C90.002 18.414 89.0662 21.6439 86.5003 21.6439C83.9193 21.6439 84.2816 17.8706 84.5382 16.0745C84.8098 14.1576 85.8815 11.4257 88.1908 11.4257C90.2586 11.4257 90.4548 13.8859 90.2133 16.2858ZM115.54 12.9501C115.54 12.9501 113.502 19.3497 113.336 19.878C113.276 19.3347 111.782 7.84857 111.782 7.84857C108.31 7.84857 106.454 10.3239 105.473 12.935C105.473 12.935 102.997 19.3497 102.786 19.8931C102.771 19.395 102.409 13.0105 102.409 13.0105C102.197 9.81071 99.2693 7.86366 96.8997 7.86366L99.7523 25.2664C103.39 25.2513 105.352 22.791 106.378 20.1799C106.378 20.1799 108.567 14.5199 108.642 14.2633C108.657 14.5048 110.212 25.2664 110.212 25.2664C113.865 25.2664 115.827 22.9571 116.883 20.4365L122 7.86366C118.408 7.86366 116.506 10.3239 115.54 12.9501ZM73.5954 0.105654L70.6371 23.9683L70.0334 26.9115C70.1089 26.9115 70.1994 26.9266 70.2749 26.9266C73.4596 26.8814 75.7236 24.0891 76.1462 20.5723L77.8518 6.88259C78.365 2.70172 75.8745 0.105654 73.5954 0.105654Z" fill="#B9BEC7"/>
</g>
<defs>
<clipPath id="clip0_1_968">
<rect width="121.044" height="30.4973" fill="white" transform="scale(1.0079)"/>
</clipPath>
</defs>
</svg>
