<svg width="62" height="69" viewBox="0 0 62 69" fill="none" xmlns="http://www.w3.org/2000/svg">
<g opacity="0.25">
<path d="M62 38.3519C62 49.1446 56.3211 58.6292 47.7479 64.0632C47.5966 64.1595 47.4439 64.2544 47.2896 64.3477C42.5562 67.2363 36.9751 68.9026 31 68.9026C24.9591 68.9026 19.3215 67.1987 14.5545 64.2529C14.4003 64.158 14.2475 64.0617 14.0963 63.9638C5.61012 58.5148 0 49.0784 0 38.3519C0 21.4779 13.8794 7.80118 31 7.80118C48.1205 7.80118 62 21.4779 62 38.3519Z" fill="#7C6F66"/>
</g>
<path d="M45.3751 10.3139C45.3751 10.3139 46.3408 17.0939 49.2375 21.6139C53.4149 28.1322 48.0305 28.9887 49.1168 33.5087C50.2031 38.0287 58.5312 41.835 48.634 52.1835C42.1566 58.9563 34.3918 45.7603 34.3918 45.7603L32.2192 28.5129L45.3751 10.3139Z" fill="#563C00"/>
<path d="M55.6278 56.9066C49.9642 64.1996 41.0396 68.902 31.0001 68.902C20.962 68.902 12.0375 64.1996 6.37238 56.9081C7.92574 50.2534 12.9173 44.8932 19.4056 42.7422C20.5771 42.3523 21.7975 42.0693 23.0546 41.9007C24.2795 41.4055 25.5626 41.0217 26.8914 40.7597C28.2202 40.4993 29.5949 40.3624 31.0001 40.3624C33.8135 40.3624 36.4972 40.9103 38.9471 41.9007C45.5042 42.7768 51.0456 46.8034 53.9507 52.3818C54.6884 53.7983 55.2566 55.3156 55.6278 56.9066Z" fill="#863F38"/>
<path d="M53.9503 52.3818C51.9937 52.6152 49.9821 52.7371 47.9293 52.7371C44.6698 52.7371 41.5142 52.43 38.516 51.855C38.1066 51.7782 37.7003 51.6954 37.2971 51.6066C30.0802 50.0276 23.8469 46.8846 19.4052 42.7422C20.5767 42.3523 21.7971 42.0693 23.0542 41.9007C24.2791 41.4055 25.5621 41.0217 26.891 40.7597C28.2198 40.4993 29.5945 40.3624 30.9997 40.3624C33.7963 40.3624 36.4647 40.9043 38.9024 41.8827C38.9177 41.8887 38.9314 41.8947 38.9467 41.9007C39.3469 41.9534 39.7425 42.0196 40.1335 42.0949C46.1697 43.2735 51.2224 47.1435 53.9503 52.3818Z" fill="#FFD9BB"/>
<path d="M14.5543 57.2329V64.2534C14.4 64.1586 14.2473 64.0622 14.0961 63.9644V57.2329C14.0961 57.1079 14.1999 57.0071 14.3252 57.0071C14.452 57.0071 14.5543 57.1079 14.5543 57.2329Z" fill="#752926"/>
<path d="M47.7478 57.2329V64.0637C47.5966 64.1601 47.4438 64.2549 47.2895 64.3482V57.2329C47.2895 57.1079 47.3934 57.0071 47.5187 57.0071C47.6454 57.0071 47.7478 57.1079 47.7478 57.2329Z" fill="#752926"/>
<path d="M40.1335 42.096C40.1289 44.2786 39.8876 48.1004 38.516 51.8561C37.9187 53.4953 37.1062 55.1225 36.0034 56.5961C35.8843 56.7557 35.6993 56.84 35.5114 56.84C35.3862 56.84 35.258 56.8023 35.1496 56.7226C34.8777 56.5254 34.8197 56.1491 35.0198 55.8811C36.0049 54.564 36.7442 53.0979 37.2971 51.6077C38.687 47.8611 38.9039 43.958 38.9024 41.8837C38.9177 41.8897 38.9314 41.8958 38.9467 41.9018C39.3469 41.9545 39.7425 42.0207 40.1335 42.096Z" fill="#863F38"/>
<path d="M30.9585 47.5977C28.0988 47.5977 25.7807 45.313 25.7807 42.4947V25.3676C25.7807 22.5493 28.0988 20.2646 30.9585 20.2646C33.8183 20.2646 36.1364 22.5493 36.1364 25.3676V42.4947C36.1364 45.313 33.8183 47.5977 30.9585 47.5977Z" fill="#FFD9BB"/>
<path d="M36.1365 25.367V39.2324C32.3296 38.9926 28.7909 37.7732 25.7813 35.8231V25.367C25.7813 22.5494 28.0999 20.2646 30.9589 20.2646C32.3893 20.2646 33.6847 20.8353 34.621 21.7599C35.5573 22.6827 36.1365 23.9572 36.1365 25.367Z" fill="#F4C7A6"/>
<path d="M46.3025 23.467C46.3025 24.8204 45.1892 25.9176 43.8159 25.9176C42.4426 25.9176 41.3293 24.8204 41.3293 23.467C41.3293 22.1136 42.4426 21.0165 43.8159 21.0165C45.1892 21.0165 46.3025 22.1136 46.3025 23.467Z" fill="#F6C9A7"/>
<path d="M37.1928 34.3221C33.4677 36.9601 28.45 36.9601 24.7249 34.3221C20.593 31.3959 18.1434 26.6884 18.1434 21.6741V15.6685C18.1434 8.69331 23.8811 3.03881 30.9588 3.03881C38.0366 3.03881 43.7743 8.69331 43.7743 15.6685V21.6741C43.7743 26.6884 41.3247 31.3959 37.1928 34.3221Z" fill="#FFD9BB"/>
<path d="M30.9589 31.6513C29.0727 31.6513 27.5437 30.1445 27.5437 28.2856H34.3741C34.3741 30.1445 32.845 31.6513 30.9589 31.6513Z" fill="white"/>
<path d="M30.959 26.126C30.1478 26.126 29.5131 25.4372 29.5913 24.6415L29.8725 21.7785C29.9268 21.2271 30.3969 20.8064 30.959 20.8064C31.5211 20.8064 31.9912 21.2271 32.0454 21.7785L32.3266 24.6415C32.4048 25.4372 31.7702 26.126 30.959 26.126Z" fill="#F4C7A6"/>
<path d="M25.5118 23.1365C24.6905 23.1365 24.0248 22.4805 24.0248 21.6711C24.0248 20.8617 24.6905 20.2057 25.5118 20.2057C26.333 20.2057 26.9987 20.8617 26.9987 21.6711C26.9987 22.4805 26.333 23.1365 25.5118 23.1365Z" fill="#563C00"/>
<path d="M36.1784 23.1365C35.3572 23.1365 34.6915 22.4805 34.6915 21.6711C34.6915 20.8617 35.3572 20.2057 36.1784 20.2057C36.9997 20.2057 37.6654 20.8617 37.6654 21.6711C37.6654 22.4805 36.9997 23.1365 36.1784 23.1365Z" fill="#563C00"/>
<path d="M26.6871 18.3391H24.1342C23.7441 18.3391 23.4281 18.0275 23.4281 17.6431C23.4281 17.2586 23.7441 16.947 24.1342 16.947H26.6871C27.0772 16.947 27.3932 17.2586 27.3932 17.6431C27.3932 18.0275 27.0772 18.3391 26.6871 18.3391Z" fill="#422C01"/>
<path d="M37.4545 18.3391H34.9016C34.5115 18.3391 34.1955 18.0275 34.1955 17.6431C34.1955 17.2586 34.5115 16.947 34.9016 16.947H37.4545C37.8446 16.947 38.1606 17.2586 38.1606 17.6431C38.1606 18.0275 37.8446 18.3391 37.4545 18.3391Z" fill="#422C01"/>
<path d="M23.2704 6.72225C23.2704 6.72225 24.417 15.9408 33.7108 17.7249L31.4175 12.0749C31.4175 12.0749 32.202 18.9145 41.4354 18.5576C41.4354 18.5576 44.8149 20.1038 43.608 23.6724C43.608 23.6724 46.927 20.9366 45.6597 16.2976C44.3924 11.6587 47.3495 11.3613 42.6423 4.52172C38.4906 -1.51075 24.8998 -2.19881 23.2704 6.72225Z" fill="#563C00"/>
<path d="M26.3238 4.75961C26.3238 4.75961 21.858 1.19125 18.4785 5.23543C15.099 9.27975 15.944 15.5839 12.8058 19.5092C9.66761 23.4344 10.1504 26.8839 14.0127 30.5713C17.8751 34.2588 3.15007 37.7082 7.85719 46.8672C12.5643 56.0263 24.6005 51.1675 25.4453 43.9117C26.2902 36.6559 25.7004 34.8854 25.7004 34.8854C25.7004 34.8854 20.5304 31.2851 19.6855 25.2188C18.8407 19.1524 20.289 16.1786 22.9443 14.0376C25.5997 11.8965 28.0136 9.99339 26.3238 4.75961Z" fill="#563C00"/>
</svg>
