<svg width="14" height="7" viewBox="0 0 14 7" fill="none" xmlns="http://www.w3.org/2000/svg">
<mask id="mask0_0_52" style="mask-type:alpha" maskUnits="userSpaceOnUse" x="-2" y="-6" width="18" height="19">
<rect x="-1.84213" y="-5.49703" width="17.684" height="17.684" fill="#1C1B1F"/>
</mask>
<g mask="url(#mask0_0_52)">
<path d="M3.34407 6.68811C2.41888 6.68811 1.63024 6.3621 0.978144 5.71009C0.326048 5.05808 0 4.26954 0 3.34446C0 2.41938 0.326048 1.6307 0.978144 0.97842C1.63024 0.32614 2.41888 0 3.34407 0L5.56873 0C5.72531 0 5.85655 0.0529837 5.96246 0.158952C6.06838 0.264909 6.12134 0.396213 6.12134 0.552863C6.12134 0.709501 6.06838 0.840718 5.96246 0.946515C5.85655 1.05231 5.72531 1.10521 5.56873 1.10521H3.34322C2.72504 1.10521 2.19749 1.32366 1.76058 1.76057C1.32368 2.19747 1.10523 2.7253 1.10523 3.34405C1.10523 3.96281 1.32368 4.49064 1.76058 4.92754C2.19749 5.36445 2.72504 5.5829 3.34322 5.5829H5.56873C5.72531 5.5829 5.85655 5.63588 5.96246 5.74183C6.06838 5.8478 6.12134 5.9791 6.12134 6.13574C6.12134 6.29239 6.06838 6.42362 5.96246 6.52941C5.85655 6.63521 5.72531 6.68811 5.56873 6.68811H3.34407ZM4.78938 3.89666C4.63281 3.89666 4.50157 3.84368 4.39566 3.73772C4.28974 3.63176 4.23678 3.50045 4.23678 3.34381C4.23678 3.18716 4.28974 3.05594 4.39566 2.95014C4.50157 2.84435 4.63281 2.79145 4.78938 2.79145H9.21037C9.36695 2.79145 9.4982 2.84443 9.60412 2.95038C9.71002 3.05635 9.76298 3.18765 9.76298 3.34429C9.76298 3.50094 9.71002 3.63217 9.60412 3.73796C9.4982 3.84376 9.36695 3.89666 9.21037 3.89666H4.78938ZM8.43103 6.68811C8.27445 6.68811 8.14321 6.63512 8.0373 6.52915C7.93138 6.4232 7.87842 6.29189 7.87842 6.13524C7.87842 5.97861 7.93138 5.84739 8.0373 5.74159C8.14321 5.63579 8.27445 5.5829 8.43103 5.5829H10.6565C11.2747 5.5829 11.8023 5.36445 12.2392 4.92754C12.6761 4.49064 12.8945 3.96281 12.8945 3.34405C12.8945 2.7253 12.6761 2.19747 12.2392 1.76057C11.8023 1.32366 11.2747 1.10521 10.6565 1.10521L8.43103 1.10521C8.27445 1.10521 8.14321 1.05223 8.0373 0.946276C7.93138 0.840307 7.87842 0.709003 7.87842 0.552365C7.87842 0.395715 7.93138 0.264492 8.0373 0.158695C8.14321 0.0528982 8.27445 0 8.43103 0L10.6557 0C11.5809 0 12.3695 0.326005 13.0216 0.978015C13.6737 1.63002 13.9998 2.41857 13.9998 3.34365C13.9998 4.26873 13.6737 5.05741 13.0216 5.70969C12.3695 6.36197 11.5809 6.68811 10.6557 6.68811H8.43103Z" fill="#1C1B1F"/>
</g>
</svg>
