<svg width="62" height="13" viewBox="0 0 62 13" fill="none" xmlns="http://www.w3.org/2000/svg">
<path d="M12.3197 0.581225C10.8354 -0.346175 8.8814 -0.125228 7.13859 0.969854C5.40131 -0.125228 3.44605 -0.346175 1.96357 0.581225C-0.381524 2.04672 -0.666619 5.82103 1.32732 9.01175C2.79712 11.3641 5.09561 12.7425 7.14165 12.7171C9.1877 12.7425 11.4861 11.3641 12.9559 9.01179C14.9475 5.82103 14.6649 2.04676 12.3197 0.581225ZM2.40546 8.33803C1.9943 7.68623 1.68407 6.976 1.48532 6.23143C1.30875 5.58511 1.24124 4.91387 1.28558 4.24534C1.3746 3.06613 1.85461 2.14782 2.63669 1.65933C3.41882 1.17083 4.45274 1.14117 5.55385 1.5782C5.7191 1.64418 5.88255 1.72048 6.04478 1.8046C5.43289 2.36253 4.90083 3.00214 4.46363 3.70537C3.25293 5.64246 2.88367 7.79806 3.30623 9.51664C2.96931 9.15319 2.6677 8.75855 2.40546 8.33803ZM12.7986 6.23086C12.5996 6.97535 12.2894 7.68554 11.8784 8.33747C11.616 8.75858 11.3144 9.15399 10.9777 9.51847C11.3555 7.97786 11.0988 6.09041 10.1726 4.32041C10.1578 4.29125 10.1371 4.26553 10.1117 4.24489C10.0863 4.22426 10.0569 4.20917 10.0254 4.20061C9.99383 4.19205 9.96084 4.19021 9.92853 4.1952C9.89622 4.20019 9.86532 4.21191 9.83782 4.22959L6.95037 6.03352C6.92403 6.04995 6.90119 6.07142 6.88316 6.09669C6.86513 6.12196 6.85226 6.15054 6.84529 6.18079C6.83832 6.21104 6.83738 6.24237 6.84253 6.27298C6.84768 6.3036 6.85881 6.33289 6.8753 6.3592L7.29905 7.03659C7.31543 7.0629 7.33684 7.08572 7.36205 7.10374C7.38727 7.12176 7.41579 7.13462 7.44599 7.14159C7.47619 7.14857 7.50747 7.14951 7.53803 7.14436C7.56859 7.13922 7.59784 7.12809 7.62409 7.11162L9.4958 5.9421C9.55636 6.1237 9.61688 6.3053 9.66228 6.48693C9.83883 7.13242 9.90653 7.80281 9.86266 8.47063C9.77364 9.64923 9.29363 10.5675 8.51154 11.0566C8.10813 11.3033 7.64589 11.4371 7.17311 11.444H7.11323C6.64042 11.4372 6.17815 11.3034 5.77479 11.0566C4.99207 10.5675 4.51203 9.6492 4.42308 8.47063C4.37901 7.80208 4.44651 7.13085 4.62282 6.48447C5.02852 4.98906 5.86713 3.64692 7.03329 2.62667C7.53619 2.18523 8.10899 1.83049 8.72826 1.57696C9.82634 1.13989 10.8621 1.16896 11.6448 1.65809C12.4275 2.14719 12.9069 3.06486 12.9959 4.2441C13.0408 4.91271 12.9741 5.58416 12.7986 6.23086ZM27.7033 4.82222C26.185 4.82222 24.958 6.00749 24.958 7.5154C24.958 9.01299 26.1851 10.1789 27.7033 10.1789C29.2317 10.1789 30.4587 9.01482 30.4587 7.5154C30.4587 6.00809 29.2335 4.82282 27.7033 4.82282V4.82222ZM27.7033 8.77087C27.0035 8.77087 26.4708 8.20487 26.4708 7.50511C26.4708 6.80532 27.0035 6.23086 27.7033 6.23086C28.4133 6.23086 28.946 6.80715 28.946 7.50691C28.946 8.2067 28.4133 8.7733 27.7033 8.7733V8.77087ZM33.8819 2.7537H31.0883C31.0581 2.75315 31.0282 2.7587 31.0002 2.77002C30.9722 2.78134 30.9468 2.79819 30.9255 2.81956C30.9042 2.84094 30.8874 2.86639 30.8762 2.8944C30.865 2.92241 30.8595 2.9524 30.8601 2.98257V9.79324C30.858 9.82442 30.8623 9.85571 30.8728 9.88514C30.8833 9.91458 30.8998 9.94151 30.9212 9.96426C30.9426 9.98701 30.9686 10.0051 30.9973 10.0173C31.0261 10.0296 31.057 10.0357 31.0883 10.0354H33.8819C36.1175 10.0354 37.6708 8.54865 37.6708 6.38579C37.6708 4.20962 36.1175 2.7537 33.8819 2.7537ZM33.948 8.59709H32.4195V4.18845H33.948C35.1853 4.18845 36.0382 5.11401 36.0382 6.3828C36.0382 7.63042 35.1853 8.59709 33.948 8.59709ZM43.2315 4.9687H42.1811C42.123 4.97331 42.0687 4.9992 42.0284 5.04143C41.9882 5.08365 41.965 5.13922 41.9633 5.1975V5.50926C41.7241 5.11398 41.1836 4.82278 40.5105 4.82278C39.2005 4.82278 37.9734 5.85189 37.9734 7.49539C37.9734 9.1298 39.1896 10.1776 40.5002 10.1776C41.1757 10.1776 41.7272 9.88709 41.9663 9.4918V9.81385C41.9666 9.8716 41.9897 9.92689 42.0305 9.96778C42.0712 10.0087 42.1265 10.0319 42.1842 10.0324H43.2345C43.2634 10.033 43.2921 10.0278 43.3189 10.0171C43.3457 10.0063 43.3701 9.99026 43.3905 9.96983C43.4109 9.9494 43.427 9.92504 43.4377 9.89823C43.4485 9.87141 43.4537 9.84269 43.453 9.81381V5.19754C43.4539 5.16786 43.4488 5.13831 43.4381 5.11063C43.4274 5.08294 43.4112 5.05769 43.3905 5.03636C43.3699 5.01503 43.3452 4.99806 43.3178 4.98644C43.2905 4.97483 43.2611 4.96877 43.2315 4.9687ZM40.7883 8.78232C40.0928 8.78232 39.5703 8.24781 39.5703 7.50627C39.5703 6.76473 40.0928 6.23079 40.7883 6.23079C41.4838 6.23079 42.0062 6.76414 42.0062 7.50567C42.0062 8.24721 41.4845 8.78172 40.7883 8.78172V8.78232ZM49.1268 2.75373H48.0766C48.0472 2.75284 48.0179 2.75782 47.9905 2.76836C47.963 2.77891 47.9379 2.79482 47.9167 2.81516C47.8954 2.83551 47.8784 2.85988 47.8667 2.88686C47.855 2.91383 47.8488 2.94287 47.8484 2.97229V5.48865C47.6063 5.11398 47.0578 4.82278 46.3719 4.82278C45.0717 4.82278 43.8659 5.85189 43.8659 7.49539C43.8659 9.1298 45.082 10.1776 46.3925 10.1776C47.0681 10.1776 47.5778 9.88709 47.8586 9.4918V9.81385C47.8588 9.87166 47.8818 9.92706 47.9226 9.96799C47.9635 10.0089 48.0188 10.0321 48.0766 10.0324H49.1268C49.1557 10.0331 49.1845 10.028 49.2113 10.0172C49.2382 10.0065 49.2626 9.99044 49.283 9.97C49.3035 9.94955 49.3195 9.92517 49.3303 9.89832C49.341 9.87146 49.3461 9.84271 49.3454 9.81381V2.97352C49.3463 2.94451 49.3413 2.91562 49.3307 2.88862C49.32 2.86162 49.304 2.83708 49.2835 2.8165C49.2631 2.79592 49.2386 2.77974 49.2117 2.76896C49.1847 2.75817 49.1559 2.75297 49.1268 2.75373ZM46.6837 8.79503C45.9912 8.79503 45.473 8.25507 45.473 7.50567C45.473 6.75624 45.993 6.21628 46.6837 6.21628C47.3744 6.21628 47.8944 6.75624 47.8944 7.50567C47.8944 8.25507 47.3768 8.79503 46.6837 8.79503ZM55.0211 2.75373H53.9726C53.9432 2.75285 53.9139 2.75782 53.8864 2.76836C53.8589 2.7789 53.8338 2.7948 53.8125 2.81514C53.7912 2.83547 53.7742 2.85984 53.7624 2.88682C53.7506 2.9138 53.7443 2.94285 53.7438 2.97229V5.48865C53.5047 5.11398 52.9532 4.82278 52.2674 4.82278C50.9671 4.82278 49.7613 5.85189 49.7613 7.49539C49.7613 9.1298 50.978 10.1776 52.2879 10.1776C52.9641 10.1776 53.4732 9.88709 53.7541 9.4918V9.81385C53.7544 9.8717 53.7775 9.92709 53.8184 9.96799C53.8594 10.0089 53.9147 10.032 53.9726 10.0324H55.021C55.0499 10.0331 55.0786 10.028 55.1055 10.0173C55.1323 10.0065 55.1567 9.99046 55.1771 9.97C55.1975 9.94955 55.2135 9.92515 55.2241 9.89829C55.2348 9.87144 55.2398 9.84269 55.239 9.81381V2.97352C55.24 2.94455 55.2351 2.91568 55.2245 2.88868C55.2139 2.86169 55.1979 2.83714 55.1775 2.81656C55.1571 2.79597 55.1327 2.77978 55.1058 2.76898C55.0789 2.75819 55.05 2.75297 55.0211 2.75373ZM52.5779 8.79503C51.8848 8.79503 51.3672 8.25507 51.3672 7.50567C51.3672 6.75624 51.8872 6.21628 52.5779 6.21628C53.2686 6.21628 53.7886 6.75624 53.7886 7.50567C53.7886 8.25507 53.2722 8.79503 52.5797 8.79503H52.5779ZM60.7718 5.3228L59.2045 10.6976C58.9019 11.6541 58.2269 12.2261 57.1767 12.2261C56.6991 12.2261 56.2644 12.1286 55.9236 11.9337C55.7251 11.8205 55.5604 11.717 55.5604 11.5512C55.5604 11.4483 55.5937 11.395 55.6542 11.2987L55.9654 10.8326C56.0532 10.7025 56.1179 10.6601 56.2124 10.6601C56.2872 10.6619 56.3596 10.6871 56.4194 10.7321C56.6149 10.8587 56.7965 10.9676 57.0732 10.9676C57.3964 10.9676 57.6434 10.8641 57.7766 10.4791L57.9109 10.033H57.2766C57.1204 10.033 57.0344 9.93975 56.9957 9.81445L55.5931 5.3228C55.5411 5.14603 55.5889 4.9693 55.8486 4.9693H56.9533C57.0883 4.9693 57.1827 5.0153 57.2421 5.20838L58.2778 8.82529L59.2463 5.20838C59.2772 5.08372 59.3608 4.9693 59.5272 4.9693H60.5751C60.7815 4.9687 60.8438 5.11398 60.7718 5.3228ZM24.5622 6.92153V9.79268C24.5627 9.82397 24.5569 9.85505 24.5451 9.88405C24.5333 9.91306 24.5159 9.93941 24.4937 9.96154C24.4716 9.98367 24.4453 10.0011 24.4163 10.0129C24.3872 10.0246 24.3562 10.0304 24.3249 10.03H23.458C23.4267 10.0305 23.3956 10.0248 23.3666 10.0131C23.3375 10.0014 23.3111 9.9839 23.289 9.96175C23.2668 9.9396 23.2494 9.91321 23.2376 9.88416C23.2259 9.85511 23.2202 9.824 23.2207 9.79268V9.03902C22.6705 9.73399 21.7134 10.1716 20.6311 10.1716C18.5984 10.1716 17.01 8.64254 17.01 6.46573C17.01 4.20356 18.7249 2.64422 20.8914 2.64422C22.4907 2.64422 23.7692 3.33189 24.337 4.7151C24.3529 4.75163 24.3617 4.79085 24.363 4.83068C24.363 4.8961 24.32 4.94573 24.1814 4.99353L23.1693 5.38336C23.1082 5.40868 23.0398 5.40976 22.978 5.38639C22.9238 5.35438 22.8814 5.30578 22.8569 5.24777C22.4938 4.5571 21.8472 4.08794 20.852 4.08794C19.5615 4.08794 18.6371 5.09583 18.6371 6.40277C18.6371 7.66977 19.424 8.71155 20.889 8.71155C21.6596 8.71155 22.274 8.34835 22.5603 7.94944H21.6462C21.6149 7.94992 21.5838 7.94411 21.5548 7.93235C21.5258 7.92059 21.4994 7.90313 21.4773 7.88099C21.4552 7.85886 21.4377 7.8325 21.426 7.80349C21.4142 7.77448 21.4084 7.74341 21.4089 7.71211V6.93186C21.4084 6.90056 21.4142 6.86949 21.426 6.84048C21.4377 6.81148 21.4552 6.78513 21.4773 6.763C21.4994 6.74087 21.5258 6.72341 21.5548 6.71165C21.5838 6.6999 21.6149 6.69408 21.6462 6.69456H24.3248C24.3555 6.69298 24.3862 6.69769 24.415 6.70841C24.4439 6.71912 24.4702 6.73561 24.4924 6.75686C24.5146 6.77811 24.5323 6.80368 24.5443 6.832C24.5563 6.86032 24.5624 6.89078 24.5622 6.92153ZM60.8003 3.90575V3.83614C60.8001 3.83124 60.8019 3.82647 60.8051 3.82282C60.8086 3.81969 60.8132 3.81796 60.8179 3.81796H61.2603C61.2627 3.81788 61.265 3.81827 61.2672 3.8191C61.2694 3.81994 61.2714 3.8212 61.2731 3.82282C61.2763 3.82647 61.2781 3.83124 61.2779 3.83614V3.90571C61.2778 3.91038 61.2761 3.91488 61.2731 3.91843C61.2714 3.92005 61.2694 3.92131 61.2672 3.92214C61.265 3.92298 61.2627 3.92337 61.2603 3.92329H61.0988V4.35976C61.0986 4.36453 61.0966 4.36906 61.0932 4.37244C61.0899 4.37581 61.0853 4.37776 61.0805 4.3779H60.997C60.9947 4.3779 60.9925 4.37741 60.9904 4.37648C60.9883 4.37554 60.9864 4.37418 60.9849 4.37248C60.9832 4.37082 60.9818 4.36884 60.9809 4.36666C60.98 4.36448 60.9795 4.36213 60.9794 4.35976V3.92329H60.8178C60.8155 3.92347 60.8131 3.92315 60.8109 3.92233C60.8087 3.92151 60.8066 3.92022 60.805 3.91855C60.8033 3.91688 60.802 3.91487 60.8012 3.91265C60.8004 3.91043 60.8001 3.9081 60.8003 3.90575ZM61.5739 3.83371L61.695 4.11398L61.816 3.83371C61.8179 3.82873 61.8213 3.82448 61.8257 3.82159C61.8308 3.81898 61.8364 3.81773 61.8421 3.81796H61.9825C61.9848 3.81779 61.9871 3.81811 61.9893 3.81889C61.9915 3.81968 61.9934 3.82091 61.9951 3.82251C61.9967 3.82412 61.998 3.82605 61.9989 3.8282C61.9998 3.83034 62.0002 3.83264 62.0001 3.83494V4.36036C62.0003 4.36266 62 4.36497 61.9992 4.36715C61.9984 4.36932 61.9972 4.37129 61.9955 4.37292C61.9939 4.37458 61.992 4.37587 61.9898 4.37673C61.9877 4.37759 61.9854 4.37799 61.9831 4.3779H61.9044C61.9021 4.37798 61.8997 4.37759 61.8976 4.37676C61.8954 4.37592 61.8934 4.37466 61.8917 4.37304C61.89 4.3714 61.8887 4.36942 61.8879 4.36722C61.887 4.36502 61.8867 4.36266 61.8869 4.36032V3.96383L61.7567 4.252C61.7548 4.25744 61.7515 4.26225 61.7471 4.26591C61.7421 4.26868 61.7364 4.26994 61.7307 4.26954H61.6665C61.661 4.26983 61.6556 4.26857 61.6508 4.26591C61.6462 4.26243 61.6428 4.25755 61.6411 4.252L61.5116 3.96387V4.36036C61.5115 4.36503 61.5097 4.36953 61.5067 4.37307C61.5033 4.37604 61.4991 4.37775 61.4946 4.37794H61.4141C61.4119 4.37795 61.4098 4.37753 61.4078 4.37669C61.4059 4.37586 61.4041 4.37463 61.4026 4.37307C61.4009 4.37144 61.3996 4.36945 61.3988 4.36726C61.3979 4.36506 61.3976 4.3627 61.3978 4.36036V3.8349C61.3977 3.8326 61.3981 3.8303 61.3989 3.82816C61.3998 3.82602 61.4011 3.82409 61.4027 3.82249C61.4044 3.82089 61.4064 3.81966 61.4085 3.81888C61.4107 3.81809 61.413 3.81778 61.4153 3.81796H61.5515C61.557 3.81781 61.5624 3.81906 61.5672 3.82159C61.5706 3.8249 61.5729 3.82911 61.5739 3.83371Z" fill="#1BDBDB"/>
</svg>
