<svg width="6" height="7" viewBox="0 0 6 7" fill="none" xmlns="http://www.w3.org/2000/svg">
<mask id="mask0_3101_4096" style="mask-type:alpha" maskUnits="userSpaceOnUse" x="-4" y="-4" width="14" height="15">
<rect x="-3.73806" y="-3.15119" width="13.4781" height="13.4781" fill="#08B71A"/>
</mask>
<g mask="url(#mask0_3101_4096)">
<path d="M2.58008 1.40178L0.71385 3.268C0.636098 3.34575 0.538362 3.38553 0.420644 3.38733C0.302935 3.38913 0.203403 3.34935 0.122048 3.268C0.0406828 3.18664 0 3.08801 0 2.9721C0 2.85617 0.0406828 2.75754 0.122048 2.67618L2.64595 0.152275C2.74747 0.0507584 2.8659 0 3.00126 0C3.13661 0 3.25504 0.0507584 3.35656 0.152275L5.88047 2.67618C5.95823 2.75394 5.99801 2.85168 5.9998 2.96939C6.00161 3.0871 5.96183 3.18664 5.88047 3.268C5.79911 3.34935 5.70048 3.39003 5.58457 3.39003C5.46865 3.39003 5.37002 3.34935 5.28866 3.268L3.42243 1.40178V6.34163C3.42243 6.46113 3.38212 6.56121 3.30148 6.64185C3.22085 6.72249 3.12077 6.76281 3.00126 6.76281C2.88174 6.76281 2.78167 6.72249 2.70103 6.64185C2.6204 6.56121 2.58008 6.46113 2.58008 6.34163V1.40178Z" fill="#08B71A"/>
</g>
</svg>
