<svg width="16" height="16" viewBox="0 0 16 16" fill="none" xmlns="http://www.w3.org/2000/svg">
<path d="M8.04913 0C3.62211 0 0 3.62211 0 8.04913C0 11.3694 2.01229 14.1866 4.82948 15.394C4.82948 14.7903 4.82947 14.1866 4.93008 13.5829C5.13131 12.8786 5.93623 9.15588 5.93623 9.15588C5.93623 9.15588 5.6344 8.65281 5.6344 7.8479C5.6344 6.64053 6.33869 5.735 7.14361 5.735C7.84791 5.735 8.25035 6.23807 8.25035 6.94237C8.25035 7.64667 7.74729 8.75343 7.54606 9.75957C7.34483 10.5645 7.94852 11.2688 8.85404 11.2688C10.3633 11.2688 11.3694 9.35711 11.3694 6.94237C11.3694 5.13132 10.162 3.82334 8.04913 3.82334C5.63439 3.82334 4.12518 5.63439 4.12518 7.64667C4.12518 8.35097 4.32641 8.85404 4.62825 9.2565C4.72887 9.45773 4.82947 9.45773 4.72886 9.65895C4.72886 9.75957 4.62825 10.162 4.52763 10.2626C4.42702 10.4639 4.32641 10.5645 4.12518 10.4639C3.01843 9.9608 2.51535 8.75343 2.51535 7.34483C2.51535 5.0307 4.42702 2.31412 8.25035 2.31412C11.3694 2.31412 13.3817 4.52763 13.3817 6.94237C13.3817 10.0614 11.6712 12.4761 9.05527 12.4761C8.14974 12.4761 7.34483 11.9731 7.04299 11.47C7.04299 11.47 6.53991 13.2811 6.4393 13.6835C6.23807 14.2872 5.93624 14.8909 5.6344 15.394C6.33869 15.5952 7.14359 15.6958 7.94851 15.6958C12.3755 15.6958 15.9976 12.0737 15.9976 7.64667C16.0983 3.62211 12.4761 0 8.04913 0Z" fill="#E60023"/>
</svg>
