<svg width="24" height="24" viewBox="0 0 24 24" fill="none" xmlns="http://www.w3.org/2000/svg">
<circle cx="11.7333" cy="12" r="10.6667" fill="#F2F0F2"/>
<mask id="mask0_0_77" style="mask-type:alpha" maskUnits="userSpaceOnUse" x="1" y="1" width="22" height="22">
<circle cx="11.7333" cy="12" r="10.6667" fill="#FCFCFC"/>
</mask>
<g mask="url(#mask0_0_77)">
<rect x="4.53345" y="20.2667" width="14.6667" height="2.66667" fill="#D90026"/>
<rect x="4.53345" y="20.2667" width="14.6667" height="2.66667" fill="#D90026"/>
<rect x="1.33325" y="14.9333" width="21.0667" height="2.66667" fill="#D90026"/>
<rect x="1.33325" y="14.9333" width="21.0667" height="2.66667" fill="#D90026"/>
<rect x="1.33325" y="9.33331" width="21.0667" height="2.66667" fill="#D90026"/>
<rect x="1.33325" y="9.33331" width="21.0667" height="2.66667" fill="#D90026"/>
<rect x="1.33325" y="4" width="21.0667" height="2.66667" fill="#D90026"/>
<rect x="1.33325" y="4" width="21.0667" height="2.66667" fill="#D90026"/>
<rect x="1.06665" y="1.33331" width="10.9333" height="10.6667" fill="#0052B5"/>
<path d="M9.86672 10.2667L9.06672 10.6667L9.33338 9.86666L8.80005 9.33333H9.60005L9.86672 8.53333L10.2667 9.33333H10.9334L10.4 9.86666L10.6667 10.6667L9.86672 10.2667Z" fill="#EFEFEF"/>
<path d="M6.13332 10.2667L5.33332 10.6667L5.59998 9.86666L5.06665 9.33333H5.86665L6.13332 8.53333L6.53332 9.33333H7.19998L6.66665 9.86666L6.93332 10.6667L6.13332 10.2667Z" fill="#EFEFEF"/>
<path d="M2.39992 10.2667L1.59992 10.6667L1.86659 9.86666L1.33325 9.33333H2.13325L2.39992 8.53333L2.79992 9.33333H3.46659L2.93325 9.86666L3.19992 10.6667L2.39992 10.2667Z" fill="#EFEFEF"/>
<path d="M9.86672 7.33331L9.06672 7.73331L9.33338 6.93331L8.80005 6.39998H9.60005L9.86672 5.59998L10.2667 6.39998H10.9334L10.4 6.93331L10.6667 7.73331L9.86672 7.33331Z" fill="#EFEFEF"/>
<path d="M9.86672 4.40002L9.06672 4.80002L9.33338 4.00002L8.80005 3.46669H9.60005L9.86672 2.66669L10.2667 3.46669H10.9334L10.4 4.00002L10.6667 4.80002L9.86672 4.40002Z" fill="#EFEFEF"/>
<path d="M9.86672 1.46667L9.06672 1.86667L9.33338 1.06667L8.80005 0.533337H9.60005L9.86672 -0.266663L10.2667 0.533337H10.9334L10.4 1.06667L10.6667 1.86667L9.86672 1.46667Z" fill="#EFEFEF"/>
<path d="M6.13332 4.40002L5.33332 4.80002L5.59998 4.00002L5.06665 3.46669H5.86665L6.13332 2.66669L6.53332 3.46669H7.19998L6.66665 4.00002L6.93332 4.80002L6.13332 4.40002Z" fill="#EFEFEF"/>
<path d="M6.13332 7.33331L5.33332 7.73331L5.59998 6.93331L5.06665 6.39998H5.86665L6.13332 5.59998L6.53332 6.39998H7.19998L6.66665 6.93331L6.93332 7.73331L6.13332 7.33331Z" fill="#EFEFEF"/>
<path d="M2.39992 7.33331L1.59992 7.73331L1.86659 6.93331L1.33325 6.39998H2.13325L2.39992 5.59998L2.79992 6.39998H3.46659L2.93325 6.93331L3.19992 7.73331L2.39992 7.33331Z" fill="#EFEFEF"/>
</g>
</svg>
