<svg width="16" height="16" viewBox="0 0 16 16" fill="none" xmlns="http://www.w3.org/2000/svg">
<g clip-path="url(#clip0_3101_4043)">
<g clip-path="url(#clip1_3101_4043)">
<path fill-rule="evenodd" clip-rule="evenodd" d="M14.816 0C15.466 0 16 0.512 16 1.152V14.848C16 15.478 15.467 16 14.816 16H1.184C0.534 16 0 15.477 0 14.848V1.152C0 0.512 0.533 0 1.184 0H14.816ZM3.563 4.96C3.92296 4.95031 4.26493 4.80051 4.5161 4.54249C4.76728 4.28446 4.90783 3.93859 4.90783 3.5785C4.90783 3.21841 4.76728 2.87254 4.5161 2.61451C4.26493 2.35648 3.92296 2.20669 3.563 2.197C2.795 2.197 2.187 2.816 2.187 3.573C2.187 4.341 2.795 4.96 3.563 4.96ZM13.632 9.45C13.632 7.392 13.195 5.813 10.784 5.813C9.632 5.813 8.864 6.443 8.544 7.04H8.512V5.995H6.24V13.632H8.608V9.856C8.608 8.864 8.789 7.893 10.027 7.893C11.243 7.893 11.264 9.035 11.264 9.92V13.632H13.632V9.45ZM2.368 13.633H4.747V5.995H2.368V13.633Z" fill="black"/>
</g>
</g>
<defs>
<clipPath id="clip0_3101_4043">
<rect width="16" height="16" fill="white"/>
</clipPath>
<clipPath id="clip1_3101_4043">
<rect width="16" height="16" fill="white"/>
</clipPath>
</defs>
</svg>
